<?xml version="1.0" encoding="UTF-8" standalone="no"?>
<!-- Created with Inkscape (http://www.inkscape.org/) -->

<svg
   xmlns:dc="http://purl.org/dc/elements/1.1/"
   xmlns:cc="http://creativecommons.org/ns#"
   xmlns:rdf="http://www.w3.org/1999/02/22-rdf-syntax-ns#"
   xmlns:svg="http://www.w3.org/2000/svg"
   xmlns="http://www.w3.org/2000/svg"
   xmlns:sodipodi="http://sodipodi.sourceforge.net/DTD/sodipodi-0.dtd"
   xmlns:inkscape="http://www.inkscape.org/namespaces/inkscape"
   width="48px"
   height="48px"
   id="svg2985"
   version="1.1"
   inkscape:version="0.48.4 r9939"
   sodipodi:docname="1_2.svg">
  <defs
     id="defs2987" />
  <sodipodi:namedview
     id="base"
     pagecolor="#ffffff"
     bordercolor="#666666"
     borderopacity="1.0"
     inkscape:pageopacity="0.0"
     inkscape:pageshadow="2"
     inkscape:zoom="9.7031865"
     inkscape:cx="21.172241"
     inkscape:cy="32.796936"
     inkscape:current-layer="layer1"
     showgrid="true"
     inkscape:grid-bbox="true"
     inkscape:document-units="px"
     inkscape:snap-center="false"
     inkscape:window-width="1381"
     inkscape:window-height="876"
     inkscape:window-x="59"
     inkscape:window-y="24"
     inkscape:window-maximized="1"
     showguides="true"
     inkscape:guide-bbox="true"
     inkscape:snap-bbox="true"
     inkscape:snap-grids="false"
     inkscape:snap-to-guides="true"
     inkscape:snap-object-midpoints="true"
     inkscape:snap-midpoints="false">
    <inkscape:grid
       type="xygrid"
       id="grid2995" />
    <sodipodi:guide
       orientation="1,0"
       position="45,29"
       id="guide4007" />
    <sodipodi:guide
       orientation="0,1"
       position="-1,30"
       id="guide4009" />
    <sodipodi:guide
       orientation="1,0"
       position="3,49"
       id="guide4011" />
    <sodipodi:guide
       orientation="0,1"
       position="51,3"
       id="guide4741" />
    <sodipodi:guide
       orientation="0,1"
       position="-2,45"
       id="guide4948" />
    <sodipodi:guide
       orientation="0,1"
       position="53,41"
       id="guide4955" />
    <sodipodi:guide
       orientation="0,1"
       position="52,18"
       id="guide4957" />
    <sodipodi:guide
       orientation="0,1"
       position="52,7"
       id="guide4959" />
  </sodipodi:namedview>
  <metadata
     id="metadata2990">
    <rdf:RDF>
      <cc:Work
         rdf:about="">
        <dc:format>image/svg+xml</dc:format>
        <dc:type
           rdf:resource="http://purl.org/dc/dcmitype/StillImage" />
        <dc:title />
      </cc:Work>
    </rdf:RDF>
  </metadata>
  <g
     id="layer1"
     inkscape:label="Layer 1"
     inkscape:groupmode="layer">
    <g
       id="g3019"
       transform="matrix(3.0909093,0,0,3.0909093,-47.826783,-10.636363)" />
    <path
       style="font-size:medium;font-style:normal;font-variant:normal;font-weight:normal;font-stretch:normal;text-indent:0;text-align:start;text-decoration:none;line-height:normal;letter-spacing:normal;word-spacing:normal;text-transform:none;direction:ltr;block-progression:tb;writing-mode:lr-tb;text-anchor:start;baseline-shift:baseline;color:#000000;fill:#000000;fill-opacity:1;stroke:none;stroke-width:2.20979977;marker:none;visibility:visible;display:inline;overflow:visible;enable-background:accumulate;font-family:Sans;-inkscape-font-specification:Sans"
       d="M 39.75,2.5625 39.03125,3.40625 6.375,43.1875 5.65625,44.0625 7.375,45.4375 8.0625,44.59375 40.75,4.8125 41.4375,3.9375 39.75,2.5625 z"
       id="path3021"
       inkscape:connector-curvature="0" />
    <g
       style="font-size:40px;font-style:italic;font-variant:normal;font-weight:300;font-stretch:normal;text-align:start;line-height:125%;letter-spacing:0px;word-spacing:0px;writing-mode:lr-tb;text-anchor:start;fill:#000000;fill-opacity:1;stroke:none;font-family:Ubuntu;-inkscape-font-specification:Ubuntu Light Italic"
       id="text3793">
      <path
         d="m 41.599999,44.04 -0.52,2.28 -15.48,0 c 0.319996,-1.999998 0.946662,-3.73333 1.88,-5.2 0.959994,-1.46666 2.053326,-2.759992 3.28,-3.88 1.226657,-1.11999 2.506655,-2.146656 3.84,-3.08 1.359986,-0.933321 2.599985,-1.866653 3.72,-2.8 1.119983,-0.933318 2.039982,-1.933317 2.76,-3 0.746647,-1.066648 1.11998,-2.31998 1.12,-3.76 -2e-5,-1.49331 -0.413353,-2.573309 -1.24,-3.24 -0.800018,-0.666641 -1.77335,-0.999974 -2.92,-1 -1.120015,2.6e-5 -2.26668,0.240025 -3.44,0.72 -1.173345,0.453358 -2.186677,1.040024 -3.04,1.76 l -0.88,-2.16 c 1.013324,-0.826641 2.213322,-1.479973 3.6,-1.96 1.41332,-0.479972 2.799985,-0.719972 4.16,-0.72 0.879983,2.8e-5 1.706649,0.120028 2.48,0.36 0.79998,0.240027 1.493313,0.61336 2.08,1.12 0.613312,0.506693 1.093311,1.160025 1.44,1.96 0.373311,0.800024 0.559977,1.746689 0.56,2.84 -2.3e-5,1.253354 -0.240023,2.400019 -0.72,3.44 -0.453355,1.013351 -1.053355,1.960016 -1.8,2.84 -0.72002,0.880015 -1.546686,1.70668 -2.48,2.48 -0.93335,0.746679 -1.880016,1.466678 -2.84,2.16 -1.173347,0.88001 -2.240013,1.693342 -3.2,2.44 -0.960011,0.720008 -1.80001,1.426674 -2.52,2.12 -0.693342,0.693339 -1.266675,1.386672 -1.72,2.08 -0.453341,0.693337 -0.77334,1.426669 -0.96,2.2 l 12.84,0"
         style=""
         id="path3095" />
    </g>
    <g
       style="font-size:40px;font-style:italic;font-variant:normal;font-weight:300;font-stretch:normal;text-align:start;line-height:125%;letter-spacing:0px;word-spacing:0px;writing-mode:lr-tb;text-anchor:start;fill:#000000;fill-opacity:1;stroke:none;font-family:Ubuntu;-inkscape-font-specification:Ubuntu Light Italic"
       id="text3797">
      <path
         d="m 16.169411,7.0399993 c -0.853351,0.8533562 -1.920016,1.6266887 -3.2,2.32 -1.280014,0.6933537 -2.600012,1.2533537 -3.9600004,1.6799997 l -0.48,-2.3199997 c 1.5466544,-0.5599774 3.0933204,-1.2799767 4.6400004,-2.16 1.54665,-0.8799749 3.079982,-2.0666404 4.6,-3.56 l 1.92,0 -6.64,27.7199997 -2.56,0 5.68,-23.6799997"
         style=""
         id="path3102" />
    </g>
  </g>
</svg>
