<?xml version="1.0" encoding="UTF-8" standalone="no"?>
<!-- Created with Inkscape (http://www.inkscape.org/) -->

<svg
   xmlns:dc="http://purl.org/dc/elements/1.1/"
   xmlns:cc="http://creativecommons.org/ns#"
   xmlns:rdf="http://www.w3.org/1999/02/22-rdf-syntax-ns#"
   xmlns:svg="http://www.w3.org/2000/svg"
   xmlns="http://www.w3.org/2000/svg"
   xmlns:sodipodi="http://sodipodi.sourceforge.net/DTD/sodipodi-0.dtd"
   xmlns:inkscape="http://www.inkscape.org/namespaces/inkscape"
   width="48px"
   height="48px"
   id="svg2985"
   version="1.1"
   inkscape:version="0.48.4 r9939"
   sodipodi:docname="1_4.svg">
  <defs
     id="defs2987" />
  <sodipodi:namedview
     id="base"
     pagecolor="#ffffff"
     bordercolor="#666666"
     borderopacity="1.0"
     inkscape:pageopacity="0.0"
     inkscape:pageshadow="2"
     inkscape:zoom="9.7031865"
     inkscape:cx="21.172241"
     inkscape:cy="32.796936"
     inkscape:current-layer="layer1"
     showgrid="true"
     inkscape:grid-bbox="true"
     inkscape:document-units="px"
     inkscape:snap-center="false"
     inkscape:window-width="1381"
     inkscape:window-height="876"
     inkscape:window-x="59"
     inkscape:window-y="24"
     inkscape:window-maximized="1"
     showguides="true"
     inkscape:guide-bbox="true"
     inkscape:snap-bbox="true"
     inkscape:snap-grids="false"
     inkscape:snap-to-guides="true"
     inkscape:snap-object-midpoints="true"
     inkscape:snap-midpoints="false">
    <inkscape:grid
       type="xygrid"
       id="grid2995" />
    <sodipodi:guide
       orientation="1,0"
       position="45,29"
       id="guide4007" />
    <sodipodi:guide
       orientation="0,1"
       position="-1,30"
       id="guide4009" />
    <sodipodi:guide
       orientation="1,0"
       position="3,49"
       id="guide4011" />
    <sodipodi:guide
       orientation="0,1"
       position="51,3"
       id="guide4741" />
    <sodipodi:guide
       orientation="0,1"
       position="-2,45"
       id="guide4948" />
    <sodipodi:guide
       orientation="0,1"
       position="53,41"
       id="guide4955" />
    <sodipodi:guide
       orientation="0,1"
       position="52,18"
       id="guide4957" />
    <sodipodi:guide
       orientation="0,1"
       position="52,7"
       id="guide4959" />
  </sodipodi:namedview>
  <metadata
     id="metadata2990">
    <rdf:RDF>
      <cc:Work
         rdf:about="">
        <dc:format>image/svg+xml</dc:format>
        <dc:type
           rdf:resource="http://purl.org/dc/dcmitype/StillImage" />
        <dc:title />
      </cc:Work>
    </rdf:RDF>
  </metadata>
  <g
     id="layer1"
     inkscape:label="Layer 1"
     inkscape:groupmode="layer">
    <g
       id="g3019"
       transform="matrix(3.0909093,0,0,3.0909093,-47.826783,-10.636363)" />
    <path
       style="font-size:medium;font-style:normal;font-variant:normal;font-weight:normal;font-stretch:normal;text-indent:0;text-align:start;text-decoration:none;line-height:normal;letter-spacing:normal;word-spacing:normal;text-transform:none;direction:ltr;block-progression:tb;writing-mode:lr-tb;text-anchor:start;baseline-shift:baseline;color:#000000;fill:#000000;fill-opacity:1;stroke:none;stroke-width:2.20979977;marker:none;visibility:visible;display:inline;overflow:visible;enable-background:accumulate;font-family:Sans;-inkscape-font-specification:Sans"
       d="M 43.75,2.5625 43.03125,3.40625 10.375,43.1875 9.65625,44.0625 11.375,45.4375 12.0625,44.59375 44.75,4.8125 45.4375,3.9375 43.75,2.5625 z"
       id="path3048"
       inkscape:connector-curvature="0" />
    <g
       style="font-size:40px;font-style:italic;font-variant:normal;font-weight:300;font-stretch:normal;text-align:start;line-height:125%;letter-spacing:0px;word-spacing:0px;writing-mode:lr-tb;text-anchor:start;fill:#000000;fill-opacity:1;stroke:none;font-family:Ubuntu;-inkscape-font-specification:Ubuntu Light Italic"
       id="text3797">
      <path
         d="m 16.169411,7.0399993 c -0.853351,0.8533562 -1.920016,1.6266887 -3.2,2.32 -1.280014,0.6933537 -2.600012,1.2533537 -3.9600004,1.6799997 l -0.48,-2.3199997 c 1.5466544,-0.5599774 3.0933204,-1.2799767 4.6400004,-2.16 1.54665,-0.8799749 3.079982,-2.0666404 4.6,-3.56 l 1.92,0 -6.64,27.7199997 -2.56,0 5.68,-23.6799997"
         style=""
         id="path3108" />
    </g>
    <g
       style="font-size:40px;font-style:italic;font-variant:normal;font-weight:300;font-stretch:normal;text-align:start;line-height:125%;letter-spacing:0px;word-spacing:0px;writing-mode:lr-tb;text-anchor:start;fill:#000000;fill-opacity:1;stroke:none;font-family:Ubuntu;-inkscape-font-specification:Ubuntu Light Italic"
       id="text3873">
      <path
         d="m 38.119999,35.32 3.52,-14.6 c -1.093352,0.880023 -2.226684,1.880022 -3.4,3 -1.173348,1.12002 -2.333347,2.320019 -3.48,3.6 -1.120012,1.25335 -2.200011,2.560015 -3.24,3.92 -1.040008,1.360012 -1.960008,2.720011 -2.76,4.08 l 9.36,0 m -12.36,0.6 c 0.826662,-1.439989 1.839994,-2.973321 3.04,-4.6 1.226659,-1.626651 2.559991,-3.253316 4,-4.88 1.466654,-1.653313 3.01332,-3.266645 4.64,-4.84 1.62665,-1.573308 3.279981,-3.013307 4.96,-4.32 l 2.6,0 -4.32,18.04 3.4,0 -0.52,2.16 -3.36,0 -1.76,7.52 -2.56,0 1.76,-7.52 -12.28,0 0.4,-1.56"
         style=""
         id="path3105" />
    </g>
  </g>
</svg>
