<?xml version="1.0" encoding="UTF-8" standalone="no"?>
<!-- Created with Inkscape (http://www.inkscape.org/) -->

<svg
   xmlns:dc="http://purl.org/dc/elements/1.1/"
   xmlns:cc="http://creativecommons.org/ns#"
   xmlns:rdf="http://www.w3.org/1999/02/22-rdf-syntax-ns#"
   xmlns:svg="http://www.w3.org/2000/svg"
   xmlns="http://www.w3.org/2000/svg"
   xmlns:sodipodi="http://sodipodi.sourceforge.net/DTD/sodipodi-0.dtd"
   xmlns:inkscape="http://www.inkscape.org/namespaces/inkscape"
   width="48px"
   height="48px"
   id="svg2985"
   version="1.1"
   inkscape:version="0.48.4 r9939"
   sodipodi:docname="330-g.svg">
  <defs
     id="defs2987" />
  <sodipodi:namedview
     id="base"
     pagecolor="#ffffff"
     bordercolor="#666666"
     borderopacity="1.0"
     inkscape:pageopacity="0.0"
     inkscape:pageshadow="2"
     inkscape:zoom="10.59984"
     inkscape:cx="10.089436"
     inkscape:cy="25.607119"
     inkscape:current-layer="layer1"
     showgrid="true"
     inkscape:grid-bbox="true"
     inkscape:document-units="px"
     inkscape:snap-center="false"
     inkscape:window-width="1381"
     inkscape:window-height="876"
     inkscape:window-x="59"
     inkscape:window-y="24"
     inkscape:window-maximized="1"
     showguides="true"
     inkscape:guide-bbox="true"
     inkscape:snap-bbox="true"
     inkscape:snap-grids="true"
     inkscape:snap-to-guides="false"
     inkscape:snap-object-midpoints="true"
     inkscape:snap-midpoints="false">
    <inkscape:grid
       type="xygrid"
       id="grid2995" />
    <sodipodi:guide
       orientation="1,0"
       position="45,29"
       id="guide4007" />
    <sodipodi:guide
       orientation="0,1"
       position="-1,30"
       id="guide4009" />
    <sodipodi:guide
       orientation="1,0"
       position="3,49"
       id="guide4011" />
    <sodipodi:guide
       orientation="0,1"
       position="51,3"
       id="guide4741" />
    <sodipodi:guide
       orientation="0,1"
       position="-2,45"
       id="guide4948" />
    <sodipodi:guide
       orientation="0,1"
       position="53,41"
       id="guide4955" />
    <sodipodi:guide
       orientation="0,1"
       position="52,18"
       id="guide4957" />
    <sodipodi:guide
       orientation="0,1"
       position="52,7"
       id="guide4959" />
  </sodipodi:namedview>
  <metadata
     id="metadata2990">
    <rdf:RDF>
      <cc:Work
         rdf:about="">
        <dc:format>image/svg+xml</dc:format>
        <dc:type
           rdf:resource="http://purl.org/dc/dcmitype/StillImage" />
        <dc:title />
      </cc:Work>
    </rdf:RDF>
  </metadata>
  <g
     id="layer1"
     inkscape:label="Layer 1"
     inkscape:groupmode="layer">
    <g
       transform="scale(0.99361601,1.006425)"
       style="font-size:40.25699997px;font-style:normal;font-weight:normal;line-height:125%;letter-spacing:0px;word-spacing:0px;fill:#ffffff;fill-opacity:1;stroke:none;font-family:Sans"
       id="text3003">
      <path
         d="m 17.053478,39.485257 c 0.895714,1e-6 1.534793,-0.176123 1.917239,-0.528373 0.392501,-0.352247 0.588753,-0.825267 0.588759,-1.41906 -6e-6,-0.382438 -0.08052,-0.704494 -0.241542,-0.966168 -0.161033,-0.261666 -0.372382,-0.467983 -0.634048,-0.618951 -0.261675,-0.161023 -0.568634,-0.27173 -0.920879,-0.33212 -0.342188,-0.07044 -0.694436,-0.10567 -1.056746,-0.105675 l -0.362313,0 0,-1.147325 0.498181,0 c 0.251602,7e-6 0.50824,-0.02515 0.769915,-0.07548 0.27173,-0.05032 0.518304,-0.140894 0.739722,-0.271735 0.221409,-0.130829 0.402565,-0.306953 0.54347,-0.528373 0.140894,-0.231471 0.211343,-0.518302 0.211349,-0.860494 -6e-6,-0.281791 -0.05033,-0.523332 -0.150964,-0.724626 -0.100648,-0.201276 -0.236515,-0.367336 -0.407602,-0.49818 -0.161033,-0.130826 -0.352253,-0.221404 -0.573662,-0.271735 -0.211354,-0.06038 -0.437799,-0.09057 -0.679337,-0.09058 -0.483087,9e-6 -0.895721,0.07046 -1.237903,0.211349 -0.332122,0.140909 -0.613921,0.28684 -0.845397,0.437795 l -0.54347,-1.071843 c 0.12077,-0.0805 0.271734,-0.16605 0.452892,-0.256638 0.191219,-0.100632 0.402568,-0.19121 0.634047,-0.271735 0.231476,-0.0805 0.47805,-0.145921 0.739723,-0.196253 0.271732,-0.06037 0.55353,-0.09057 0.845397,-0.09058 0.553529,1.1e-5 1.031581,0.07046 1.434156,0.211349 0.402564,0.130846 0.734684,0.322067 0.99636,0.573663 0.261664,0.241551 0.457917,0.533414 0.588759,0.875589 0.130828,0.332129 0.196246,0.694442 0.196253,1.086939 -7e-6,0.543477 -0.156003,1.011465 -0.467988,1.403963 -0.311998,0.382448 -0.689407,0.674311 -1.132228,0.87559 0.271729,0.08052 0.5334,0.196258 0.785012,0.347217 0.2516,0.150969 0.467981,0.342189 0.649144,0.573662 0.191214,0.231482 0.342177,0.498185 0.452891,0.800108 0.120764,0.301931 0.181149,0.639083 0.181157,1.011457 -8e-6,0.452894 -0.08052,0.875592 -0.241542,1.268096 -0.150971,0.382442 -0.392513,0.714562 -0.724626,0.99636 -0.322063,0.2818 -0.729664,0.503213 -1.222807,0.664241 -0.493153,0.161028 -1.076879,0.241542 -1.751179,0.241542 -0.261674,0 -0.533409,-0.02013 -0.815205,-0.06039 -0.271737,-0.04026 -0.528375,-0.09058 -0.769915,-0.150963 -0.241544,-0.06039 -0.452893,-0.120771 -0.634048,-0.181157 -0.181157,-0.06039 -0.311992,-0.110706 -0.392505,-0.150964 l 0.271734,-1.222806 c 0.171091,0.08051 0.45289,0.18619 0.845397,0.317024 0.402568,0.130836 0.890684,0.196254 1.464349,0.196253"
         style="font-size:15.09637546999999991px;font-variant:normal;font-stretch:normal;fill:#000000;font-family:Ubuntu;-inkscape-font-specification:Ubuntu"
         id="path3073" />
      <path
         d="m 25.574674,39.485257 c 0.895714,1e-6 1.534793,-0.176123 1.91724,-0.528373 0.3925,-0.352247 0.588753,-0.825267 0.588758,-1.41906 -5e-6,-0.382438 -0.08052,-0.704494 -0.241542,-0.966168 -0.161033,-0.261666 -0.372382,-0.467983 -0.634047,-0.618951 -0.261676,-0.161023 -0.568635,-0.27173 -0.920879,-0.33212 -0.342188,-0.07044 -0.694437,-0.10567 -1.056746,-0.105675 l -0.362313,0 0,-1.147325 0.49818,0 c 0.251603,7e-6 0.508241,-0.02515 0.769915,-0.07548 0.271731,-0.05032 0.518304,-0.140894 0.739722,-0.271735 0.221409,-0.130829 0.402565,-0.306953 0.54347,-0.528373 0.140894,-0.231471 0.211344,-0.518302 0.211349,-0.860494 -5e-6,-0.281791 -0.05033,-0.523332 -0.150964,-0.724626 -0.100647,-0.201276 -0.236515,-0.367336 -0.407602,-0.49818 -0.161032,-0.130826 -0.352253,-0.221404 -0.573662,-0.271735 -0.211353,-0.06038 -0.437799,-0.09057 -0.679337,-0.09058 -0.483087,9e-6 -0.895721,0.07046 -1.237903,0.211349 -0.332122,0.140909 -0.613921,0.28684 -0.845397,0.437795 l -0.543469,-1.071843 c 0.12077,-0.0805 0.271733,-0.16605 0.452891,-0.256638 0.191219,-0.100632 0.402568,-0.19121 0.634048,-0.271735 0.231475,-0.0805 0.478049,-0.145921 0.739722,-0.196253 0.271732,-0.06037 0.553531,-0.09057 0.845397,-0.09058 0.55353,1.1e-5 1.031581,0.07046 1.434156,0.211349 0.402564,0.130846 0.734684,0.322067 0.996361,0.573663 0.261664,0.241551 0.457917,0.533414 0.588758,0.875589 0.130829,0.332129 0.196246,0.694442 0.196253,1.086939 -7e-6,0.543477 -0.156002,1.011465 -0.467987,1.403963 -0.311998,0.382448 -0.689407,0.674311 -1.132229,0.87559 0.27173,0.08052 0.5334,0.196258 0.785012,0.347217 0.2516,0.150969 0.467981,0.342189 0.649144,0.573662 0.191214,0.231482 0.342178,0.498185 0.452891,0.800108 0.120764,0.301931 0.18115,0.639083 0.181157,1.011457 -7e-6,0.452894 -0.08052,0.875592 -0.241542,1.268096 -0.150971,0.382442 -0.392513,0.714562 -0.724626,0.99636 -0.322062,0.2818 -0.729664,0.503213 -1.222807,0.664241 -0.493153,0.161028 -1.076878,0.241542 -1.751179,0.241542 -0.261674,0 -0.533408,-0.02013 -0.815204,-0.06039 -0.271737,-0.04026 -0.528376,-0.09058 -0.769916,-0.150963 -0.241543,-0.06039 -0.452892,-0.120771 -0.634047,-0.181157 -0.181158,-0.06039 -0.311993,-0.110706 -0.392506,-0.150964 l 0.271735,-1.222806 c 0.171091,0.08051 0.452889,0.18619 0.845397,0.317024 0.402567,0.130836 0.890683,0.196254 1.464348,0.196253"
         style="font-size:15.09637546999999991px;font-variant:normal;font-stretch:normal;fill:#000000;font-family:Ubuntu;-inkscape-font-specification:Ubuntu"
         id="path3075" />
      <path
         d="m 31.438908,35.273368 c 0,-1.751173 0.306959,-3.099781 0.920879,-4.045829 0.623982,-0.946029 1.484474,-1.419048 2.581481,-1.419059 1.096997,1.1e-5 1.952458,0.47303 2.566383,1.419059 0.623976,0.946048 0.935968,2.294656 0.935976,4.045829 -8e-6,1.751183 -0.312,3.099791 -0.935976,4.045829 -0.613925,0.946039 -1.469386,1.419059 -2.566383,1.419059 -1.097007,0 -1.957499,-0.47302 -2.581481,-1.419059 -0.61392,-0.946038 -0.920879,-2.294646 -0.920879,-4.045829 m 5.525274,0 c -6e-6,-0.573656 -0.03523,-1.117125 -0.105675,-1.630409 -0.06039,-0.513269 -0.171098,-0.961128 -0.33212,-1.343577 -0.150969,-0.382433 -0.357286,-0.68436 -0.618951,-0.905782 -0.261676,-0.231469 -0.583732,-0.347208 -0.966168,-0.347217 -0.382446,9e-6 -0.704502,0.115748 -0.966168,0.347217 -0.261674,0.221422 -0.473023,0.523349 -0.634048,0.905782 -0.150967,0.382449 -0.261673,0.830308 -0.332121,1.343577 -0.06039,0.513284 -0.09058,1.056753 -0.09058,1.630409 -2e-6,0.573667 0.03019,1.117136 0.09058,1.630409 0.07045,0.513279 0.181154,0.961138 0.332121,1.343577 0.161025,0.382443 0.372374,0.689403 0.634048,0.920879 0.261666,0.221415 0.583722,0.332121 0.966168,0.33212 0.382436,1e-6 0.704492,-0.110705 0.966168,-0.33212 0.261665,-0.231476 0.467982,-0.538436 0.618951,-0.920879 0.161022,-0.382439 0.271729,-0.830298 0.33212,-1.343577 0.07044,-0.513273 0.105669,-1.056742 0.105675,-1.630409"
         style="font-size:15.09637546999999991px;font-variant:normal;font-stretch:normal;fill:#000000;font-family:Ubuntu;-inkscape-font-specification:Ubuntu"
         id="path3077" />
      <path
         d="m 45.289125,32.691888 c -6e-6,0.43277 -0.07045,0.825275 -0.211349,1.177517 -0.130841,0.352255 -0.317029,0.654182 -0.558566,0.905783 -0.241547,0.251611 -0.528378,0.447864 -0.860493,0.588758 -0.332125,0.130841 -0.694437,0.196258 -1.086939,0.196253 -0.392509,5e-6 -0.754822,-0.06541 -1.086939,-0.196253 -0.332122,-0.140894 -0.618953,-0.337147 -0.860494,-0.588758 -0.241543,-0.251601 -0.432763,-0.553528 -0.573662,-0.905783 -0.130836,-0.352242 -0.196253,-0.744747 -0.196253,-1.177517 0,-0.432755 0.06542,-0.82526 0.196253,-1.177517 0.140899,-0.362304 0.332119,-0.664231 0.573662,-0.905783 0.241541,-0.251596 0.528372,-0.442817 0.860494,-0.573662 0.332117,-0.140889 0.69443,-0.211339 1.086939,-0.21135 0.392502,1.1e-5 0.754814,0.07046 1.086939,0.21135 0.332115,0.130845 0.618946,0.322066 0.860493,0.573662 0.241537,0.241552 0.427725,0.543479 0.558566,0.905783 0.140894,0.352257 0.211343,0.744762 0.211349,1.177517 m -1.117131,0 c -5e-6,-0.56359 -0.140905,-1.011449 -0.422699,-1.343578 -0.271739,-0.342175 -0.664244,-0.513267 -1.177517,-0.513276 -0.503216,9e-6 -0.895721,0.171101 -1.177518,0.513276 -0.2818,0.332129 -0.4227,0.779988 -0.422698,1.343578 -2e-6,0.553541 0.135865,1.0014 0.407602,1.343577 0.281797,0.342191 0.679334,0.513283 1.192614,0.513277 0.513273,6e-6 0.905778,-0.171086 1.177517,-0.513277 0.281794,-0.342177 0.422694,-0.790036 0.422699,-1.343577"
         style="font-size:15.09637546999999991px;font-variant:normal;font-stretch:normal;fill:#000000;font-family:Ubuntu;-inkscape-font-specification:Ubuntu"
         id="path3079" />
    </g>
    <path
       style="font-size:medium;font-style:normal;font-variant:normal;font-weight:normal;font-stretch:normal;text-indent:0;text-align:start;text-decoration:none;line-height:normal;letter-spacing:normal;word-spacing:normal;text-transform:none;direction:ltr;block-progression:tb;writing-mode:lr-tb;text-anchor:start;baseline-shift:baseline;color:#000000;fill:#000000;fill-opacity:1;fill-rule:nonzero;stroke:none;stroke-width:0.99999976000000002;marker:none;visibility:visible;display:inline;overflow:visible;enable-background:accumulate;font-family:Sans;-inkscape-font-specification:Sans"
       d="m 9.75,7.78125 -0.5,0.875 26.5,15.3125 0.5,-0.875 -26.5,-15.3125 z"
       id="path2999"
       inkscape:connector-curvature="0" />
    <path
       style="font-size:medium;font-style:normal;font-variant:normal;font-weight:normal;font-stretch:normal;text-indent:0;text-align:start;text-decoration:none;line-height:normal;letter-spacing:normal;word-spacing:normal;text-transform:none;direction:ltr;block-progression:tb;writing-mode:lr-tb;text-anchor:start;baseline-shift:baseline;color:#000000;fill:#000000;fill-opacity:1;stroke:none;stroke-width:1;marker:none;visibility:visible;display:inline;overflow:visible;enable-background:accumulate;font-family:Sans;-inkscape-font-specification:Sans"
       d="m 2.8094136,8.008953 0.4330127,0.25 4.3301271,2.5 0.4330127,0.25 0.25,-0.433013 2.4999999,-4.3301268 0.25,-0.4330127 -0.433013,-0.25 -4.3301267,-2.5 -0.4330127,-0.25 -0.25,0.4330127 -2.5,4.3301271 -0.25,0.4330127 z m 1.3660254,-0.3660254 2,-3.4641017 3.4641016,2 L 7.6395407,9.6429275 4.175439,7.6429276 z"
       id="rect3033"
       inkscape:connector-curvature="0" />
    <path
       style="font-size:medium;font-style:normal;font-variant:normal;font-weight:normal;font-stretch:normal;text-indent:0;text-align:start;text-decoration:none;line-height:normal;letter-spacing:normal;word-spacing:normal;text-transform:none;direction:ltr;block-progression:tb;writing-mode:lr-tb;text-anchor:start;baseline-shift:baseline;color:#000000;fill:#000000;fill-opacity:1;stroke:none;stroke-width:1;marker:none;visibility:visible;display:inline;overflow:visible;enable-background:accumulate;font-family:Sans;-inkscape-font-specification:Sans"
       d="m 34.094582,26.071453 0.433012,0.25 4.330127,2.5 0.433013,0.25 0.25,-0.433013 2.5,-4.330127 0.25,-0.433013 -0.433013,-0.25 -4.330127,-2.5 -0.433012,-0.25 -0.25,0.433013 -2.5,4.330127 -0.25,0.433013 z m 1.366025,-0.366026 2,-3.464101 3.464102,2 -2,3.464101 -3.464102,-2 z"
       id="rect3776"
       inkscape:connector-curvature="0" />
  </g>
</svg>
