<?xml version="1.0" encoding="UTF-8" standalone="no"?>
<!-- Created with Inkscape (http://www.inkscape.org/) -->

<svg
   xmlns:dc="http://purl.org/dc/elements/1.1/"
   xmlns:cc="http://creativecommons.org/ns#"
   xmlns:rdf="http://www.w3.org/1999/02/22-rdf-syntax-ns#"
   xmlns:svg="http://www.w3.org/2000/svg"
   xmlns="http://www.w3.org/2000/svg"
   xmlns:sodipodi="http://sodipodi.sourceforge.net/DTD/sodipodi-0.dtd"
   xmlns:inkscape="http://www.inkscape.org/namespaces/inkscape"
   width="48px"
   height="48px"
   id="svg2985"
   version="1.1"
   inkscape:version="0.48.4 r9939"
   sodipodi:docname="3_4.svg">
  <defs
     id="defs2987" />
  <sodipodi:namedview
     id="base"
     pagecolor="#ffffff"
     bordercolor="#666666"
     borderopacity="1.0"
     inkscape:pageopacity="0.0"
     inkscape:pageshadow="2"
     inkscape:zoom="9.7031865"
     inkscape:cx="21.172241"
     inkscape:cy="32.796936"
     inkscape:current-layer="layer1"
     showgrid="true"
     inkscape:grid-bbox="true"
     inkscape:document-units="px"
     inkscape:snap-center="false"
     inkscape:window-width="1381"
     inkscape:window-height="876"
     inkscape:window-x="59"
     inkscape:window-y="24"
     inkscape:window-maximized="1"
     showguides="true"
     inkscape:guide-bbox="true"
     inkscape:snap-bbox="true"
     inkscape:snap-grids="false"
     inkscape:snap-to-guides="true"
     inkscape:snap-object-midpoints="true"
     inkscape:snap-midpoints="false">
    <inkscape:grid
       type="xygrid"
       id="grid2995" />
    <sodipodi:guide
       orientation="1,0"
       position="45,29"
       id="guide4007" />
    <sodipodi:guide
       orientation="0,1"
       position="-1,30"
       id="guide4009" />
    <sodipodi:guide
       orientation="1,0"
       position="3,49"
       id="guide4011" />
    <sodipodi:guide
       orientation="0,1"
       position="51,3"
       id="guide4741" />
    <sodipodi:guide
       orientation="0,1"
       position="-2,45"
       id="guide4948" />
    <sodipodi:guide
       orientation="0,1"
       position="53,41"
       id="guide4955" />
    <sodipodi:guide
       orientation="0,1"
       position="52,18"
       id="guide4957" />
    <sodipodi:guide
       orientation="0,1"
       position="52,7"
       id="guide4959" />
  </sodipodi:namedview>
  <metadata
     id="metadata2990">
    <rdf:RDF>
      <cc:Work
         rdf:about="">
        <dc:format>image/svg+xml</dc:format>
        <dc:type
           rdf:resource="http://purl.org/dc/dcmitype/StillImage" />
        <dc:title></dc:title>
      </cc:Work>
    </rdf:RDF>
  </metadata>
  <g
     id="layer1"
     inkscape:label="Layer 1"
     inkscape:groupmode="layer">
    <g
       id="g3019"
       transform="matrix(3.0909093,0,0,3.0909093,-47.826783,-10.636363)" />
    <text
       xml:space="preserve"
       style="font-size:40px;font-style:normal;font-variant:normal;font-weight:normal;font-stretch:normal;line-height:125%;letter-spacing:0px;word-spacing:0px;fill:#000000;fill-opacity:1;stroke:none;font-family:Ubuntu;-inkscape-font-specification:Ubuntu"
       x="-21.794611"
       y="75.68898"
       id="text3049"
       sodipodi:linespacing="125%"><tspan
         sodipodi:role="line"
         id="tspan3051"
         x="-21.794611"
         y="75.68898"
         style="font-size:32px">1/2</tspan></text>
    <path
       style="font-size:medium;font-style:normal;font-variant:normal;font-weight:normal;font-stretch:normal;text-indent:0;text-align:start;text-decoration:none;line-height:normal;letter-spacing:normal;word-spacing:normal;text-transform:none;direction:ltr;block-progression:tb;writing-mode:lr-tb;text-anchor:start;baseline-shift:baseline;color:#000000;fill:#000000;fill-opacity:1;stroke:none;stroke-width:2.20979977;marker:none;visibility:visible;display:inline;overflow:visible;enable-background:accumulate;font-family:Sans;-inkscape-font-specification:Sans"
       d="M 43.75,2.5625 43.03125,3.40625 10.375,43.1875 9.65625,44.0625 11.375,45.4375 12.0625,44.59375 44.75,4.8125 45.4375,3.9375 43.75,2.5625 z"
       inkscape:connector-curvature="0" />
    <text
       xml:space="preserve"
       style="font-size:40px;font-style:normal;font-variant:normal;font-weight:normal;font-stretch:normal;line-height:125%;letter-spacing:0px;word-spacing:0px;fill:#000000;fill-opacity:1;stroke:none;font-family:Ubuntu;-inkscape-font-specification:Ubuntu"
       x="54.977913"
       y="69.360001"
       id="text3793"
       sodipodi:linespacing="125%"><tspan
         sodipodi:role="line"
         id="tspan3795"
         x="54.977913"
         y="69.360001">2</tspan></text>
    <text
       xml:space="preserve"
       style="font-size:40px;font-style:normal;font-variant:normal;font-weight:normal;font-stretch:normal;line-height:125%;letter-spacing:0px;word-spacing:0px;fill:#000000;fill-opacity:1;stroke:none;font-family:Ubuntu;-inkscape-font-specification:Ubuntu"
       x="-31.431561"
       y="45.720001"
       id="text3797"
       sodipodi:linespacing="125%"><tspan
         sodipodi:role="line"
         id="tspan3799"
         x="-31.431561"
         y="45.720001">1</tspan></text>
    <g
       style="font-size:40px;font-style:italic;font-variant:normal;font-weight:300;font-stretch:normal;text-align:start;line-height:125%;letter-spacing:0px;word-spacing:0px;writing-mode:lr-tb;text-anchor:start;fill:#000000;fill-opacity:1;stroke:none;font-family:Ubuntu;-inkscape-font-specification:Ubuntu Light Italic"
       id="text3869">
      <path
         d="m 4.04,28.2 c 0.7466618,0.453336 1.5999942,0.786669 2.56,1 0.986659,0.213335 1.9999913,0.320001 3.04,0.32 1.146656,1e-6 2.213321,-0.133332 3.2,-0.4 0.986653,-0.293331 1.839985,-0.719997 2.56,-1.28 0.74665,-0.559996 1.333316,-1.266662 1.76,-2.12 0.426649,-0.879994 0.639982,-1.906659 0.64,-3.08 -1.8e-5,-1.786657 -0.640017,-3.066655 -1.92,-3.84 -1.253348,-0.799987 -2.94668,-1.199987 -5.08,-1.2 l 0.56,-2.16 1,0 c 1.279986,1.6e-5 2.386652,-0.199984 3.32,-0.6 0.933317,-0.399983 1.693316,-0.90665 2.28,-1.52 0.613315,-0.613315 1.053314,-1.293314 1.32,-2.04 0.293314,-0.746646 0.43998,-1.4799788 0.44,-2.2000003 -2e-5,-0.6666438 -0.106686,-1.2399765 -0.32,-1.72 -0.213353,-0.4799756 -0.506686,-0.8533085 -0.88,-1.12 -0.373352,-0.293308 -0.813351,-0.5066411 -1.32,-0.64 -0.480017,-0.1333075 -1.000016,-0.1999741 -1.56,-0.2 -0.933348,2.59e-5 -1.880014,0.1466924 -2.84,0.44 -0.933345,0.2933585 -1.746678,0.6666915 -2.44,1.12 l -0.56,-2.08 c 0.933322,-0.5866396 1.933321,-1.0399725 3,-1.36 1.066653,-0.3466385 2.173318,-0.5199717 3.32,-0.52 0.82665,2.83e-5 1.626649,0.1066949 2.4,0.32 0.773314,0.2133611 1.453313,0.5600274 2.04,1.04 0.586645,0.4533598 1.053312,1.0533592 1.4,1.8 0.373311,0.7200244 0.559977,1.6133569 0.56,2.68 -2.3e-5,0.8000217 -0.120023,1.5866873 -0.36,2.3600003 -0.240022,0.773352 -0.613355,1.506685 -1.12,2.2 -0.480021,0.666684 -1.093353,1.280016 -1.84,1.84 -0.746685,0.533349 -1.613351,0.973348 -2.6,1.32 0.479983,0.186681 0.946649,0.440014 1.4,0.76 0.479981,0.320013 0.906648,0.720013 1.28,1.2 0.39998,0.480012 0.71998,1.053345 0.96,1.72 0.239979,0.666677 0.359979,1.440009 0.36,2.32 -2.1e-5,1.57334 -0.32002,2.946672 -0.96,4.12 -0.613352,1.173336 -1.426685,2.146669 -2.44,2.92 -1.01335,0.773334 -2.186682,1.346667 -3.52,1.72 -1.306679,0.399999 -2.653344,0.599999 -4.04,0.6 -1.1733419,-1e-6 -2.3333408,-0.120001 -3.48,-0.36 C 5.0399948,31.32 3.9866626,30.946667 3,30.44 L 4.04,28.2"
         style=""
         id="path3897" />
    </g>
    <g
       style="font-size:40px;font-style:italic;font-variant:normal;font-weight:300;font-stretch:normal;text-align:start;line-height:125%;letter-spacing:0px;word-spacing:0px;writing-mode:lr-tb;text-anchor:start;fill:#000000;fill-opacity:1;stroke:none;font-family:Ubuntu;-inkscape-font-specification:Ubuntu Light Italic"
       id="text3873">
      <path
         d="m 38.119999,35.32 3.52,-14.6 c -1.093352,0.880023 -2.226684,1.880022 -3.4,3 -1.173348,1.12002 -2.333347,2.320019 -3.48,3.6 -1.120012,1.25335 -2.200011,2.560015 -3.24,3.92 -1.040008,1.360012 -1.960008,2.720011 -2.76,4.08 l 9.36,0 m -12.36,0.6 c 0.826662,-1.439989 1.839994,-2.973321 3.04,-4.6 1.226659,-1.626651 2.559991,-3.253316 4,-4.88 1.466654,-1.653313 3.01332,-3.266645 4.64,-4.84 1.62665,-1.573308 3.279981,-3.013307 4.96,-4.32 l 2.6,0 -4.32,18.04 3.4,0 -0.52,2.16 -3.36,0 -1.76,7.52 -2.56,0 1.76,-7.52 -12.28,0 0.4,-1.56"
         style=""
         id="path3900" />
    </g>
  </g>
</svg>
