<?xml version="1.0" encoding="UTF-8" standalone="no"?>
<!-- Created with Inkscape (http://www.inkscape.org/) -->

<svg
   xmlns:dc="http://purl.org/dc/elements/1.1/"
   xmlns:cc="http://creativecommons.org/ns#"
   xmlns:rdf="http://www.w3.org/1999/02/22-rdf-syntax-ns#"
   xmlns:svg="http://www.w3.org/2000/svg"
   xmlns="http://www.w3.org/2000/svg"
   xmlns:sodipodi="http://sodipodi.sourceforge.net/DTD/sodipodi-0.dtd"
   xmlns:inkscape="http://www.inkscape.org/namespaces/inkscape"
   width="48px"
   height="48px"
   id="svg2985"
   version="1.1"
   inkscape:version="0.48.4 r9939"
   sodipodi:docname="90-g.svg">
  <defs
     id="defs2987" />
  <sodipodi:namedview
     id="base"
     pagecolor="#ffffff"
     bordercolor="#666666"
     borderopacity="1.0"
     inkscape:pageopacity="0.0"
     inkscape:pageshadow="2"
     inkscape:zoom="10.59984"
     inkscape:cx="10.089436"
     inkscape:cy="25.607119"
     inkscape:current-layer="layer1"
     showgrid="true"
     inkscape:grid-bbox="true"
     inkscape:document-units="px"
     inkscape:snap-center="false"
     inkscape:window-width="1381"
     inkscape:window-height="876"
     inkscape:window-x="59"
     inkscape:window-y="24"
     inkscape:window-maximized="1"
     showguides="true"
     inkscape:guide-bbox="true"
     inkscape:snap-bbox="true"
     inkscape:snap-grids="false"
     inkscape:snap-to-guides="true"
     inkscape:snap-object-midpoints="true"
     inkscape:snap-midpoints="false">
    <inkscape:grid
       type="xygrid"
       id="grid2995" />
    <sodipodi:guide
       orientation="1,0"
       position="45,29"
       id="guide4007" />
    <sodipodi:guide
       orientation="0,1"
       position="-1,30"
       id="guide4009" />
    <sodipodi:guide
       orientation="1,0"
       position="3,49"
       id="guide4011" />
    <sodipodi:guide
       orientation="0,1"
       position="51,3"
       id="guide4741" />
    <sodipodi:guide
       orientation="0,1"
       position="-2,45"
       id="guide4948" />
    <sodipodi:guide
       orientation="0,1"
       position="53,41"
       id="guide4955" />
    <sodipodi:guide
       orientation="0,1"
       position="52,18"
       id="guide4957" />
    <sodipodi:guide
       orientation="0,1"
       position="52,7"
       id="guide4959" />
  </sodipodi:namedview>
  <metadata
     id="metadata2990">
    <rdf:RDF>
      <cc:Work
         rdf:about="">
        <dc:format>image/svg+xml</dc:format>
        <dc:type
           rdf:resource="http://purl.org/dc/dcmitype/StillImage" />
        <dc:title />
      </cc:Work>
    </rdf:RDF>
  </metadata>
  <g
     id="layer1"
     inkscape:label="Layer 1"
     inkscape:groupmode="layer">
    <g
       transform="scale(0.99361601,1.006425)"
       style="font-size:40.25699997000000252px;font-style:normal;font-weight:normal;line-height:125%;letter-spacing:0px;word-spacing:0px;fill:#000000;fill-opacity:1;stroke:none;font-family:Sans"
       id="text3003">
      <path
         d="m 22.852139,7.4040862 c -8e-6,2.0732397 -0.518316,3.6432608 -1.554927,4.7100688 -1.026558,1.056747 -2.556323,1.590152 -4.589298,1.600216 l -0.04529,-1.177517 c 0.634046,10e-7 1.202675,-0.06038 1.70589,-0.181157 0.513273,-0.120769 0.961132,-0.31199 1.343578,-0.573662 0.382436,-0.271733 0.69946,-0.618949 0.951071,-1.04165 C 20.924829,10.31769 21.11605,9.7993816 21.236827,9.1854585 20.97515,9.3062338 20.678255,9.4068762 20.34614,9.487386 20.014015,9.5578399 19.671831,9.5930647 19.319587,9.5930606 18.725793,9.5930647 18.222581,9.5075187 17.809949,9.3364222 17.397313,9.1552702 17.060161,8.9187606 16.798492,8.6268926 16.53682,8.3249704 16.3456,7.9827863 16.22483,7.600339 16.114122,7.2078398 16.058769,6.800238 16.05877,6.3775326 c -10e-7,-0.3723696 0.06542,-0.7598428 0.196253,-1.1624209 0.130834,-0.4025611 0.327086,-0.7699059 0.588758,-1.1020354 0.271733,-0.3321103 0.613917,-0.6038448 1.026554,-0.8152043 0.412631,-0.2113386 0.900747,-0.3170131 1.464348,-0.3170239 0.573658,1.08e-5 1.07687,0.1006532 1.509638,0.3019276 0.442821,0.2012952 0.810166,0.4931581 1.102035,0.8755897 0.301921,0.3824507 0.528366,0.8504379 0.679337,1.403963 0.150956,0.543477 0.226438,1.1573957 0.226446,1.8417578 m -3.381588,1.0416499 c 0.352244,5.2e-6 0.684364,-0.030188 0.99636,-0.090578 0.311987,-0.070444 0.613914,-0.1710867 0.905783,-0.3019275 0.01006,-0.110701 0.01509,-0.2163755 0.0151,-0.3170239 -6e-6,-0.1107007 -6e-6,-0.2214073 0,-0.3321202 -6e-6,-0.4327561 -0.0302,-0.8453899 -0.09058,-1.2379028 C 21.236821,5.7636213 21.126114,5.416405 20.965092,5.1245335 20.814122,4.8226148 20.607806,4.5861052 20.34614,4.4150038 20.084465,4.2338568 19.752345,4.1432786 19.34978,4.1432691 c -0.332124,9.5e-6 -0.613923,0.070459 -0.845397,0.2113492 -0.231481,0.1409087 -0.422702,0.322065 -0.573663,0.5434695 -0.150966,0.2113579 -0.261673,0.4478675 -0.33212,0.7095297 -0.06039,0.2516141 -0.09058,0.4981879 -0.09058,0.7397224 -2e-6,0.6843756 0.161025,1.2077161 0.483084,1.570023 0.332117,0.3522542 0.825265,0.5283784 1.479445,0.5283732"
         style="font-size:15.09637546999999991px;font-variant:normal;font-stretch:normal;fill:#000000;font-family:Ubuntu;-inkscape-font-specification:Ubuntu"
         id="path3094" />
      <path
         d="m 24.56487,8.4457361 c -10e-7,-1.7511726 0.306958,-3.0997808 0.920879,-4.0458287 0.623981,-0.9460293 1.484473,-1.4190485 2.58148,-1.4190593 1.096998,1.08e-5 1.952458,0.47303 2.566384,1.4190593 0.623976,0.9460479 0.935967,2.2946561 0.935975,4.0458287 -8e-6,1.7511829 -0.311999,3.0997909 -0.935975,4.0458289 -0.613926,0.946039 -1.469386,1.419059 -2.566384,1.419059 -1.097007,0 -1.957499,-0.47302 -2.58148,-1.419059 -0.613921,-0.946038 -0.92088,-2.294646 -0.920879,-4.0458289 m 5.525273,0 C 30.090137,7.8720796 30.054912,7.3286106 29.984469,6.8153275 29.924077,6.3020581 29.81337,5.8541994 29.652348,5.4717501 29.501379,5.0893172 29.295062,4.78739 29.033397,4.5659676 28.771721,4.3344992 28.449666,4.2187604 28.067229,4.2187509 c -0.382446,9.5e-6 -0.704501,0.1157483 -0.966168,0.3472167 -0.261674,0.2214224 -0.473023,0.5233496 -0.634048,0.9057825 -0.150966,0.3824493 -0.261673,0.830308 -0.33212,1.3435774 -0.06039,0.5132831 -0.09058,1.0567521 -0.09058,1.6304086 -3e-6,0.5736669 0.03019,1.1171359 0.09058,1.6304089 0.07045,0.513279 0.181154,0.961138 0.33212,1.343577 0.161025,0.382443 0.372374,0.689403 0.634048,0.920879 0.261667,0.221415 0.583722,0.332121 0.966168,0.33212 0.382437,1e-6 0.704492,-0.110705 0.966168,-0.33212 0.261665,-0.231476 0.467982,-0.538436 0.618951,-0.920879 0.161022,-0.382439 0.271729,-0.830298 0.332121,-1.343577 0.07044,-0.513273 0.105668,-1.056742 0.105674,-1.6304089"
         style="font-size:15.09637546999999991px;font-variant:normal;font-stretch:normal;fill:#000000;font-family:Ubuntu;-inkscape-font-specification:Ubuntu"
         id="path3096" />
      <path
         d="m 38.415087,5.8642559 c -6e-6,0.4327701 -0.07046,0.8252755 -0.21135,1.1775172 -0.130841,0.3522551 -0.317029,0.6541823 -0.558566,0.9057826 -0.241547,0.2516117 -0.528377,0.4478644 -0.860493,0.5887586 -0.332124,0.1308403 -0.694437,0.1962579 -1.086939,0.1962529 -0.392509,5e-6 -0.754821,-0.065413 -1.086939,-0.1962529 C 34.278678,8.3954201 33.991847,8.1991674 33.750307,7.9475557 33.508763,7.6959554 33.317543,7.3940282 33.176644,7.0417731 33.045808,6.6895314 32.980391,6.297026 32.980391,5.8642559 c 0,-0.4327545 0.06542,-0.8252599 0.196253,-1.1775173 0.140899,-0.3623037 0.332119,-0.6642309 0.573663,-0.9057826 0.24154,-0.2515961 0.528371,-0.4428166 0.860493,-0.5736622 0.332118,-0.1408889 0.69443,-0.2113386 1.086939,-0.2113493 0.392502,1.07e-5 0.754815,0.07046 1.086939,0.2113493 0.332116,0.1308456 0.618946,0.3220661 0.860493,0.5736622 0.241537,0.2415517 0.427725,0.5434789 0.558566,0.9057826 0.140894,0.3522574 0.211344,0.7447628 0.21135,1.1775173 m -1.117132,0 c -5e-6,-0.5635897 -0.140904,-1.0114484 -0.422699,-1.3435775 -0.271739,-0.342175 -0.664244,-0.513267 -1.177517,-0.5132767 -0.503215,9.7e-6 -0.895721,0.1711017 -1.177517,0.5132767 -0.281801,0.3321291 -0.422701,0.7799878 -0.422699,1.3435775 -2e-6,0.553541 0.135866,1.0013997 0.407602,1.3435774 0.281797,0.3421906 0.679334,0.5132827 1.192614,0.5132767 0.513273,6e-6 0.905778,-0.1710861 1.177517,-0.5132767 0.281795,-0.3421777 0.422694,-0.7900364 0.422699,-1.3435774"
         style="font-size:15.09637546999999991px;font-variant:normal;font-stretch:normal;fill:#000000;font-family:Ubuntu;-inkscape-font-specification:Ubuntu"
         id="path3098" />
    </g>
    <path
       style="font-size:medium;font-style:normal;font-variant:normal;font-weight:normal;font-stretch:normal;text-indent:0;text-align:start;text-decoration:none;line-height:normal;letter-spacing:normal;word-spacing:normal;text-transform:none;direction:ltr;block-progression:tb;writing-mode:lr-tb;text-anchor:start;baseline-shift:baseline;color:#000000;fill:#000000;fill-opacity:1;fill-rule:nonzero;stroke:none;stroke-width:1.14423537000000008;marker:none;visibility:visible;display:inline;overflow:visible;enable-background:accumulate;font-family:Sans;-inkscape-font-specification:Sans"
       d="m 23.625,21.90625 0,17.25 1.125,0 0,-17.25 -1.125,0 z"
       id="path2999"
       inkscape:connector-curvature="0" />
    <path
       style="font-size:medium;font-style:normal;font-variant:normal;font-weight:normal;font-stretch:normal;text-indent:0;text-align:start;text-decoration:none;line-height:normal;letter-spacing:normal;word-spacing:normal;text-transform:none;direction:ltr;block-progression:tb;writing-mode:lr-tb;text-anchor:start;baseline-shift:baseline;color:#000000;fill:#000000;fill-opacity:1;stroke:none;stroke-width:1;marker:none;visibility:visible;display:inline;overflow:visible;enable-background:accumulate;font-family:Sans;-inkscape-font-specification:Sans"
       d="m 21.03125,16 0,0.5 0,5 0,0.5 0.5,0 5,0 0.5,0 0,-0.5 0,-5 0,-0.5 -0.5,0 -5,0 -0.5,0 z m 1,1 4,0 0,4 -4,0 0,-4 z"
       id="rect3033"
       inkscape:connector-curvature="0" />
    <path
       style="font-size:medium;font-style:normal;font-variant:normal;font-weight:normal;font-stretch:normal;text-indent:0;text-align:start;text-decoration:none;line-height:normal;letter-spacing:normal;word-spacing:normal;text-transform:none;direction:ltr;block-progression:tb;writing-mode:lr-tb;text-anchor:start;baseline-shift:baseline;color:#000000;fill:#000000;fill-opacity:1;stroke:none;stroke-width:1;marker:none;visibility:visible;display:inline;overflow:visible;enable-background:accumulate;font-family:Sans;-inkscape-font-specification:Sans"
       d="m 21.125,39 0,0.5 0,5 0,0.5 0.5,0 5,0 0.5,0 0,-0.5 0,-5 0,-0.5 -0.5,0 -5,0 -0.5,0 z m 1,1 4,0 0,4 -4,0 0,-4 z"
       id="rect3776"
       inkscape:connector-curvature="0" />
  </g>
</svg>
