<?xml version="1.0" encoding="UTF-8" standalone="no"?>
<!-- Created with Inkscape (http://www.inkscape.org/) -->

<svg
   xmlns:dc="http://purl.org/dc/elements/1.1/"
   xmlns:cc="http://creativecommons.org/ns#"
   xmlns:rdf="http://www.w3.org/1999/02/22-rdf-syntax-ns#"
   xmlns:svg="http://www.w3.org/2000/svg"
   xmlns="http://www.w3.org/2000/svg"
   xmlns:sodipodi="http://sodipodi.sourceforge.net/DTD/sodipodi-0.dtd"
   xmlns:inkscape="http://www.inkscape.org/namespaces/inkscape"
   width="48px"
   height="48px"
   id="svg2985"
   version="1.1"
   inkscape:version="0.91 r13725"
   sodipodi:docname="Hoja_GAS_MED.svg">
  <defs
     id="defs2987">
    <inkscape:perspective
       sodipodi:type="inkscape:persp3d"
       inkscape:vp_x="0 : 24 : 1"
       inkscape:vp_y="0 : 1000 : 0"
       inkscape:vp_z="48 : 24 : 1"
       inkscape:persp3d-origin="24 : 16 : 1"
       id="perspective3884" />
  </defs>
  <sodipodi:namedview
     id="base"
     pagecolor="#ffffff"
     bordercolor="#666666"
     borderopacity="1.0"
     inkscape:pageopacity="0.0"
     inkscape:pageshadow="2"
     inkscape:zoom="4"
     inkscape:cx="29.754433"
     inkscape:cy="29.754341"
     inkscape:current-layer="layer1"
     showgrid="true"
     inkscape:grid-bbox="true"
     inkscape:document-units="px"
     inkscape:snap-center="false"
     inkscape:window-width="1315"
     inkscape:window-height="744"
     inkscape:window-x="51"
     inkscape:window-y="24"
     inkscape:window-maximized="1"
     showguides="true"
     inkscape:guide-bbox="true"
     inkscape:snap-bbox="false"
     inkscape:snap-grids="false"
     inkscape:snap-to-guides="false"
     inkscape:snap-object-midpoints="true"
     inkscape:snap-midpoints="false"
     inkscape:snap-global="true">
    <inkscape:grid
       type="xygrid"
       id="grid2995"
       empspacing="5"
       visible="true"
       enabled="true"
       snapvisiblegridlinesonly="true" />
    <sodipodi:guide
       orientation="1,0"
       position="45,29"
       id="guide4007" />
    <sodipodi:guide
       orientation="0,1"
       position="104,30"
       id="guide4009" />
    <sodipodi:guide
       orientation="1,0"
       position="3,49"
       id="guide4011" />
    <sodipodi:guide
       orientation="0,1"
       position="51,3"
       id="guide4741" />
    <sodipodi:guide
       orientation="0,1"
       position="-2,45"
       id="guide4948" />
    <sodipodi:guide
       orientation="0,1"
       position="52,18"
       id="guide4957" />
    <sodipodi:guide
       orientation="0,1"
       position="52,7"
       id="guide4959" />
    <sodipodi:guide
       orientation="1,0"
       position="-2,21"
       id="guide4046" />
    <sodipodi:guide
       orientation="0,1"
       position="-20,20"
       id="guide4048" />
    <inkscape:grid
       type="axonomgrid"
       id="grid3101"
       units="mm"
       empspacing="5"
       visible="true"
       enabled="false"
       snapvisiblegridlinesonly="true" />
    <sodipodi:guide
       position="62.642455,22.264487"
       orientation="0,1"
       id="guide4195" />
    <sodipodi:guide
       position="108.83605,43.994713"
       orientation="0,1"
       id="guide4204" />
    <sodipodi:guide
       position="114.20614,11.740818"
       orientation="0,1"
       id="guide4206" />
  </sodipodi:namedview>
  <metadata
     id="metadata2990">
    <rdf:RDF>
      <cc:Work
         rdf:about="">
        <dc:format>image/svg+xml</dc:format>
        <dc:type
           rdf:resource="http://purl.org/dc/dcmitype/StillImage" />
        <dc:title></dc:title>
      </cc:Work>
    </rdf:RDF>
  </metadata>
  <g
     id="layer1"
     inkscape:label="Layer 1"
     inkscape:groupmode="layer">
    <g
       style="font-style:normal;font-variant:normal;font-weight:normal;font-stretch:normal;font-size:25.57406616px;line-height:125%;font-family:'URW Bookman L';-inkscape-font-specification:'URW Bookman L';letter-spacing:0px;word-spacing:0px;fill:#000000;fill-opacity:1;stroke:none;stroke-width:1px;stroke-linecap:butt;stroke-linejoin:miter;stroke-opacity:1"
       id="text4218"
       transform="translate(-89.471635,3.3378904)" />
    <g
       style="font-style:normal;font-variant:normal;font-weight:normal;font-stretch:normal;font-size:35.70446777px;line-height:125%;font-family:'URW Bookman L';-inkscape-font-specification:'URW Bookman L';letter-spacing:0px;word-spacing:0px;fill:#000000;fill-opacity:1;stroke:none;stroke-width:1px;stroke-linecap:butt;stroke-linejoin:miter;stroke-opacity:1"
       id="text4218-7" />
    <g
       style="font-style:normal;font-variant:normal;font-weight:normal;font-stretch:normal;font-size:40px;line-height:125%;font-family:'URW Bookman L';-inkscape-font-specification:'URW Bookman L';letter-spacing:0px;word-spacing:0px;fill:#000000;fill-opacity:1;stroke:none;stroke-width:1px;stroke-linecap:butt;stroke-linejoin:miter;stroke-opacity:1"
       id="text4218-7-3" />
    <g
       style="font-style:normal;font-variant:normal;font-weight:normal;font-stretch:normal;font-size:40px;line-height:125%;font-family:'URW Bookman L';-inkscape-font-specification:'URW Bookman L';letter-spacing:0px;word-spacing:0px;fill:#000000;fill-opacity:1;stroke:none;stroke-width:1px;stroke-linecap:butt;stroke-linejoin:miter;stroke-opacity:1"
       id="text4218-7-8"
       transform="matrix(0.5668778,0,0,0.64665933,56.808962,4.908113)" />
    <path
       style="color:#000000;font-style:normal;font-variant:normal;font-weight:normal;font-stretch:normal;font-size:medium;line-height:normal;font-family:sans-serif;text-indent:0;text-align:start;text-decoration:none;text-decoration-line:none;text-decoration-style:solid;text-decoration-color:#000000;letter-spacing:normal;word-spacing:normal;text-transform:none;direction:ltr;block-progression:tb;writing-mode:lr-tb;baseline-shift:baseline;text-anchor:start;white-space:normal;clip-rule:nonzero;display:inline;overflow:visible;visibility:visible;opacity:1;isolation:auto;mix-blend-mode:normal;color-interpolation:sRGB;color-interpolation-filters:linearRGB;solid-color:#000000;solid-opacity:1;fill:#000000;fill-opacity:1;fill-rule:nonzero;stroke:none;stroke-width:2;stroke-linecap:round;stroke-linejoin:round;stroke-miterlimit:4;stroke-dasharray:none;stroke-dashoffset:0;stroke-opacity:1;color-rendering:auto;image-rendering:auto;shape-rendering:auto;text-rendering:auto;enable-background:accumulate"
       d="m 23.999281,6.3135169 c -11.418937,0 -20.8666282,7.8527471 -20.8666282,17.7544491 0,6.680837 4.3045268,12.424256 10.6100282,15.456445 l 0.714013,-2.086234 C 8.9666145,34.707991 5.3304958,29.703856 5.3304958,24.067966 c 0,-8.49184 8.2506142,-15.5566066 18.6687852,-15.5566066 10.418186,0 18.670221,7.0648446 18.670221,15.5566066 0,4.741775 -2.574326,9.036512 -6.660783,11.906414 l 1.121816,1.890203 c 4.703883,-3.238679 7.736812,-8.188125 7.736812,-13.796617 0,-9.901776 -9.449122,-17.754449 -20.868066,-17.754449 z m -2.008959,4.7133421 c 0,0 0.110086,3.051452 -0.196032,5.979678 -0.30611,2.928225 -1.047383,4.508739 -1.017361,7.545068 0.03003,3.036332 2.199271,7.762565 2.199271,7.762565 0,0 4.093109,-4.070345 4.142423,-9.403792 0.0493,-5.333445 -2.155235,-8.965379 -5.128301,-11.883519 z m 10.544203,21.303052 c -0.482984,0 -0.94949,0.07696 -1.397974,0.230372 -0.448486,0.153414 -0.801554,0.406947 -1.060292,0.759801 -0.258737,0.352854 -0.387766,0.790515 -0.387766,1.312124 0,0.460243 0.154545,0.858709 0.465035,1.196223 0.31049,0.337512 0.663559,0.591045 1.060291,0.7598 0.396732,0.168755 0.802271,0.313688 1.216257,0.436421 l 0.725457,0.230371 c 0.310481,0.09205 0.602567,0.214325 0.878565,0.367739 0.275991,0.153416 0.509965,0.3602 0.699706,0.621005 0.189739,0.260805 0.284744,0.545979 0.284744,0.852809 0,0.306829 -0.095,0.574036 -0.284744,0.804159 -0.189741,0.230121 -0.440726,0.384038 -0.751217,0.460746 -0.310489,0.07671 -0.689074,0.114469 -1.137558,0.114469 -0.344989,0 -0.690973,-0.03776 -1.035961,-0.114469 -0.344988,-0.07671 -0.647016,-0.230625 -0.905753,-0.460746 -0.258746,-0.230123 -0.404792,-0.621036 -0.439284,-1.173328 l -1.138987,0 c 0.06901,0.797756 0.276019,1.380348 0.621005,1.748545 0.344989,0.368195 0.794492,0.621728 1.346467,0.759801 0.551982,0.138073 1.069536,0.207479 1.552511,0.207479 0.724474,0 1.301579,-0.06941 1.73281,-0.207479 0.431232,-0.138073 0.80274,-0.399159 1.113229,-0.782694 0.31049,-0.383538 0.465035,-0.834874 0.465035,-1.356483 0,-0.490927 -0.137534,-0.921035 -0.413524,-1.289229 -0.275991,-0.368196 -0.61204,-0.674599 -1.008773,-0.920061 -0.396733,-0.245464 -0.819292,-0.446126 -1.267768,-0.599542 l -0.725463,-0.228941 c -0.31049,-0.09205 -0.594063,-0.191666 -0.852808,-0.299055 -0.258737,-0.107395 -0.501218,-0.253754 -0.725456,-0.437853 -0.224247,-0.184097 -0.336263,-0.413541 -0.336263,-0.689687 0,-0.276147 0.06098,-0.514575 0.181725,-0.714013 0.120739,-0.199439 0.319258,-0.360909 0.595249,-0.48364 0.27599,-0.122726 0.671587,-0.183154 1.18907,-0.183154 0.379479,0 0.733977,0.07552 1.061719,0.228941 0.327735,0.153416 0.560282,0.369186 0.698269,0.645331 0.137995,0.276147 0.241506,0.61276 0.310505,1.011638 l 1.138988,0 c -0.0345,-0.705709 -0.198993,-1.241553 -0.49223,-1.609748 -0.293235,-0.368196 -0.65481,-0.660923 -1.086042,-0.875704 -0.43123,-0.21478 -0.889239,-0.321948 -1.372223,-0.321948 l -0.516551,0 z m -13.527608,0.243251 c -0.982611,0 -1.86613,0.407449 -2.648569,1.220547 -0.782447,0.813098 -1.173334,1.955625 -1.173334,3.428406 0,1.503464 0.381899,2.623332 1.146147,3.359723 0.764249,0.736392 1.766076,1.104644 3.003433,1.104644 0.9299,0 1.734333,-0.164815 2.418199,-0.490794 l -0.03148,0.0787 0.06869,0 0,0.412095 1.201942,0 0,-0.412095 0.02003,0 1.064576,-2.878945 3.182294,0 1.021651,2.878945 1.397983,0 -3.2796,-8.505194 -1.3436,0 -2.063341,5.264233 0,-1.317845 -3.275299,0 0,0.96728 2.073357,0 0,2.392443 c -0.800647,0.3682 -1.618369,0.552327 -2.455403,0.552327 -0.909825,-0.03069 -1.619671,-0.306873 -2.129159,-0.828483 -0.509505,-0.52161 -0.764096,-1.380393 -0.764096,-2.577028 -0.0364,-1.012537 0.218195,-1.878873 0.764096,-2.599924 0.545885,-0.721049 1.236316,-1.081749 2.073348,-1.081749 0.618678,0 1.147283,0.129827 1.583992,0.390631 0.436719,0.260806 0.727274,0.68336 0.872845,1.266337 l 1.256316,0 c 0,-0.797758 -0.345926,-1.43465 -1.037388,-1.910236 -0.69146,-0.475588 -1.455247,-0.714014 -2.292282,-0.714014 l -0.655346,0 z m 6.693692,1.440903 1.236287,3.479919 -2.524084,0 1.287797,-3.479919 z"
       id="path4367"
       inkscape:connector-curvature="0" />
  </g>
</svg>
