<?xml version="1.0" encoding="UTF-8" standalone="no"?>
<!-- Created with Inkscape (http://www.inkscape.org/) -->

<svg
   xmlns:dc="http://purl.org/dc/elements/1.1/"
   xmlns:cc="http://creativecommons.org/ns#"
   xmlns:rdf="http://www.w3.org/1999/02/22-rdf-syntax-ns#"
   xmlns:svg="http://www.w3.org/2000/svg"
   xmlns="http://www.w3.org/2000/svg"
   xmlns:sodipodi="http://sodipodi.sourceforge.net/DTD/sodipodi-0.dtd"
   xmlns:inkscape="http://www.inkscape.org/namespaces/inkscape"
   width="48px"
   height="48px"
   id="svg2985"
   version="1.1"
   inkscape:version="0.91 r13725"
   sodipodi:docname="Hoja_GAS_.svg">
  <defs
     id="defs2987">
    <inkscape:perspective
       sodipodi:type="inkscape:persp3d"
       inkscape:vp_x="0 : 24 : 1"
       inkscape:vp_y="0 : 1000 : 0"
       inkscape:vp_z="48 : 24 : 1"
       inkscape:persp3d-origin="24 : 16 : 1"
       id="perspective3884" />
  </defs>
  <sodipodi:namedview
     id="base"
     pagecolor="#ffffff"
     bordercolor="#666666"
     borderopacity="1.0"
     inkscape:pageopacity="0.0"
     inkscape:pageshadow="2"
     inkscape:zoom="8"
     inkscape:cx="26.914706"
     inkscape:cy="26.632356"
     inkscape:current-layer="layer1"
     showgrid="true"
     inkscape:grid-bbox="true"
     inkscape:document-units="px"
     inkscape:snap-center="false"
     inkscape:window-width="1315"
     inkscape:window-height="744"
     inkscape:window-x="51"
     inkscape:window-y="24"
     inkscape:window-maximized="1"
     showguides="true"
     inkscape:guide-bbox="true"
     inkscape:snap-bbox="false"
     inkscape:snap-grids="false"
     inkscape:snap-to-guides="false"
     inkscape:snap-object-midpoints="true"
     inkscape:snap-midpoints="false"
     inkscape:snap-global="true">
    <inkscape:grid
       type="xygrid"
       id="grid2995"
       empspacing="5"
       visible="true"
       enabled="true"
       snapvisiblegridlinesonly="true" />
    <sodipodi:guide
       orientation="1,0"
       position="45,29"
       id="guide4007" />
    <sodipodi:guide
       orientation="0,1"
       position="104,30"
       id="guide4009" />
    <sodipodi:guide
       orientation="1,0"
       position="3,49"
       id="guide4011" />
    <sodipodi:guide
       orientation="0,1"
       position="51,3"
       id="guide4741" />
    <sodipodi:guide
       orientation="0,1"
       position="-2,45"
       id="guide4948" />
    <sodipodi:guide
       orientation="0,1"
       position="52,18"
       id="guide4957" />
    <sodipodi:guide
       orientation="0,1"
       position="52,7"
       id="guide4959" />
    <sodipodi:guide
       orientation="1,0"
       position="-2,21"
       id="guide4046" />
    <sodipodi:guide
       orientation="0,1"
       position="-20,20"
       id="guide4048" />
    <inkscape:grid
       type="axonomgrid"
       id="grid3101"
       units="mm"
       empspacing="5"
       visible="true"
       enabled="false"
       snapvisiblegridlinesonly="true" />
    <sodipodi:guide
       position="62.642455,22.264487"
       orientation="0,1"
       id="guide4195" />
    <sodipodi:guide
       position="108.83605,43.994713"
       orientation="0,1"
       id="guide4204" />
    <sodipodi:guide
       position="114.20614,11.740818"
       orientation="0,1"
       id="guide4206" />
  </sodipodi:namedview>
  <metadata
     id="metadata2990">
    <rdf:RDF>
      <cc:Work
         rdf:about="">
        <dc:format>image/svg+xml</dc:format>
        <dc:type
           rdf:resource="http://purl.org/dc/dcmitype/StillImage" />
        <dc:title></dc:title>
      </cc:Work>
    </rdf:RDF>
  </metadata>
  <g
     id="layer1"
     inkscape:label="Layer 1"
     inkscape:groupmode="layer">
    <g
       style="font-style:normal;font-variant:normal;font-weight:normal;font-stretch:normal;font-size:25.57406616px;line-height:125%;font-family:'URW Bookman L';-inkscape-font-specification:'URW Bookman L';letter-spacing:0px;word-spacing:0px;fill:#000000;fill-opacity:1;stroke:none;stroke-width:1px;stroke-linecap:butt;stroke-linejoin:miter;stroke-opacity:1"
       id="text4218"
       transform="translate(-89.471635,3.3378904)" />
    <g
       style="font-style:normal;font-variant:normal;font-weight:normal;font-stretch:normal;font-size:35.70446777px;line-height:125%;font-family:'URW Bookman L';-inkscape-font-specification:'URW Bookman L';letter-spacing:0px;word-spacing:0px;fill:#000000;fill-opacity:1;stroke:none;stroke-width:1px;stroke-linecap:butt;stroke-linejoin:miter;stroke-opacity:1"
       id="text4218-7" />
    <g
       style="font-style:normal;font-variant:normal;font-weight:normal;font-stretch:normal;font-size:40px;line-height:125%;font-family:'URW Bookman L';-inkscape-font-specification:'URW Bookman L';letter-spacing:0px;word-spacing:0px;fill:#000000;fill-opacity:1;stroke:none;stroke-width:1px;stroke-linecap:butt;stroke-linejoin:miter;stroke-opacity:1"
       id="text4218-7-3" />
    <g
       style="font-style:normal;font-variant:normal;font-weight:normal;font-stretch:normal;font-size:40px;line-height:125%;font-family:'URW Bookman L';-inkscape-font-specification:'URW Bookman L';letter-spacing:0px;word-spacing:0px;fill:#000000;fill-opacity:1;stroke:none;stroke-width:1px;stroke-linecap:butt;stroke-linejoin:miter;stroke-opacity:1"
       id="text4218-7-8"
       transform="matrix(0.5668778,0,0,0.64665933,56.808962,4.908113)" />
    <path
       style="color:#000000;font-style:normal;font-variant:normal;font-weight:normal;font-stretch:normal;font-size:medium;line-height:normal;font-family:sans-serif;text-indent:0;text-align:start;text-decoration:none;text-decoration-line:none;text-decoration-style:solid;text-decoration-color:#000000;letter-spacing:normal;word-spacing:normal;text-transform:none;direction:ltr;block-progression:tb;writing-mode:lr-tb;baseline-shift:baseline;text-anchor:start;white-space:normal;clip-rule:nonzero;display:inline;overflow:visible;visibility:visible;opacity:1;isolation:auto;mix-blend-mode:normal;color-interpolation:sRGB;color-interpolation-filters:linearRGB;solid-color:#000000;solid-opacity:1;fill:#000000;fill-opacity:1;fill-rule:nonzero;stroke:none;stroke-width:1;stroke-linecap:round;stroke-linejoin:round;stroke-miterlimit:4;stroke-dasharray:none;stroke-dashoffset:0;stroke-opacity:1;color-rendering:auto;image-rendering:auto;shape-rendering:auto;text-rendering:auto;enable-background:accumulate"
       d="m 23.999253,6.0418975 c -11.523286,0 -20.9309085,7.8890325 -20.9309085,17.6955525 0,6.502095 4.1386696,12.157104 10.2847235,15.232217 l 0.367417,-0.663435 C 7.7913294,35.350228 3.8299553,29.920052 3.8299553,23.73745 c 0,-9.317965 8.9927887,-16.9339412 20.1692977,-16.9339412 11.176518,0 20.170792,7.6159762 20.170792,16.9339412 0,5.123366 -2.722569,9.727997 -7.028541,12.838795 l 0.71401,0.419481 c 4.333521,-3.236374 7.076142,-7.966401 7.076142,-13.258276 0,-9.80652 -9.409108,-17.6955525 -20.932402,-17.6955525 z m -1.976914,4.3405885 c 0,0 0.106573,3.104659 -0.188917,6.083961 -0.29549,2.9793 -1.012226,4.586316 -0.983248,7.675608 0.02899,3.089294 2.124179,7.898739 2.124179,7.898739 0,0 3.950856,-4.14126 3.998458,-9.567737 0.0476,-5.426477 -2.08057,-9.121531 -4.950472,-12.090571 z m 10.849977,22.040601 c -0.502099,0 -0.978228,0.07851 -1.426527,0.238003 -0.448307,0.159486 -0.797658,0.415202 -1.048707,0.766072 -0.251051,0.350872 -0.376343,0.782299 -0.376343,1.292657 0,0.446563 0.151827,0.837244 0.456669,1.172166 0.30485,0.334923 0.664528,0.589151 1.076963,0.764587 0.412443,0.175435 0.832541,0.327592 1.262911,0.455181 l 0.754171,0.239491 c 0.322778,0.09569 0.627917,0.230658 0.914823,0.406093 0.286914,0.175435 0.537507,0.398257 0.752693,0.669385 0.215186,0.271128 0.322786,0.583292 0.322786,0.934163 0,0.350872 -0.1076,0.653697 -0.322786,0.908876 -0.215186,0.255178 -0.493798,0.42155 -0.834505,0.501294 -0.340706,0.07974 -0.74312,0.12049 -1.209354,0.12049 -0.358643,0 -0.727171,-0.04074 -1.103741,-0.12049 -0.376572,-0.07974 -0.708237,-0.246116 -0.995152,-0.501294 -0.286922,-0.255179 -0.447584,-0.653713 -0.483441,-1.195967 l -0.96838,0 c 0.07172,0.733639 0.278102,1.28284 0.618809,1.649661 0.340707,0.366819 0.788824,0.622535 1.344723,0.766072 0.555892,0.143539 1.08509,0.215691 1.587182,0.215691 0.75315,0 1.34425,-0.07216 1.774614,-0.215691 0.430371,-0.143537 0.797407,-0.407104 1.102256,-0.789873 0.304844,-0.382768 0.458156,-0.828411 0.458156,-1.338769 0,-0.47846 -0.134143,-0.909887 -0.403122,-1.292656 -0.268986,-0.382768 -0.610978,-0.693447 -1.023413,-0.932676 -0.412436,-0.23923 -0.85171,-0.438496 -1.317946,-0.597983 l -0.752684,-0.239491 c -0.322771,-0.09569 -0.619069,-0.199251 -0.888047,-0.310892 -0.268977,-0.11164 -0.528412,-0.271648 -0.779462,-0.478982 -0.25105,-0.207333 -0.376343,-0.469413 -0.376343,-0.788386 0,-0.287077 0.07223,-0.550643 0.215688,-0.789874 0.143458,-0.239229 0.367516,-0.422794 0.672358,-0.550383 0.30485,-0.127588 0.724949,-0.191889 1.26291,-0.191889 0.430372,0 0.825427,0.08785 1.184062,0.26329 0.358643,0.175437 0.609236,0.407597 0.752685,0.694673 0.143464,0.287076 0.251065,0.621309 0.322793,1.004077 l 0.96838,0 c -0.03587,-0.637948 -0.196533,-1.14004 -0.483447,-1.506859 -0.286914,-0.36682 -0.653949,-0.661795 -1.102249,-0.885076 -0.448307,-0.22328 -0.906751,-0.334691 -1.372986,-0.334691 l -0.536997,0 z m -14.063022,0.252877 c -0.983667,0 -1.872633,0.414237 -2.667123,1.243569 -0.794497,0.82933 -1.19151,1.993524 -1.19151,3.492698 0,1.531075 0.387668,2.671711 1.163247,3.421299 0.775578,0.749588 1.787531,1.124567 3.036031,1.124567 0.945822,0 1.834797,-0.191415 2.667124,-0.574183 l 0,0.105613 -0.01786,0.04612 0.01786,0 0,0.422456 1.020436,0 0,-0.422456 0.07885,0 1.097784,-2.992892 3.47188,0 1.075478,2.992892 1.173651,0 -3.297829,-8.663323 -1.285218,0 -2.314589,5.979834 0,-1.871301 -3.177341,0 0,0.813675 2.156905,0 0,2.631425 c -0.870164,0.414665 -1.759138,0.623271 -2.667124,0.623271 -0.983665,-0.03189 -1.749648,-0.328359 -2.298221,-0.886563 -0.548588,-0.558204 -0.824086,-1.474532 -0.824086,-2.750427 -0.03783,-1.084509 0.23767,-2.010177 0.824086,-2.775715 0.586411,-0.765535 1.332209,-1.148365 2.240202,-1.148365 0.681002,0 1.258563,0.144305 1.731477,0.431381 0.472916,0.287076 0.785799,0.717017 0.937139,1.291168 l 1.076963,0 c 0,-0.733638 -0.348787,-1.339291 -1.048699,-1.817751 -0.699918,-0.478461 -1.465899,-0.716987 -2.298226,-0.716987 l -0.681284,0 z m 6.958626,1.088866 1.445872,4.019283 -2.920009,0 1.474137,-4.019283 z"
       id="path4367"
       inkscape:connector-curvature="0" />
    <g
       transform="scale(1.1187433,0.89386011)"
       style="font-style:normal;font-variant:normal;font-weight:normal;font-stretch:normal;font-size:16.79268074px;line-height:125%;font-family:'Ume P Gothic S4';-inkscape-font-specification:'Ume P Gothic S4';letter-spacing:0px;word-spacing:0px;fill:#000000;fill-opacity:1;stroke:none;stroke-width:1px;stroke-linecap:butt;stroke-linejoin:miter;stroke-opacity:1"
       id="text4369" />
    <g
       transform="scale(1.0603579,0.94307779)"
       style="font-style:normal;font-variant:normal;font-weight:normal;font-stretch:normal;font-size:17.05317879px;line-height:125%;font-family:'Ume P Gothic S4';-inkscape-font-specification:'Ume P Gothic S4';letter-spacing:0px;word-spacing:0px;fill:#000000;fill-opacity:1;stroke:none;stroke-width:1px;stroke-linecap:butt;stroke-linejoin:miter;stroke-opacity:1"
       id="text4369-8" />
    <g
       transform="scale(1.0890781,0.91820778)"
       style="font-style:normal;font-variant:normal;font-weight:normal;font-stretch:normal;font-size:17.51506996px;line-height:125%;font-family:'Ume P Gothic S4';-inkscape-font-specification:'Ume P Gothic S4';letter-spacing:0px;word-spacing:0px;fill:#000000;fill-opacity:1;stroke:none;stroke-width:1px;stroke-linecap:butt;stroke-linejoin:miter;stroke-opacity:1"
       id="text4369-8-9" />
  </g>
</svg>
