<?xml version="1.0" encoding="UTF-8" standalone="no"?>
<!-- Created with Inkscape (http://www.inkscape.org/) -->

<svg
   xmlns:dc="http://purl.org/dc/elements/1.1/"
   xmlns:cc="http://creativecommons.org/ns#"
   xmlns:rdf="http://www.w3.org/1999/02/22-rdf-syntax-ns#"
   xmlns:svg="http://www.w3.org/2000/svg"
   xmlns="http://www.w3.org/2000/svg"
   xmlns:sodipodi="http://sodipodi.sourceforge.net/DTD/sodipodi-0.dtd"
   xmlns:inkscape="http://www.inkscape.org/namespaces/inkscape"
   width="48px"
   height="48px"
   id="svg2985"
   version="1.1"
   inkscape:version="0.91 r13725"
   sodipodi:docname="Hoja_YPFB.svg">
  <defs
     id="defs2987">
    <inkscape:perspective
       sodipodi:type="inkscape:persp3d"
       inkscape:vp_x="0 : 24 : 1"
       inkscape:vp_y="0 : 1000 : 0"
       inkscape:vp_z="48 : 24 : 1"
       inkscape:persp3d-origin="24 : 16 : 1"
       id="perspective3884" />
  </defs>
  <sodipodi:namedview
     id="base"
     pagecolor="#ffffff"
     bordercolor="#666666"
     borderopacity="1.0"
     inkscape:pageopacity="0.0"
     inkscape:pageshadow="2"
     inkscape:zoom="8"
     inkscape:cx="20.045867"
     inkscape:cy="27.576674"
     inkscape:current-layer="layer1"
     showgrid="true"
     inkscape:grid-bbox="true"
     inkscape:document-units="px"
     inkscape:snap-center="false"
     inkscape:window-width="1315"
     inkscape:window-height="744"
     inkscape:window-x="51"
     inkscape:window-y="24"
     inkscape:window-maximized="1"
     showguides="true"
     inkscape:guide-bbox="true"
     inkscape:snap-bbox="false"
     inkscape:snap-grids="false"
     inkscape:snap-to-guides="false"
     inkscape:snap-object-midpoints="true"
     inkscape:snap-midpoints="false"
     inkscape:snap-global="true">
    <inkscape:grid
       type="xygrid"
       id="grid2995"
       empspacing="5"
       visible="true"
       enabled="true"
       snapvisiblegridlinesonly="true" />
    <sodipodi:guide
       orientation="1,0"
       position="45,29"
       id="guide4007" />
    <sodipodi:guide
       orientation="0,1"
       position="104,30"
       id="guide4009" />
    <sodipodi:guide
       orientation="1,0"
       position="3,49"
       id="guide4011" />
    <sodipodi:guide
       orientation="0,1"
       position="51,3"
       id="guide4741" />
    <sodipodi:guide
       orientation="0,1"
       position="-2,45"
       id="guide4948" />
    <sodipodi:guide
       orientation="0,1"
       position="52,18"
       id="guide4957" />
    <sodipodi:guide
       orientation="0,1"
       position="52,7"
       id="guide4959" />
    <sodipodi:guide
       orientation="1,0"
       position="-2,21"
       id="guide4046" />
    <sodipodi:guide
       orientation="0,1"
       position="-20,20"
       id="guide4048" />
    <inkscape:grid
       type="axonomgrid"
       id="grid3101"
       units="mm"
       empspacing="5"
       visible="true"
       enabled="false"
       snapvisiblegridlinesonly="true" />
    <sodipodi:guide
       position="62.642455,22.264487"
       orientation="0,1"
       id="guide4195" />
    <sodipodi:guide
       position="108.83605,43.994713"
       orientation="0,1"
       id="guide4204" />
    <sodipodi:guide
       position="114.20614,11.740818"
       orientation="0,1"
       id="guide4206" />
  </sodipodi:namedview>
  <metadata
     id="metadata2990">
    <rdf:RDF>
      <cc:Work
         rdf:about="">
        <dc:format>image/svg+xml</dc:format>
        <dc:type
           rdf:resource="http://purl.org/dc/dcmitype/StillImage" />
        <dc:title></dc:title>
      </cc:Work>
    </rdf:RDF>
  </metadata>
  <g
     id="layer1"
     inkscape:label="Layer 1"
     inkscape:groupmode="layer">
    <path
       style="color:#000000;font-style:normal;font-variant:normal;font-weight:normal;font-stretch:normal;font-size:medium;line-height:normal;font-family:sans-serif;text-indent:0;text-align:start;text-decoration:none;text-decoration-line:none;text-decoration-style:solid;text-decoration-color:#000000;letter-spacing:normal;word-spacing:normal;text-transform:none;direction:ltr;block-progression:tb;writing-mode:lr-tb;baseline-shift:baseline;text-anchor:start;white-space:normal;clip-rule:nonzero;display:inline;overflow:visible;visibility:visible;opacity:1;isolation:auto;mix-blend-mode:normal;color-interpolation:sRGB;color-interpolation-filters:linearRGB;solid-color:#000000;solid-opacity:1;fill:#000000;fill-opacity:1;fill-rule:nonzero;stroke:none;stroke-width:1.89824498;stroke-linecap:round;stroke-linejoin:miter;stroke-miterlimit:4;stroke-dasharray:none;stroke-dashoffset:0;stroke-opacity:1;color-rendering:auto;image-rendering:auto;shape-rendering:auto;text-rendering:auto;enable-background:accumulate"
       d="M 24,13.622913 2.43436,24 24,34.377087 24.4658,34.153466 45.56564,24 24,13.622913 Z M 24,14.518286 43.704233,24 24,33.481715 4.2957677,24 24,14.518286 Z m -0.03404,1.627465 c -1.090068,0.0098 -2.18649,0.221013 -3.031281,0.630044 L 9.0791748,22.515404 c -1.6895835,0.81806 -1.7464692,2.123299 -0.1057008,2.917724 l 12.066905,5.842547 c 1.640767,0.794424 4.335359,0.76659 6.024942,-0.05147 l 11.855505,-5.73961 c 1.689583,-0.81806 1.746467,-2.123299 0.1057,-2.917724 L 26.959621,16.724325 C 26.139238,16.327113 25.056029,16.135944 23.96596,16.145751 Z m 0.0063,0.315022 c 0.920373,-0.0086 1.832275,0.15433 2.52338,0.488948 l 12.066009,5.84166 c 1.382213,0.669236 1.345047,1.766719 -0.104803,2.468707 l -11.854608,5.73961 c -1.449853,0.701986 -3.716511,0.720705 -5.098717,0.05147 L 9.4374824,25.20862 C 8.0552714,24.539382 8.0933309,23.4419 9.5431831,22.739913 L 21.397791,17.000302 c 0.724928,-0.350993 1.654066,-0.530959 2.57444,-0.539529 z m 0.972804,1.070186 -0.04837,1.664735 0.343974,0.140208 c 0.426965,0.107135 0.307222,0.411795 0.303667,1.600843 l -0.0206,6.78495 c -0.0033,1.14883 0.16517,1.380331 -0.221255,1.607943 l -0.357412,0.154404 -0.01971,0.984999 2.952454,-1.184661 0,-0.964588 -0.362785,0.04526 c -0.469461,-0.07079 -0.398108,-0.507032 -0.381633,-1.717981 l 0.0206,-1.48992 0.440719,-0.200549 c 0.269384,-0.111157 0.53372,-0.04321 0.696013,0.148193 0.281835,0.339994 0.204034,0.349612 0.231107,0.752503 l 0.305458,-0.181027 0.04031,-3.150219 -0.305457,-0.120685 c -0.287752,0.688977 -0.13873,0.344654 -0.287542,0.688612 -0.125602,0.278463 -0.349906,0.295702 -0.599269,0.177477 l -0.500736,-0.240481 0,-1.309781 c -4e-6,-0.799641 0.08868,-1.601731 0.08868,-1.601731 0,0 0.787778,0.172717 1.539828,0.463215 0.415852,0.160635 0.219711,0.103388 0.457737,0.507584 l 0.627935,0.270653 -0.04568,-1.601731 -4.898065,-2.228225 z m -1.516536,0.04881 c -0.116117,-0.0061 -0.250961,0.02018 -0.407575,0.0843 l -3.38959,1.465959 0.01971,1.2663 0.288437,0.06833 c 0.365058,0.05331 0.260231,0.293727 0.253503,1.623916 l -0.0206,4.005658 c -0.0068,1.330189 0.0708,1.952611 -0.375327,2.086244 l -0.348454,0.168603 0,0.643354 2.754489,1.22548 0.04121,-1.145615 -0.282167,-0.14908 c -0.312041,-0.08497 -0.36703,-0.470606 -0.354725,-1.784533 l 0.0206,-2.163446 0.444302,0.100274 c 0.465893,0.117692 1.009159,-0.226969 1.404566,-0.535981 0.851513,-0.535327 0.65839,-2.541255 0.65839,-3.595686 0,-1.674924 0.106065,-3.32213 -0.706762,-3.36408 z M 18.751701,19.54 l -2.860191,1.204182 -0.0099,0.792436 c 0.258398,0.04434 0.359204,-0.08897 0.359204,0.1899 0,0.139433 -0.241912,0.525857 -0.359204,0.700147 l -0.462217,0.872301 -0.697804,-0.771138 c -0.179183,-0.194951 -0.184468,-0.197325 -0.190798,-0.301711 -0.0071,-0.118166 0.05735,-0.176855 0.190798,-0.23782 l -0.0017,-0.724107 -2.175824,0.890936 0.0054,0.345192 c 0.65683,0.151053 0.771138,0.104034 1.287219,0.940629 l 0.722886,0.992984 0,0.943292 c 0,0.449225 0.08748,0.609562 -0.174675,0.806633 l -0.166613,0.09495 -0.01075,0.310586 2.361246,1.149164 8.97e-4,-0.752504 -0.326957,-0.261779 C 16.06473,26.464822 16.056399,26.174634 16.056399,25.709105 l 0,-1.178448 1.560429,-2.728711 c 0.609914,-0.929549 0.374143,-0.825755 1.154646,-1.088822 L 18.751764,19.54 Z m 3.867036,0.05856 c 0.208187,-0.0055 0.279198,0.07261 0.36189,0.264442 0.149257,0.336248 0.07615,0.820769 0.07615,1.518317 0,0.681323 0.05194,1.073118 -0.174675,1.399407 -0.242948,0.35423 -0.658375,0.404579 -0.829483,0.392224 -0.151601,-0.01094 -0.386972,-0.238707 -0.386972,-0.238707 l 0.02329,-1.505006 c 0.0073,-0.482006 0.02956,-1.355038 0.02956,-1.355038 0,0 0.411025,-0.400964 0.640476,-0.443693 0.105301,-0.01962 0.190381,-0.03008 0.259772,-0.03194 z m 7.995634,0.430383 0.05733,1.215719 0.231107,0.07809 c 0.282799,0.06806 0.212156,0.272466 0.217674,1.236129 l 0.01343,2.502427 c 0.0055,0.963663 0.0078,1.764384 -0.232005,1.860848 l -0.231108,0.06389 -0.01433,1.03203 2.807341,-1.306231 c 1.044813,-0.486217 1.0379,-0.466116 1.412627,-0.66554 0.408336,-0.214448 0.579563,-0.361941 0.579563,-1.043566 -0.01132,-0.504839 -0.171368,-0.825027 -0.598374,-0.88561 0.28599,-0.154282 0.507194,-0.688925 0.489985,-1.148277 -0.0172,-0.459351 -0.04799,-0.739784 -0.515962,-1.04534 -0.49271,-0.260517 -0.224123,-0.127117 -1.202122,-0.559941 l -3.015159,-1.334627 z m 1.832744,2.181194 c 0,0 -0.316693,-0.03751 0.873375,0.07987 0.431876,0.0426 0.539364,0.379206 0.551793,0.657554 0.01431,0.320852 -0.08896,0.467079 -0.533878,0.465877 l -0.90204,-0.0026 0.01075,-1.200634 z m 1.057903,2.379967 c 0.372149,0.0014 0.529093,0.188925 0.46132,0.566154 -0.09036,0.502969 -0.924589,0.90561 -1.566699,0.938852 0,0 -0.01121,-0.10675 0.0044,-0.682399 l 0.01433,-0.528882 0.643161,-0.233382 c 0.171466,-0.04075 0.31936,-0.06083 0.443408,-0.06034 z"
       id="path4148"
       inkscape:connector-curvature="0" />
    <g
       style="font-style:normal;font-variant:normal;font-weight:normal;font-stretch:normal;font-size:25.57406616px;line-height:125%;font-family:'URW Bookman L';-inkscape-font-specification:'URW Bookman L';letter-spacing:0px;word-spacing:0px;fill:#000000;fill-opacity:1;stroke:none;stroke-width:1px;stroke-linecap:butt;stroke-linejoin:miter;stroke-opacity:1"
       id="text4218"
       transform="translate(-89.471635,3.3378904)" />
    <g
       style="font-style:normal;font-variant:normal;font-weight:normal;font-stretch:normal;font-size:35.70446777px;line-height:125%;font-family:'URW Bookman L';-inkscape-font-specification:'URW Bookman L';letter-spacing:0px;word-spacing:0px;fill:#000000;fill-opacity:1;stroke:none;stroke-width:1px;stroke-linecap:butt;stroke-linejoin:miter;stroke-opacity:1"
       id="text4218-7" />
    <g
       style="font-style:normal;font-variant:normal;font-weight:normal;font-stretch:normal;font-size:40px;line-height:125%;font-family:'URW Bookman L';-inkscape-font-specification:'URW Bookman L';letter-spacing:0px;word-spacing:0px;fill:#000000;fill-opacity:1;stroke:none;stroke-width:1px;stroke-linecap:butt;stroke-linejoin:miter;stroke-opacity:1"
       id="text4218-7-3" />
    <g
       style="font-style:normal;font-variant:normal;font-weight:normal;font-stretch:normal;font-size:40px;line-height:125%;font-family:'URW Bookman L';-inkscape-font-specification:'URW Bookman L';letter-spacing:0px;word-spacing:0px;fill:#000000;fill-opacity:1;stroke:none;stroke-width:1px;stroke-linecap:butt;stroke-linejoin:miter;stroke-opacity:1"
       id="text4218-7-8"
       transform="matrix(0.5668778,0,0,0.64665933,56.808962,4.908113)" />
  </g>
</svg>
