<?xml version="1.0" encoding="UTF-8" standalone="no"?>
<!-- Created with Inkscape (http://www.inkscape.org/) -->

<svg
   xmlns:dc="http://purl.org/dc/elements/1.1/"
   xmlns:cc="http://creativecommons.org/ns#"
   xmlns:rdf="http://www.w3.org/1999/02/22-rdf-syntax-ns#"
   xmlns:svg="http://www.w3.org/2000/svg"
   xmlns="http://www.w3.org/2000/svg"
   xmlns:sodipodi="http://sodipodi.sourceforge.net/DTD/sodipodi-0.dtd"
   xmlns:inkscape="http://www.inkscape.org/namespaces/inkscape"
   width="48px"
   height="48px"
   id="svg2985"
   version="1.1"
   inkscape:version="0.48.4 r9939"
   sodipodi:docname="te_30.svg">
  <defs
     id="defs2987" />
  <sodipodi:namedview
     id="base"
     pagecolor="#ffffff"
     bordercolor="#666666"
     borderopacity="1.0"
     inkscape:pageopacity="0.0"
     inkscape:pageshadow="2"
     inkscape:zoom="6.8611891"
     inkscape:cx="62.896574"
     inkscape:cy="13.326882"
     inkscape:current-layer="layer1"
     showgrid="true"
     inkscape:grid-bbox="true"
     inkscape:document-units="px"
     inkscape:snap-center="false"
     inkscape:window-width="1307"
     inkscape:window-height="744"
     inkscape:window-x="59"
     inkscape:window-y="24"
     inkscape:window-maximized="1"
     showguides="true"
     inkscape:guide-bbox="true"
     inkscape:snap-bbox="true"
     inkscape:snap-grids="false"
     inkscape:snap-to-guides="false"
     inkscape:snap-object-midpoints="true"
     inkscape:snap-midpoints="false">
    <inkscape:grid
       type="xygrid"
       id="grid2995" />
    <sodipodi:guide
       orientation="1,0"
       position="45,29"
       id="guide4007" />
    <sodipodi:guide
       orientation="0,1"
       position="-1,30"
       id="guide4009" />
    <sodipodi:guide
       orientation="1,0"
       position="3,49"
       id="guide4011" />
    <sodipodi:guide
       orientation="0,1"
       position="51,3"
       id="guide4741" />
    <sodipodi:guide
       orientation="0,1"
       position="-2,45"
       id="guide4948" />
    <sodipodi:guide
       orientation="0,1"
       position="53,41"
       id="guide4955" />
    <sodipodi:guide
       orientation="0,1"
       position="52,18"
       id="guide4957" />
    <sodipodi:guide
       orientation="0,1"
       position="52,7"
       id="guide4959" />
    <sodipodi:guide
       orientation="1,0"
       position="76.315135,51.529463"
       id="guide3191" />
    <sodipodi:guide
       orientation="0,1"
       position="73.89325,55.033467"
       id="guide3193" />
  </sodipodi:namedview>
  <metadata
     id="metadata2990">
    <rdf:RDF>
      <cc:Work
         rdf:about="">
        <dc:format>image/svg+xml</dc:format>
        <dc:type
           rdf:resource="http://purl.org/dc/dcmitype/StillImage" />
        <dc:title></dc:title>
      </cc:Work>
    </rdf:RDF>
  </metadata>
  <g
     id="layer1"
     inkscape:label="Layer 1"
     inkscape:groupmode="layer">
    <path
       style="font-size:medium;font-style:normal;font-variant:normal;font-weight:normal;font-stretch:normal;text-indent:0;text-align:start;text-decoration:none;line-height:normal;letter-spacing:normal;word-spacing:normal;text-transform:none;direction:ltr;block-progression:tb;writing-mode:lr-tb;text-anchor:start;baseline-shift:baseline;color:#000000;fill:#000000;fill-opacity:1;stroke:none;stroke-width:2;marker:none;visibility:visible;display:inline;overflow:visible;enable-background:accumulate;font-family:Sans;-inkscape-font-specification:Sans"
       d="m 111.79068,36.721179 -1.75,1 2.0625,3.53125 -7.09375,4.09375 c -0.68944,-0.684592 -1.62805,-1.09375 -2.65625,-1.09375 -1.75818,0 -3.228893,1.246375 -3.656254,2.90625 l -16.09375,0 c -0.439507,-1.431342 -1.774745,-2.5 -3.34375,-2.5 -1.922632,0 -3.5,1.577368 -3.5,3.5 0,1.922632 1.577368,3.5 3.5,3.5 1.569005,0 2.904243,-1.068658 3.34375,-2.5 l 16.09375,0 c 0.348078,1.269309 1.328734,2.269845 2.562504,2.65625 l 0,15 c -1.431346,0.439507 -2.500004,1.774745 -2.500004,3.34375 0,1.922632 1.577364,3.5 3.500004,3.5 1.92263,0 3.5,-1.577368 3.5,-3.5 0,-1.579305 -1.05426,-2.913275 -2.5,-3.34375 l 0,-14.96875 c 1.64494,-0.424744 2.90625,-1.918221 2.90625,-3.71875 0,-0.356704 -0.0655,-0.702218 -0.15625,-1.03125 l 7.0625,-4.09375 2,3.46875 1.75,-1 -5.03125,-8.75 z m -9.4375,9.46875 c 1.06076,0 1.90625,0.857556 1.90625,1.9375 0,1.079944 -0.84549,1.9375 -1.90625,1.9375 -1.06077,0 -1.90625,-0.857556 -1.90625,-1.9375 0,-1.079944 0.84548,-1.9375 1.90625,-1.9375 z m -23.093754,0.21875 c 0.976862,0 1.75,0.773138 1.75,1.75 0,0.976862 -0.773138,1.75 -1.75,1.75 -0.976862,0 -1.75,-0.773138 -1.75,-1.75 0,-0.976862 0.773138,-1.75 1.75,-1.75 z m 23.000004,22 c 0.97686,0 1.75,0.773138 1.75,1.75 0,0.976862 -0.77314,1.75 -1.75,1.75 -0.97687,0 -1.75,-0.773138 -1.75,-1.75 0,-0.976862 0.77313,-1.75 1.75,-1.75 z"
       id="path3899-1"
       inkscape:connector-curvature="0" />
    <path
       inkscape:connector-curvature="0"
       style="font-size:medium;font-style:normal;font-variant:normal;font-weight:normal;font-stretch:normal;text-indent:0;text-align:start;text-decoration:none;line-height:normal;letter-spacing:normal;word-spacing:normal;text-transform:none;direction:ltr;block-progression:tb;writing-mode:lr-tb;text-anchor:start;baseline-shift:baseline;color:#000000;fill:#000000;fill-opacity:1;stroke:none;stroke-width:2;marker:none;visibility:visible;display:inline;overflow:visible;enable-background:accumulate;font-family:Sans;-inkscape-font-specification:Sans"
       d="m 123.60152,7 c -1.67923,0 -3.10736,1.1365127 -3.53125,2.6875007 l -16.125,0 c -0.43951,-1.431342 -1.77475,-2.5000003 -3.34375,-2.5000003 -1.922633,0 -3.500003,1.5773683 -3.500003,3.5000006 0,1.922632 1.57737,3.5 3.500003,3.5 1.5793,0 2.91327,-1.054257 3.34375,-2.5 l 16.15625,0 c 0.35709,1.179031 1.31705,2.089804 2.5,2.4375 l 0,15.25 c -1.42914,0.44087 -2.5,1.745071 -2.5,3.3125 0,1.922632 1.57737,3.5 3.5,3.5 1.92263,0 3.5,-1.577368 3.5,-3.5 0,-1.567429 -1.07086,-2.87163 -2.5,-3.3125 l 0,-15.25 c 1.53186,-0.436593 2.65625,-1.803193 2.65625,-3.46875 C 127.25777,8.6466497 125.61112,7 123.60152,7 z m 0,1.8125007 c 1.02105,0 1.84375,0.8227 1.84375,1.8437503 0,1.02105 -0.8227,1.8125 -1.84375,1.8125 -1.02105,0 -1.8125,-0.79145 -1.8125,-1.8125 0,-1.0210503 0.79145,-1.8437503 1.8125,-1.8437503 z m -23,0.125 c 0.97686,0 1.75,0.773138 1.75,1.7500003 0,0.976862 -0.77314,1.75 -1.75,1.75 -0.976863,0 -1.750003,-0.773138 -1.750003,-1.75 0,-0.9768623 0.77314,-1.7500003 1.750003,-1.7500003 z m 23,22.0000003 c 0.97686,0 1.75,0.773138 1.75,1.75 0,0.976862 -0.77314,1.75 -1.75,1.75 -0.97686,0 -1.75,-0.773138 -1.75,-1.75 0,-0.976862 0.77314,-1.75 1.75,-1.75 z"
       id="path3899-1-9-1" />
    <path
       style="font-size:medium;font-style:normal;font-variant:normal;font-weight:normal;font-stretch:normal;text-indent:0;text-align:start;text-decoration:none;line-height:normal;letter-spacing:normal;word-spacing:normal;text-transform:none;direction:ltr;block-progression:tb;writing-mode:lr-tb;text-anchor:start;baseline-shift:baseline;color:#000000;fill:#000000;fill-opacity:1;stroke:none;stroke-width:2;marker:none;visibility:visible;display:inline;overflow:visible;enable-background:accumulate;font-family:Sans;-inkscape-font-specification:Sans"
       d="m 121.66513,8.2306407 -7.79072,-4.5060587 2.00268,-3.462553 -1.73125,-1.001385 -5.05371,8.7374997 1.73125,1.001385 2.04965,-3.5436937 7.79073,4.5060627 1.00139,-1.731252 z"
       id="path3945-5-6-1"
       inkscape:connector-curvature="0"
       inkscape:transform-center-y="-5.9512342"
       inkscape:transform-center-x="8.2472485" />
    <path
       style="font-size:medium;font-style:normal;font-variant:normal;font-weight:normal;font-stretch:normal;text-indent:0;text-align:start;text-decoration:none;line-height:normal;letter-spacing:normal;word-spacing:normal;text-transform:none;direction:ltr;block-progression:tb;writing-mode:lr-tb;text-anchor:start;baseline-shift:baseline;color:#000000;fill:#000000;fill-opacity:1;stroke:none;stroke-width:2;marker:none;visibility:visible;display:inline;overflow:visible;enable-background:accumulate;font-family:Sans;-inkscape-font-specification:Sans"
       d="m 26.060994,2.8578555 c -0.623454,-10e-8 -1.242653,0.2441528 -1.714815,0.7163153 -0.944324,0.9443238 -0.944323,2.4853053 0,3.4296292 0.775694,0.7756937 1.943732,0.9110845 2.86526,0.4124237 l 7.922877,7.9445843 c -0.403704,0.754487 -0.366829,1.657628 0.04341,2.409423 l -7.445335,7.445335 c -0.367513,-0.212287 -0.782135,-0.347305 -1.237271,-0.347305 -1.166403,0 -2.180104,0.789431 -2.474543,1.86676 l -11.200561,0 C 12.514731,25.740799 11.608969,24.9985 10.519126,24.9985 c -1.3354756,0 -2.4311302,1.095654 -2.4311302,2.43113 0,1.335477 1.0956546,2.431129 2.4311302,2.431129 1.096996,0 2.001878,-0.732295 2.30089,-1.736521 l 11.243974,0 c 0.248041,0.818965 0.914834,1.451595 1.736521,1.693108 l 0,10.592779 c -0.992692,0.306232 -1.736521,1.212141 -1.736521,2.30089 0,1.335477 1.095653,2.43113 2.43113,2.43113 1.335476,0 2.431129,-1.095653 2.431129,-2.43113 0,-1.088749 -0.743829,-1.994658 -1.736521,-2.30089 l 0,-10.592779 c 1.064043,-0.303261 1.823347,-1.252513 1.823347,-2.409423 0,-0.434372 -0.112143,-0.835179 -0.303891,-1.193858 l 7.445334,-7.445334 c 0.96683,0.537954 2.199147,0.405635 3.017206,-0.412424 0.98704,-0.98704 0.98704,-2.594534 0,-3.581575 -0.824772,-0.824771 -2.090632,-0.966011 -3.060619,-0.412423 L 28.188231,6.4394299 C 28.675383,5.5205395 28.546444,4.3448058 27.775808,3.5741708 27.303646,3.1020088 26.684446,2.8578557 26.060994,2.8578555 z m 0,1.215565 c 0.309817,0 0.606655,0.1074052 0.846554,0.3473044 0.479796,0.4797966 0.479797,1.2350166 0,1.7148142 -0.479798,0.4797975 -1.235019,0.4797966 -1.714815,0 -0.479798,-0.4797966 -0.479798,-1.2350166 0,-1.7148142 0.239898,-0.2398992 0.558443,-0.3473044 0.868261,-0.3473044 z M 37.370087,15.295688 c 0.323578,-0.0038 0.660923,0.118261 0.911673,0.369011 0.501502,0.501501 0.501502,1.30014 0,1.80164 -0.501501,0.501502 -1.300138,0.479797 -1.80164,-0.0217 -0.501501,-0.501501 -0.501501,-1.278433 0,-1.779934 0.250751,-0.25075 0.566389,-0.365173 0.889967,-0.369011 z m -10.83155,10.874964 c 0.300285,0 0.60993,0.100235 0.846554,0.325597 0.0075,0.0071 0.01433,0.01433 0.0217,0.02171 0.103507,0.11117 0.20171,0.246842 0.260478,0.390717 0.03369,0.07854 0.04893,0.156301 0.06512,0.238771 0.01642,0.0835 0.02171,0.171825 0.02171,0.260478 0,0.05931 -0.01424,0.116806 -0.02171,0.173653 -0.0022,0.0135 0.0027,0.02997 0,0.04341 -0.0023,0.0139 0.0027,0.02969 0,0.04341 -0.03224,0.137917 -0.09194,0.267881 -0.173652,0.390718 -0.04498,0.06762 -0.09197,0.135383 -0.151946,0.195358 -0.479798,0.479798 -1.235016,0.479798 -1.714815,0 -0.479797,-0.479798 -0.479797,-1.256723 0,-1.736521 0.239899,-0.2399 0.536736,-0.347305 0.846554,-0.347305 z"
       id="path3899-1-9-1-3"
       inkscape:connector-curvature="0" />
    <g
       id="g3060">
      <path
         id="path3899-1-9-1-3-5"
         d="m 163.07235,20.865381 c -1.18739,-1.18739 -3.00087,-1.393598 -4.39732,-0.596621 L 147.27294,8.8666634 c 0.70133,-1.32289 0.51283,-3.0227026 -0.59663,-4.1321553 -1.3595,-1.3595047 -3.59024,-1.3595061 -4.94974,0 -1.35951,1.3595062 -1.35951,3.5902428 0,4.9497475 1.11673,1.1167354 2.80547,1.3145234 4.13215,0.5966214 l 11.4242,11.424194 c -0.5812,1.086204 -0.54642,2.40901 0.0442,3.49134 l -10.78338,10.783378 c -1.32229,-0.698812 -3.00172,-0.533815 -4.11006,0.574524 -1.3595,1.359506 -1.3595,3.590242 0,4.949748 1.35951,1.359506 3.59025,1.359506 4.94975,0 1.10834,-1.10834 1.27334,-2.787762 0.57453,-4.110058 l 10.78337,-10.783379 c 1.39191,0.774471 3.15331,0.603203 4.33103,-0.574524 1.42101,-1.421002 1.42101,-3.749716 0,-5.170719 z m -1.28163,1.281632 c 0.72199,0.721991 0.72199,1.885465 0,2.607456 -0.72199,0.721991 -1.86337,0.699894 -2.58536,-0.0221 -0.72199,-0.721991 -0.72199,-1.841271 0,-2.563262 0.72199,-0.721991 1.86337,-0.744089 2.58536,-0.0221 z M 145.43888,5.971945 c 0.69074,0.6907443 0.69074,1.784128 0,2.4748737 -0.69075,0.6907458 -1.78413,0.6907444 -2.47488,0 -0.69074,-0.6907443 -0.69074,-1.7841279 0,-2.4748737 0.69075,-0.6907458 1.78413,-0.6907444 2.47488,0 z m 0.7071,31.819805 c 0.69075,0.690746 0.69075,1.784128 0,2.474874 -0.69074,0.690746 -1.78412,0.690746 -2.47487,0 -0.69074,-0.690746 -0.69074,-1.784128 0,-2.474874 0.69075,-0.690746 1.78413,-0.690746 2.47487,0 z"
         style="font-size:medium;font-style:normal;font-variant:normal;font-weight:normal;font-stretch:normal;text-indent:0;text-align:start;text-decoration:none;line-height:normal;letter-spacing:normal;word-spacing:normal;text-transform:none;direction:ltr;block-progression:tb;writing-mode:lr-tb;text-anchor:start;baseline-shift:baseline;color:#000000;fill:#000000;fill-opacity:1;stroke:none;stroke-width:2;marker:none;visibility:visible;display:inline;overflow:visible;enable-background:accumulate;font-family:Sans;-inkscape-font-specification:Sans"
         inkscape:connector-curvature="0" />
      <path
         id="path3899-1-9-1-37-4"
         d="m 144.82022,35.405628 c -1.67922,0 -3.10736,1.136512 -3.53125,2.6875 l -16.125,0 c -0.4395,-1.431342 -1.77474,-2.5 -3.34375,-2.5 -1.92263,0 -3.5,1.577368 -3.5,3.5 0,1.922632 1.57737,3.5 3.5,3.5 1.57931,0 2.91328,-1.054257 3.34375,-2.5 l 16.15625,0 c 0.3571,1.179031 1.31705,2.089804 2.5,2.4375 l 0,15.25 c -1.42914,0.44087 -2.5,1.745071 -2.5,3.3125 0,1.922632 1.57737,3.5 3.5,3.5 1.92263,0 3.5,-1.577368 3.5,-3.5 0,-1.567429 -1.07086,-2.87163 -2.5,-3.3125 l 0,-15.25 c 1.53186,-0.436593 2.65625,-1.803193 2.65625,-3.46875 0,-2.009601 -1.64665,-3.65625 -3.65625,-3.65625 z m 0,1.8125 c 1.02105,0 1.84375,0.8227 1.84375,1.84375 0,1.02105 -0.8227,1.8125 -1.84375,1.8125 -1.02105,0 -1.8125,-0.79145 -1.8125,-1.8125 0,-1.02105 0.79145,-1.84375 1.8125,-1.84375 z m -23,0.125 c 0.97686,0 1.75,0.773138 1.75,1.75 0,0.976862 -0.77314,1.75 -1.75,1.75 -0.97686,0 -1.75,-0.773138 -1.75,-1.75 0,-0.976862 0.77314,-1.75 1.75,-1.75 z m 23,22 c 0.97686,0 1.75,0.773138 1.75,1.75 0,0.976862 -0.77314,1.75 -1.75,1.75 -0.97686,0 -1.75,-0.773138 -1.75,-1.75 0,-0.976862 0.77314,-1.75 1.75,-1.75 z"
         style="font-size:medium;font-style:normal;font-variant:normal;font-weight:normal;font-stretch:normal;text-indent:0;text-align:start;text-decoration:none;line-height:normal;letter-spacing:normal;word-spacing:normal;text-transform:none;direction:ltr;block-progression:tb;writing-mode:lr-tb;text-anchor:start;baseline-shift:baseline;color:#000000;fill:#000000;fill-opacity:1;stroke:none;stroke-width:2;marker:none;visibility:visible;display:inline;overflow:visible;enable-background:accumulate;font-family:Sans;-inkscape-font-specification:Sans"
         inkscape:connector-curvature="0" />
    </g>
  </g>
</svg>
