<?xml version="1.0" encoding="UTF-8" standalone="no"?>
<!-- Created with Inkscape (http://www.inkscape.org/) -->

<svg
   xmlns:dc="http://purl.org/dc/elements/1.1/"
   xmlns:cc="http://creativecommons.org/ns#"
   xmlns:rdf="http://www.w3.org/1999/02/22-rdf-syntax-ns#"
   xmlns:svg="http://www.w3.org/2000/svg"
   xmlns="http://www.w3.org/2000/svg"
   xmlns:sodipodi="http://sodipodi.sourceforge.net/DTD/sodipodi-0.dtd"
   xmlns:inkscape="http://www.inkscape.org/namespaces/inkscape"
   width="48px"
   height="48px"
   id="svg2985"
   version="1.1"
   inkscape:version="0.91 r13725"
   sodipodi:docname="linked_plantilla.svg">
  <defs
     id="defs2987">
    <inkscape:perspective
       sodipodi:type="inkscape:persp3d"
       inkscape:vp_x="0 : 24 : 1"
       inkscape:vp_y="0 : 1000 : 0"
       inkscape:vp_z="48 : 24 : 1"
       inkscape:persp3d-origin="24 : 16 : 1"
       id="perspective3884" />
  </defs>
  <sodipodi:namedview
     id="base"
     pagecolor="#ffffff"
     bordercolor="#666666"
     borderopacity="1.0"
     inkscape:pageopacity="0.0"
     inkscape:pageshadow="2"
     inkscape:zoom="5.29992"
     inkscape:cx="47.496487"
     inkscape:cy="-3.411719"
     inkscape:current-layer="layer1"
     showgrid="true"
     inkscape:grid-bbox="true"
     inkscape:document-units="px"
     inkscape:snap-center="false"
     inkscape:window-width="1307"
     inkscape:window-height="744"
     inkscape:window-x="59"
     inkscape:window-y="24"
     inkscape:window-maximized="1"
     showguides="false"
     inkscape:guide-bbox="true"
     inkscape:snap-bbox="false"
     inkscape:snap-grids="false"
     inkscape:snap-to-guides="false"
     inkscape:snap-object-midpoints="true"
     inkscape:snap-midpoints="false"
     inkscape:snap-global="true"
     guidetolerance="20"
     gridtolerance="10000">
    <inkscape:grid
       type="xygrid"
       id="grid2995"
       empspacing="1"
       visible="true"
       enabled="true"
       snapvisiblegridlinesonly="true" />
    <sodipodi:guide
       orientation="1,0"
       position="44.291339,1.7716535"
       id="guide4007" />
    <sodipodi:guide
       orientation="0,1"
       position="-1,30"
       id="guide4009" />
    <sodipodi:guide
       orientation="1,0"
       position="3.5433071,38.976378"
       id="guide4011" />
    <sodipodi:guide
       orientation="0,1"
       position="39,3.519685"
       id="guide4741" />
    <sodipodi:guide
       orientation="0,1"
       position="40.748031,44.291339"
       id="guide4948" />
    <sodipodi:guide
       orientation="0,1"
       position="14.905885,41.038355"
       id="guide4955" />
    <sodipodi:guide
       orientation="0,1"
       position="52,18"
       id="guide4957" />
    <sodipodi:guide
       orientation="0,1"
       position="52,7"
       id="guide4959" />
    <sodipodi:guide
       orientation="1,0"
       position="-2,21"
       id="guide4046" />
    <sodipodi:guide
       orientation="0,1"
       position="-20,20"
       id="guide4048" />
    <inkscape:grid
       type="axonomgrid"
       id="grid3839"
       units="mm"
       empspacing="5"
       visible="true"
       enabled="true"
       snapvisiblegridlinesonly="true"
       gridanglex="45"
       gridanglez="45"
       color="#ff6a00"
       opacity="0.1254902"
       empcolor="#ff6a00"
       empopacity="0.1254902" />
    <sodipodi:guide
       position="22.54751,15.000226"
       orientation="0,1"
       id="guide4186" />
  </sodipodi:namedview>
  <metadata
     id="metadata2990">
    <rdf:RDF>
      <cc:Work
         rdf:about="">
        <dc:format>image/svg+xml</dc:format>
        <dc:type
           rdf:resource="http://purl.org/dc/dcmitype/StillImage" />
        <dc:title></dc:title>
      </cc:Work>
    </rdf:RDF>
  </metadata>
  <g
     id="layer1"
     inkscape:label="Layer 1"
     inkscape:groupmode="layer">
    <g
       id="g4258"
       transform="translate(0.0491668,5e-7)" />
    <path
       style="color:#000000;font-style:normal;font-variant:normal;font-weight:normal;font-stretch:normal;font-size:medium;line-height:normal;font-family:sans-serif;text-indent:0;text-align:start;text-decoration:none;text-decoration-line:none;text-decoration-style:solid;text-decoration-color:#000000;letter-spacing:normal;word-spacing:normal;text-transform:none;direction:ltr;block-progression:tb;writing-mode:lr-tb;baseline-shift:baseline;text-anchor:start;white-space:normal;clip-rule:nonzero;display:inline;overflow:visible;visibility:visible;opacity:1;isolation:auto;mix-blend-mode:normal;color-interpolation:sRGB;color-interpolation-filters:linearRGB;solid-color:#000000;solid-opacity:1;fill:#000000;fill-opacity:1;fill-rule:evenodd;stroke:none;stroke-width:5.2440443;stroke-linecap:butt;stroke-linejoin:miter;stroke-miterlimit:4;stroke-dasharray:none;stroke-dashoffset:0;stroke-opacity:1;color-rendering:auto;image-rendering:auto;shape-rendering:auto;text-rendering:auto;enable-background:accumulate"
       d="M 42.097531,6.0148498 C 38.852405,2.7697246 34.734225,2.6984102 32.131744,3.730563 29.529255,4.7627088 27.913963,6.594899 27.913963,6.594899 l 0.08011,-0.085622 -7.164981,7.164981 c 1.378226,-0.364221 2.745761,-0.578521 4.042383,-0.211307 0.861744,0.244058 1.624707,0.701406 2.345056,1.240202 l 4.527141,-4.527141 0.04002,-0.04284 c 0,0 0.985449,-1.0134492 2.281523,-1.5274632 1.296066,-0.514021 2.374512,-0.832327 4.324126,1.117286 1.949606,1.9496072 1.6313,3.0280532 1.117279,4.3241202 -0.51402,1.296066 -1.527456,2.281529 -1.527456,2.281529 l -0.04419,0.03867 -8.135872,8.135871 -0.04006,0.04557 c 0,0 -0.984067,1.012068 -2.280147,1.526075 -1.296067,0.51402 -2.374513,0.832326 -4.32412,-1.11728 -0.08667,-0.08667 -0.145848,-0.162507 -0.223728,-0.245833 -0.0107,0.01282 -0.02254,0.0258 -0.03315,0.03867 0,0 -1.572484,-1.241702 -3.234459,0.367367 -1.456553,1.410166 -0.600643,2.667218 -0.400512,3.267604 0.0061,0.01809 -0.01614,0.038 -0.02348,0.05663 0.07018,0.07428 0.133749,0.150324 0.207161,0.223735 3.245118,3.245118 7.363298,3.316433 9.965787,2.284287 2.421742,-0.960478 3.930339,-2.555101 4.136295,-2.780093 l 8.053008,-8.053007 c 0.224992,-0.205957 1.819615,-1.714554 2.780092,-4.136296 1.032146,-2.602488 0.960832,-6.7206682 -2.284286,-9.9657866 z M 28.553393,19.335246 c -3.245118,-3.245119 -7.36468,-3.315051 -9.967168,-2.282906 -2.418734,0.959279 -3.92705,2.549238 -4.136294,2.777333 l -9.9077809,9.907781 0.265165,0.265166 c -0.41656,0.618 -0.851558,1.166658 -1.189105,2.017734 -1.032145,2.602488 -0.960831,6.720668 2.284287,9.965787 3.245126,3.245125 7.3619199,3.315053 9.9644079,2.282908 2.421756,-0.960464 3.931562,-2.553877 4.137681,-2.778707 l 7.354187,-7.354187 c -1.088567,0.214965 -2.383169,0.367321 -3.658452,0.241684 -1.400508,-0.137973 -2.46657,-0.46436 -3.223409,-0.776157 l -4.223306,4.223306 -0.04009,0.04277 c 0,0 -0.982723,1.013412 -2.278762,1.527462 -1.296067,0.514021 -2.374513,0.832327 -4.3241269,-1.117287 -1.949606,-1.949606 -1.632686,-3.029438 -1.118665,-4.325505 0.512156,-1.29136 1.5146329,-2.26336 1.5219419,-2.270471 l 8.185589,-8.18559 0.04002,-0.04284 c 0,0 0.982723,-1.013412 2.278761,-1.527461 1.296067,-0.514021 2.37728,-0.832322 4.326887,1.117284 0.251885,0.251886 0.462978,0.487444 0.64358,0.712637 0,0 1.720323,1.547288 3.433337,-0.165726 1.263461,-1.263461 0.835141,-2.608706 0.52342,-3.230324 -0.268086,-0.348356 -0.559583,-0.692165 -0.892171,-1.024753 z"
       id="path4188-3-2"
       inkscape:connector-curvature="0" />
    <g
       id="g4479">
      <g
         transform="translate(3.5849598,-56.415946)"
         id="g4448">
        <path
           sodipodi:nodetypes="ccczcczc"
           inkscape:connector-curvature="0"
           id="path4188-3-2-6"
           d="m 156.5637,69.788872 0,11.389028 0,0 c 0,0 -0.34646,7.7 7,7.7 7.34646,0 7,-7.7 7,-7.7 l 0,-11.389028 c 0,0 0.34646,-7.699999 -7,-7.699999 -7.34646,0 -7,7.699999 -7,7.699999 z"
           style="fill:none;fill-rule:evenodd;stroke:#000000;stroke-width:5.2440443;stroke-linecap:butt;stroke-linejoin:miter;stroke-miterlimit:4;stroke-dasharray:none;stroke-opacity:1" />
        <path
           sodipodi:nodetypes="ccczcczc"
           inkscape:connector-curvature="0"
           id="path4188-3-2-7-2"
           d="m 156.40528,88.785479 0,11.389031 0,0 c 0,0 -0.34646,7.7 7,7.7 7.34646,0 7,-7.7 7,-7.7 l 0,-11.389031 c 0,0 0.34646,-7.699999 -7,-7.699999 -7.34646,0 -7,7.699999 -7,7.699999 z"
           style="fill:none;fill-rule:evenodd;stroke:#000000;stroke-width:5.2440443;stroke-linecap:butt;stroke-linejoin:miter;stroke-miterlimit:4;stroke-dasharray:none;stroke-opacity:1" />
        <path
           style="fill:#fffe5f;fill-opacity:1;fill-rule:evenodd;stroke:none;stroke-width:1px;stroke-linecap:butt;stroke-linejoin:miter;stroke-opacity:1"
           d="m 163.23678,86.290592 c 0,0 -1.99093,0.234231 -2.02834,2.547208 -0.0328,2.027077 1.46229,2.311356 2.02834,2.594379 0.56604,0.283024 -4.0095,6.132168 -4.0095,6.132168 l -5.30917,-9.103126 c -0.16865,-2.342795 -1.06565,-6.543518 -1.06565,-6.543518 1.01852,-1.953102 2.00132,-3.999326 3.79843,-5.003173 1.79711,-1.003847 4.00968,-0.881203 6.04451,-1.066093 0,0 -1.0153,0.432889 -0.30906,1.713781 1.04377,1.893061 0.5566,5.620361 0.85044,8.728374 z"
           id="path4405-6"
           inkscape:connector-curvature="0"
           sodipodi:nodetypes="cssccczcsc" />
      </g>
      <path
         style="fill:none;fill-rule:evenodd;stroke:#000000;stroke-width:5.2440443;stroke-linecap:butt;stroke-linejoin:miter;stroke-miterlimit:4;stroke-dasharray:none;stroke-opacity:1"
         d="m 141.09881,58.98854 0,11.389028 0,0 c 0,0 -0.34646,7.7 7,7.7 7.34646,0 7,-7.7 7,-7.7 l 0,-11.389028 c 0,0 0.34646,-7.699999 -7,-7.699999 -7.34646,0 -7,7.699999 -7,7.699999 z"
         id="path4188-3-2-7-1"
         inkscape:connector-curvature="0"
         sodipodi:nodetypes="ccczcczc" />
      <path
         sodipodi:nodetypes="czcccczccc"
         inkscape:connector-curvature="0"
         id="path4456-8"
         d="m 149.05774,48.655006 c 0,0 2.31136,0.336461 2.31136,2.759028 0,2.422568 -2.31136,2.544353 -2.31136,2.544353 l -0.95893,10.724667 1.4926,-0.51816 1.43789,0.746635 c 0,0 1.91911,-0.244449 4.27475,-2.177567 2.35564,-1.933119 3.74665,-5.098595 3.74665,-5.098595 l -1.18735,-8.746878 z"
         style="fill:#ff0200;fill-opacity:1;fill-rule:evenodd;stroke:none;stroke-width:1px;stroke-linecap:butt;stroke-linejoin:miter;stroke-opacity:1" />
    </g>
  </g>
</svg>
