<?xml version="1.0" encoding="UTF-8" standalone="no"?>
<!-- Created with Inkscape (http://www.inkscape.org/) -->

<svg
   xmlns:dc="http://purl.org/dc/elements/1.1/"
   xmlns:cc="http://creativecommons.org/ns#"
   xmlns:rdf="http://www.w3.org/1999/02/22-rdf-syntax-ns#"
   xmlns:svg="http://www.w3.org/2000/svg"
   xmlns="http://www.w3.org/2000/svg"
   xmlns:sodipodi="http://sodipodi.sourceforge.net/DTD/sodipodi-0.dtd"
   xmlns:inkscape="http://www.inkscape.org/namespaces/inkscape"
   width="48px"
   height="48px"
   id="svg2985"
   version="1.1"
   inkscape:version="0.91 r13725"
   sodipodi:docname="MED_IZQ_DE.svg">
  <defs
     id="defs2987">
    <inkscape:perspective
       sodipodi:type="inkscape:persp3d"
       inkscape:vp_x="0 : 24 : 1"
       inkscape:vp_y="0 : 1000 : 0"
       inkscape:vp_z="48 : 24 : 1"
       inkscape:persp3d-origin="24 : 16 : 1"
       id="perspective3884" />
  </defs>
  <sodipodi:namedview
     id="base"
     pagecolor="#ffffff"
     bordercolor="#666666"
     borderopacity="1.0"
     inkscape:pageopacity="0.0"
     inkscape:pageshadow="2"
     inkscape:zoom="10.59984"
     inkscape:cx="23.107791"
     inkscape:cy="26.194916"
     inkscape:current-layer="layer1"
     showgrid="true"
     inkscape:grid-bbox="true"
     inkscape:document-units="px"
     inkscape:snap-center="false"
     inkscape:window-width="1307"
     inkscape:window-height="744"
     inkscape:window-x="59"
     inkscape:window-y="24"
     inkscape:window-maximized="1"
     showguides="true"
     inkscape:guide-bbox="true"
     inkscape:snap-bbox="false"
     inkscape:snap-grids="false"
     inkscape:snap-to-guides="false"
     inkscape:snap-object-midpoints="true"
     inkscape:snap-midpoints="false"
     inkscape:snap-global="true">
    <inkscape:grid
       type="xygrid"
       id="grid2995"
       empspacing="5"
       visible="true"
       enabled="true"
       snapvisiblegridlinesonly="true" />
    <sodipodi:guide
       orientation="1,0"
       position="45,29"
       id="guide4007" />
    <sodipodi:guide
       orientation="0,1"
       position="-1,30"
       id="guide4009" />
    <sodipodi:guide
       orientation="1,0"
       position="3,49"
       id="guide4011" />
    <sodipodi:guide
       orientation="0,1"
       position="51,3"
       id="guide4741" />
    <sodipodi:guide
       orientation="0,1"
       position="-2,45"
       id="guide4948" />
    <sodipodi:guide
       orientation="0,1"
       position="25.189059,40.849673"
       id="guide4955" />
    <sodipodi:guide
       orientation="-0.0012431924,-0.99999923"
       position="52,18"
       id="guide4957" />
    <sodipodi:guide
       orientation="0,1"
       position="52,7"
       id="guide4959" />
    <sodipodi:guide
       orientation="1,0"
       position="-2,21"
       id="guide4046" />
    <sodipodi:guide
       orientation="0,1"
       position="-20,20"
       id="guide4048" />
    <inkscape:grid
       type="axonomgrid"
       id="grid3101"
       units="mm"
       empspacing="5"
       visible="true"
       enabled="true"
       snapvisiblegridlinesonly="true" />
  </sodipodi:namedview>
  <metadata
     id="metadata2990">
    <rdf:RDF>
      <cc:Work
         rdf:about="">
        <dc:format>image/svg+xml</dc:format>
        <dc:type
           rdf:resource="http://purl.org/dc/dcmitype/StillImage" />
        <dc:title></dc:title>
      </cc:Work>
    </rdf:RDF>
  </metadata>
  <g
     id="layer1"
     inkscape:label="Layer 1"
     inkscape:groupmode="layer">
    <g
       id="g3034"
       transform="translate(0.984375,-0.078125)">
      <g
         id="text3036-3"
         style="font-size:19.04157639px;font-style:normal;font-variant:normal;font-weight:500;font-stretch:normal;line-height:125%;letter-spacing:0px;word-spacing:0px;fill:#000000;fill-opacity:1;stroke:none;font-family:Roboto;-inkscape-font-specification:Roboto Medium"
         transform="matrix(0.86379955,0.50554306,0,0.87563034,1.9636078,3.1146767)">
        <path
           d="M 19.375 1.3125 L 19.125 1.4375 L 11.9375 5.5625 L 11.25 6 L 10.1875 6.5625 L 9.6875 6.875 L 9.6875 7.5 L 9.6875 7.6875 L 9.6875 8.5 L 9.6875 35.5 L 9.6875 35.8125 L 9.9375 35.9375 L 27.8125 46.25 L 28.125 46.4375 L 28.5625 46.6875 L 29 46.4375 L 29.125 46.4375 L 29.25 46.3125 L 38.0625 41.375 L 38.3125 41.1875 L 38.3125 40.9375 L 38.3125 31.601562 L 40.416016 32.888672 L 40.902344 32.091797 L 38.3125 30.509766 L 38.3125 15.4375 L 38.3125 14.625 L 38.3125 12.75 L 38.3125 12.25 L 37.75 11.9375 L 35.25 10.5 L 34.0625 9.75 L 33.6875 9.5625 L 24.3125 4.125 L 23.25 3.5 L 19.625 1.4375 L 19.375 1.3125 z M 19.375 2.4375 L 23.25 4.6875 L 24.3125 5.3125 L 36.8125 12.5 L 28.5625 17.25 L 14.125 8.875 L 11.1875 7.1875 L 19.375 2.4375 z M 10.6875 8.0625 L 12.875 9.3125 L 28.125 18.1875 L 28.125 45.25 L 10.6875 35.25 L 10.6875 8.0625 z M 37.3125 13.375 L 37.3125 29.898438 L 33.925781 27.828125 L 33.439453 28.623047 L 37.3125 30.990234 L 37.3125 40.625 L 29.125 45.25 L 29.125 18.0625 L 37.3125 13.375 z M 12.875 15.5625 L 12.875 27.4375 L 14.8125 28.5625 L 14.8125 24.53125 L 14.625 19.3125 L 14.65625 19.3125 L 18.125 30.5 L 19.4375 31.28125 L 22.90625 24.125 L 22.9375 24.15625 L 22.75 29.1875 L 22.75 33.21875 L 24.71875 34.34375 L 24.71875 22.5 L 22.1875 21.03125 L 18.8125 28.15625 L 18.75 28.125 L 15.40625 17.0625 L 12.875 15.5625 z "
           transform="matrix(1.157676,-0.66838143,0,1.1420344,-3.4128089,-1.4974696)"
           id="path4085" />
      </g>
    </g>
  </g>
</svg>
