<?xml version="1.0" encoding="UTF-8" standalone="no"?>
<!-- Created with Inkscape (http://www.inkscape.org/) -->

<svg
   xmlns:dc="http://purl.org/dc/elements/1.1/"
   xmlns:cc="http://creativecommons.org/ns#"
   xmlns:rdf="http://www.w3.org/1999/02/22-rdf-syntax-ns#"
   xmlns:svg="http://www.w3.org/2000/svg"
   xmlns="http://www.w3.org/2000/svg"
   xmlns:sodipodi="http://sodipodi.sourceforge.net/DTD/sodipodi-0.dtd"
   xmlns:inkscape="http://www.inkscape.org/namespaces/inkscape"
   width="48px"
   height="48px"
   id="svg2985"
   version="1.1"
   inkscape:version="0.91 r13725"
   sodipodi:docname="REG_SIMIZQ_DO.svg">
  <defs
     id="defs2987">
    <inkscape:perspective
       sodipodi:type="inkscape:persp3d"
       inkscape:vp_x="0 : 24 : 1"
       inkscape:vp_y="0 : 1000 : 0"
       inkscape:vp_z="48 : 24 : 1"
       inkscape:persp3d-origin="24 : 16 : 1"
       id="perspective3884" />
  </defs>
  <sodipodi:namedview
     id="base"
     pagecolor="#ffffff"
     bordercolor="#666666"
     borderopacity="1.0"
     inkscape:pageopacity="0.0"
     inkscape:pageshadow="2"
     inkscape:zoom="7.4952187"
     inkscape:cx="43.746184"
     inkscape:cy="24.193349"
     inkscape:current-layer="layer1"
     showgrid="true"
     inkscape:grid-bbox="true"
     inkscape:document-units="px"
     inkscape:snap-center="false"
     inkscape:window-width="1307"
     inkscape:window-height="744"
     inkscape:window-x="59"
     inkscape:window-y="24"
     inkscape:window-maximized="1"
     showguides="true"
     inkscape:guide-bbox="true"
     inkscape:snap-bbox="false"
     inkscape:snap-grids="false"
     inkscape:snap-to-guides="false"
     inkscape:snap-object-midpoints="true"
     inkscape:snap-midpoints="false"
     inkscape:snap-global="true">
    <inkscape:grid
       type="xygrid"
       id="grid2995"
       empspacing="5"
       visible="true"
       enabled="true"
       snapvisiblegridlinesonly="true" />
    <sodipodi:guide
       orientation="1,0"
       position="45,29"
       id="guide4007" />
    <sodipodi:guide
       orientation="0,1"
       position="-1,30"
       id="guide4009" />
    <sodipodi:guide
       orientation="1,0"
       position="3,49"
       id="guide4011" />
    <sodipodi:guide
       orientation="0,1"
       position="23.748473,2.8017862"
       id="guide4741" />
    <sodipodi:guide
       orientation="0,1"
       position="24.682402,45.095415"
       id="guide4948" />
    <sodipodi:guide
       orientation="0,1"
       position="21.6041,40.944014"
       id="guide4955" />
    <sodipodi:guide
       orientation="0,1"
       position="52,18"
       id="guide4957" />
    <sodipodi:guide
       orientation="0,1"
       position="52,7"
       id="guide4959" />
    <sodipodi:guide
       orientation="1,0"
       position="-2,21"
       id="guide4046" />
    <sodipodi:guide
       orientation="0,1"
       position="-20,20"
       id="guide4048" />
    <inkscape:grid
       type="axonomgrid"
       id="grid3101"
       units="mm"
       empspacing="5"
       visible="true"
       enabled="true"
       snapvisiblegridlinesonly="true" />
  </sodipodi:namedview>
  <metadata
     id="metadata2990">
    <rdf:RDF>
      <cc:Work
         rdf:about="">
        <dc:format>image/svg+xml</dc:format>
        <dc:type
           rdf:resource="http://purl.org/dc/dcmitype/StillImage" />
        <dc:title></dc:title>
      </cc:Work>
    </rdf:RDF>
  </metadata>
  <g
     id="layer1"
     inkscape:label="Layer 1"
     inkscape:groupmode="layer">
    <path
       style="font-size:medium;font-style:normal;font-variant:normal;font-weight:normal;font-stretch:normal;text-indent:0;text-align:start;text-decoration:none;line-height:normal;letter-spacing:normal;word-spacing:normal;text-transform:none;direction:ltr;block-progression:tb;writing-mode:lr-tb;text-anchor:start;baseline-shift:baseline;color:#000000;fill:#000000;fill-opacity:1;stroke:none;stroke-width:1;marker:none;visibility:visible;display:inline;overflow:visible;enable-background:accumulate;font-family:Sans;-inkscape-font-specification:Sans"
       d="M 19.375 1.28125 L 19.125 1.40625 L 11.9375 5.5625 L 11.25 6.03125 L 10.1875 6.59375 L 9.6875 6.875 L 9.6875 6.90625 L 9.6875 7.5 L 9.6875 7.6875 L 9.6875 8.5 L 9.6875 35.5 L 9.6875 35.8125 L 9.9375 35.9375 L 22.982422 43.462891 L 22.982422 46.285156 L 23.982422 46.285156 L 23.982422 44.041016 L 27.8125 46.25 L 28.125 46.4375 L 28.5625 46.6875 L 29 46.4375 L 29.125 46.4375 L 29.25 46.3125 L 38.0625 41.375 L 38.3125 41.1875 L 38.3125 40.9375 L 38.3125 15.4375 L 38.3125 14.625 L 38.3125 12.75 L 38.3125 12.25 L 37.75 11.9375 L 35.25 10.5 L 34.0625 9.78125 L 33.6875 9.5625 L 19.625 1.40625 L 19.375 1.28125 z M 19.375 2.4375 L 36.8125 12.5 L 28.5625 17.25 L 14.125 8.90625 L 11.1875 7.1875 L 19.375 2.4375 z M 10.6875 8.0625 L 12.875 9.34375 L 28.125 18.1875 L 28.125 45.25 L 10.6875 35.25 L 10.6875 8.0625 z M 37.3125 13.375 L 37.3125 40.625 L 29.125 45.25 L 29.125 18.0625 L 37.3125 13.375 z M 15.6875 19.46875 C 13.666 19.402266 12.3125 20.76308 12.3125 23.21875 C 12.3125 26.790633 15.209366 31.375281 18.78125 33.4375 C 22.353133 35.499718 25.28125 34.290633 25.28125 30.71875 C 25.28125 27.146866 22.353133 22.530968 18.78125 20.46875 C 17.665036 19.824307 16.606364 19.49897 15.6875 19.46875 z M 16.0625 21.03125 L 16.0625 21.75 L 16.0625 29.03125 L 16.0625 29.75 C 14.617261 28.007924 13.65625 25.839558 13.65625 24 C 13.65625 22.156498 14.612066 21.100451 16.0625 21.03125 z M 16.375 21.03125 C 17.093482 21.06525 17.908413 21.33982 18.78125 21.84375 C 21.563206 23.449906 23.804621 26.903823 23.90625 29.71875 L 23.3125 29.03125 L 16.96875 21.75 L 16.375 21.03125 z M 17.28125 23.53125 L 21.75 28.6875 L 17.3125 28.6875 L 17.28125 23.53125 z M 16.375 30.125 L 17 30.125 L 23.3125 30.125 L 23.90625 30.125 C 23.804621 32.822577 21.563206 33.699906 18.78125 32.09375 C 17.908413 31.58982 17.093482 30.920629 16.375 30.125 z "
       id="path4007-7" />
  </g>
</svg>
