<?xml version="1.0" encoding="UTF-8" standalone="no"?>
<!-- Created with Inkscape (http://www.inkscape.org/) -->

<svg
   xmlns:dc="http://purl.org/dc/elements/1.1/"
   xmlns:cc="http://creativecommons.org/ns#"
   xmlns:rdf="http://www.w3.org/1999/02/22-rdf-syntax-ns#"
   xmlns:svg="http://www.w3.org/2000/svg"
   xmlns="http://www.w3.org/2000/svg"
   xmlns:sodipodi="http://sodipodi.sourceforge.net/DTD/sodipodi-0.dtd"
   xmlns:inkscape="http://www.inkscape.org/namespaces/inkscape"
   width="48px"
   height="48px"
   id="svg2985"
   version="1.1"
   inkscape:version="0.91 r13725"
   sodipodi:docname="REG_SIMDER_DO.svg">
  <defs
     id="defs2987">
    <inkscape:perspective
       sodipodi:type="inkscape:persp3d"
       inkscape:vp_x="0 : 24 : 1"
       inkscape:vp_y="0 : 1000 : 0"
       inkscape:vp_z="48 : 24 : 1"
       inkscape:persp3d-origin="24 : 16 : 1"
       id="perspective3884" />
  </defs>
  <sodipodi:namedview
     id="base"
     pagecolor="#ffffff"
     bordercolor="#666666"
     borderopacity="1.0"
     inkscape:pageopacity="0.0"
     inkscape:pageshadow="2"
     inkscape:zoom="8.4551544"
     inkscape:cx="21.660036"
     inkscape:cy="30.51056"
     inkscape:current-layer="layer1"
     showgrid="true"
     inkscape:grid-bbox="true"
     inkscape:document-units="px"
     inkscape:snap-center="false"
     inkscape:window-width="1307"
     inkscape:window-height="744"
     inkscape:window-x="59"
     inkscape:window-y="24"
     inkscape:window-maximized="1"
     showguides="true"
     inkscape:guide-bbox="true"
     inkscape:snap-bbox="false"
     inkscape:snap-grids="false"
     inkscape:snap-to-guides="false"
     inkscape:snap-object-midpoints="true"
     inkscape:snap-midpoints="false"
     inkscape:snap-global="true">
    <inkscape:grid
       type="xygrid"
       id="grid2995"
       empspacing="5"
       visible="true"
       enabled="true"
       snapvisiblegridlinesonly="true" />
    <sodipodi:guide
       orientation="1,0"
       position="45,29"
       id="guide4007" />
    <sodipodi:guide
       orientation="0,1"
       position="-1,30"
       id="guide4009" />
    <sodipodi:guide
       orientation="1,0"
       position="3,49"
       id="guide4011" />
    <sodipodi:guide
       orientation="0,1"
       position="51,3"
       id="guide4741" />
    <sodipodi:guide
       orientation="0,1"
       position="52,18"
       id="guide4957" />
    <sodipodi:guide
       orientation="0,1"
       position="52,7"
       id="guide4959" />
    <sodipodi:guide
       orientation="1,0"
       position="-2,21"
       id="guide4046" />
    <sodipodi:guide
       orientation="0,1"
       position="-20,20"
       id="guide4048" />
    <inkscape:grid
       type="axonomgrid"
       id="grid3101"
       units="mm"
       empspacing="5"
       visible="true"
       enabled="true"
       snapvisiblegridlinesonly="true" />
  </sodipodi:namedview>
  <metadata
     id="metadata2990">
    <rdf:RDF>
      <cc:Work
         rdf:about="">
        <dc:format>image/svg+xml</dc:format>
        <dc:type
           rdf:resource="http://purl.org/dc/dcmitype/StillImage" />
        <dc:title></dc:title>
      </cc:Work>
    </rdf:RDF>
  </metadata>
  <g
     id="layer1"
     inkscape:label="Layer 1"
     inkscape:groupmode="layer">
    <path
       style="font-size:medium;font-style:normal;font-variant:normal;font-weight:normal;font-stretch:normal;text-indent:0;text-align:start;text-decoration:none;line-height:normal;letter-spacing:normal;word-spacing:normal;text-transform:none;direction:ltr;block-progression:tb;writing-mode:lr-tb;text-anchor:start;baseline-shift:baseline;color:#000000;fill:#000000;fill-opacity:1;stroke:none;stroke-width:5.61316347;marker:none;visibility:visible;display:inline;overflow:visible;enable-background:accumulate;font-family:Sans;-inkscape-font-specification:Sans"
       d="M 28.625 1.28125 L 28.375 1.4375 L 9.65625 12.21875 L 9.65625 12.25 L 9.625 12.28125 L 9.625 40.84375 L 9.625 41.125 L 9.875 41.28125 L 18.9375 46.4375 L 19.4375 46.71875 L 19.71875 46.53125 L 19.875 46.4375 L 23.035156 44.619141 L 23.035156 46.757812 L 24.035156 46.757812 L 24.035156 44.044922 L 38.125 35.9375 L 38.375 35.78125 L 38.375 35.5 L 38.375 6.90625 L 38.125 6.8125 L 38.0625 6.75 L 28.875 1.4375 L 28.625 1.28125 z M 28.625 2.46875 L 36.78125 7.1875 L 19.4375 17.21875 L 19.40625 17.21875 L 11.1875 12.5 L 28.625 2.46875 z M 37.375 8.0625 L 37.375 35.21875 L 19.9375 45.25 L 19.9375 18.09375 L 37.375 8.0625 z M 10.625 13.375 L 18.875 18.09375 L 18.875 45.28125 L 10.625 40.5625 L 10.625 13.375 z M 31.9375 18.65625 C 30.95248 18.688646 29.821578 19.027908 28.625 19.71875 C 24.795949 21.929443 21.6875 26.858449 21.6875 30.6875 C 21.6875 34.516551 24.795949 35.835693 28.625 33.625 C 32.454051 31.414306 35.59375 26.485301 35.59375 22.65625 C 35.59375 20.023777 34.104544 18.584979 31.9375 18.65625 z M 31.21875 20.3125 C 32.904584 20.229809 34.0501 21.293141 34.125 23.28125 L 33.5 23.28125 L 26.71875 23.3125 L 26.0625 23.28125 C 26.832711 22.428338 27.689322 21.696461 28.625 21.15625 C 29.556953 20.618189 30.452462 20.350087 31.21875 20.3125 z M 25.71875 23.6875 L 25.71875 24.4375 L 25.71875 32.28125 L 25.71875 33.03125 C 24.169458 32.95271 23.125 31.815752 23.125 29.84375 C 23.125 27.867519 24.163889 25.557074 25.71875 23.6875 z M 34.125 23.71875 C 34.016054 26.736346 31.607251 30.465704 28.625 32.1875 C 27.689322 32.727711 26.832711 33.026053 26.0625 33.0625 L 26.71875 32.28125 L 33.5 24.46875 L 34.125 23.71875 z M 27.03125 24.84375 L 31.8125 24.84375 L 27.0625 30.34375 L 27.03125 24.84375 z "
       id="path3003" />
    <g
       id="g4061"
       transform="translate(-0.578125,-1.6989195)" />
  </g>
</svg>
