<?xml version="1.0" encoding="UTF-8" standalone="no"?>
<!-- Created with Inkscape (http://www.inkscape.org/) -->

<svg
   xmlns:dc="http://purl.org/dc/elements/1.1/"
   xmlns:cc="http://creativecommons.org/ns#"
   xmlns:rdf="http://www.w3.org/1999/02/22-rdf-syntax-ns#"
   xmlns:svg="http://www.w3.org/2000/svg"
   xmlns="http://www.w3.org/2000/svg"
   xmlns:sodipodi="http://sodipodi.sourceforge.net/DTD/sodipodi-0.dtd"
   xmlns:inkscape="http://www.inkscape.org/namespaces/inkscape"
   width="16px"
   height="16px"
   id="svg2985"
   version="1.1"
   inkscape:version="0.91 r13725"
   sodipodi:docname="ROSIM.svg">
  <defs
     id="defs2987" />
  <sodipodi:namedview
     id="base"
     pagecolor="#ffffff"
     bordercolor="#666666"
     borderopacity="1.0"
     inkscape:pageopacity="0.0"
     inkscape:pageshadow="2"
     inkscape:zoom="7.8481082"
     inkscape:cx="7.1374379"
     inkscape:cy="-3.2845826"
     inkscape:current-layer="layer1"
     showgrid="true"
     inkscape:grid-bbox="true"
     inkscape:document-units="px"
     inkscape:snap-grids="false"
     inkscape:snap-to-guides="false"
     inkscape:window-width="1309"
     inkscape:window-height="744"
     inkscape:window-x="57"
     inkscape:window-y="24"
     inkscape:window-maximized="1">
    <inkscape:grid
       type="xygrid"
       id="grid2993" />
  </sodipodi:namedview>
  <metadata
     id="metadata2990">
    <rdf:RDF>
      <cc:Work
         rdf:about="">
        <dc:format>image/svg+xml</dc:format>
        <dc:type
           rdf:resource="http://purl.org/dc/dcmitype/StillImage" />
        <dc:title></dc:title>
      </cc:Work>
    </rdf:RDF>
  </metadata>
  <g
     id="layer1"
     inkscape:label="Layer 1"
     inkscape:groupmode="layer">
    <path
       inkscape:connector-curvature="0"
       style="color:#000000;font-style:normal;font-variant:normal;font-weight:normal;font-stretch:normal;font-size:medium;line-height:normal;font-family:Sans;-inkscape-font-specification:Sans;text-indent:0;text-align:start;text-decoration:none;text-decoration-line:none;letter-spacing:normal;word-spacing:normal;text-transform:none;direction:ltr;block-progression:tb;writing-mode:lr-tb;baseline-shift:baseline;text-anchor:start;display:inline;overflow:visible;visibility:visible;fill:#000000;fill-opacity:1;stroke:none;stroke-width:5.61299992;stroke-miterlimit:4;stroke-dasharray:none;marker:none;enable-background:accumulate"
       d="M 8,1.8040241 C 4.58775,3.7740874 1.804024,8.1649985 1.804024,11.577249 1.804024,14.989498 4.58775,16.166038 8,14.195976 11.41225,12.225914 14.195976,7.8350016 14.195976,4.4227512 14.195976,1.0105018 11.41225,-0.16603936 8,1.8040241 Z m 0,1.2887633 c 2.657625,-1.5343799 4.797733,-0.6817089 4.894821,1.8953072 l -0.57003,-0.00548 -6.047272,0.00925 -0.582422,-0.010713 C 6.381469,4.2210844 7.166172,3.5741979 8,3.0927874 Z m -2.60231,2.2459616 0,0.6815575 -0.0124,6.9714405 0,0.681558 c -1.380644,-0.06999 -2.292507,-1.082774 -2.292507,-2.840119 0,-1.7611123 0.919292,-3.8283614 2.304903,-5.4944324 z M 6.574926,6.3691608 10.837757,6.3616203 6.587318,11.269218 6.574928,6.3691584 Z M 12.894821,5.3598536 C 12.797731,8.0489797 10.657625,11.372832 8,12.907213 7.166172,13.388624 6.381469,13.647829 5.695097,13.68031 l 0.594814,-0.690432 6.03488,-6.9663784 0.57003,-0.663614 z"
       id="path3003" />
  </g>
</svg>
