<?xml version="1.0" encoding="UTF-8" standalone="no"?>
<!-- Created with Inkscape (http://www.inkscape.org/) -->

<svg
   xmlns:dc="http://purl.org/dc/elements/1.1/"
   xmlns:cc="http://creativecommons.org/ns#"
   xmlns:rdf="http://www.w3.org/1999/02/22-rdf-syntax-ns#"
   xmlns:svg="http://www.w3.org/2000/svg"
   xmlns="http://www.w3.org/2000/svg"
   xmlns:sodipodi="http://sodipodi.sourceforge.net/DTD/sodipodi-0.dtd"
   xmlns:inkscape="http://www.inkscape.org/namespaces/inkscape"
   width="48px"
   height="48px"
   id="svg2985"
   version="1.1"
   inkscape:version="0.48.4 r9939"
   sodipodi:docname="Te.svg">
  <defs
     id="defs2987" />
  <sodipodi:namedview
     id="base"
     pagecolor="#ffffff"
     bordercolor="#666666"
     borderopacity="1.0"
     inkscape:pageopacity="0.0"
     inkscape:pageshadow="2"
     inkscape:zoom="9.7031867"
     inkscape:cx="22.970882"
     inkscape:cy="21.200158"
     inkscape:current-layer="layer1"
     showgrid="true"
     inkscape:grid-bbox="true"
     inkscape:document-units="px"
     inkscape:snap-center="false"
     inkscape:window-width="1307"
     inkscape:window-height="744"
     inkscape:window-x="59"
     inkscape:window-y="24"
     inkscape:window-maximized="1"
     showguides="true"
     inkscape:guide-bbox="true"
     inkscape:snap-bbox="true"
     inkscape:snap-grids="false"
     inkscape:snap-to-guides="true"
     inkscape:snap-object-midpoints="true"
     inkscape:snap-midpoints="false">
    <inkscape:grid
       type="xygrid"
       id="grid2995" />
    <sodipodi:guide
       orientation="1,0"
       position="45,29"
       id="guide4007" />
    <sodipodi:guide
       orientation="0,1"
       position="-1,30"
       id="guide4009" />
    <sodipodi:guide
       orientation="1,0"
       position="3,49"
       id="guide4011" />
    <sodipodi:guide
       orientation="0,1"
       position="51,3"
       id="guide4741" />
    <sodipodi:guide
       orientation="0,1"
       position="-2,45"
       id="guide4948" />
    <sodipodi:guide
       orientation="0,1"
       position="53,41"
       id="guide4955" />
    <sodipodi:guide
       orientation="0,1"
       position="52,18"
       id="guide4957" />
    <sodipodi:guide
       orientation="0,1"
       position="52,7"
       id="guide4959" />
    <sodipodi:guide
       orientation="0,1"
       position="41.465116,-9.9836922"
       id="guide3903" />
    <sodipodi:guide
       orientation="1,0"
       position="35,-32"
       id="guide3905" />
    <sodipodi:guide
       orientation="0,1"
       position="27.980498,-23.136729"
       id="guide3006" />
    <sodipodi:guide
       orientation="1,0"
       position="21.436257,-26.743791"
       id="guide3008" />
  </sodipodi:namedview>
  <metadata
     id="metadata2990">
    <rdf:RDF>
      <cc:Work
         rdf:about="">
        <dc:format>image/svg+xml</dc:format>
        <dc:type
           rdf:resource="http://purl.org/dc/dcmitype/StillImage" />
        <dc:title />
      </cc:Work>
    </rdf:RDF>
  </metadata>
  <g
     id="layer1"
     inkscape:label="Layer 1"
     inkscape:groupmode="layer">
    <path
       style="font-size:medium;font-style:normal;font-variant:normal;font-weight:normal;font-stretch:normal;text-indent:0;text-align:start;text-decoration:none;line-height:normal;letter-spacing:normal;word-spacing:normal;text-transform:none;direction:ltr;block-progression:tb;writing-mode:lr-tb;text-anchor:start;baseline-shift:baseline;color:#000000;fill:#000000;fill-opacity:1;stroke:none;stroke-width:2;marker:none;visibility:visible;display:inline;overflow:visible;enable-background:accumulate;font-family:Sans;-inkscape-font-specification:Sans"
       d="m 37.515625,4.6875 -1.53125,1.28125 2.65625,3.125 -6.625,5.59375 c -0.476528,-0.244301 -0.993588,-0.40625 -1.5625,-0.40625 -1.579305,0 -2.913275,1.085507 -3.34375,2.53125 l -16.3125,0 c -0.439507,-1.431342 -1.774745,-2.5 -3.34375,-2.5 -1.922632,0 -3.5,1.577368 -3.5,3.5 0,1.922632 1.577368,3.5 3.5,3.5 1.569005,0 2.904243,-1.068658 3.34375,-2.5 l 16.3125,0 c 0.372186,1.2121 1.400529,2.147036 2.65625,2.40625 0.227133,0.04689 0.447171,0.0625 0.6875,0.0625 0.240329,0 0.460367,-0.01561 0.6875,-0.0625 1.589931,-0.328204 2.8125,-1.755197 2.8125,-3.4375 0,-0.630798 -0.172676,-1.205797 -0.46875,-1.71875 l 6.4375,-5.4375 2.59375,3.0625 1.53125,-1.3125 -6.53125,-7.6875 z m -6.375,16.53125 c -0.225365,0.04958 -0.443081,0.09375 -0.6875,0.09375 -0.244419,0 -0.462135,-0.04417 -0.6875,-0.09375 -0.100695,-0.02215 -0.212874,-0.03191 -0.3125,-0.0625 l 0,15.3125 c -1.431342,0.439507 -2.5,1.774745 -2.5,3.34375 0,1.922632 1.577368,3.5 3.5,3.5 1.922632,0 3.5,-1.577368 3.5,-3.5 0,-1.569005 -1.068658,-2.904243 -2.5,-3.34375 l 0,-15.3125 c -0.09963,0.03059 -0.211805,0.04035 -0.3125,0.0625 z m -0.6875,-5.1875 c 0.976862,0 1.75,0.773138 1.75,1.75 0,0.976862 -0.773138,1.75 -1.75,1.75 -0.976862,0 -1.75,-0.773138 -1.75,-1.75 0,-0.976862 0.773138,-1.75 1.75,-1.75 z m -23,0.03125 c 0.976862,0 1.75,0.773138 1.75,1.75 0,0.976862 -0.773138,1.75 -1.75,1.75 -0.976862,0 -1.75,-0.773138 -1.75,-1.75 0,-0.976862 0.773138,-1.75 1.75,-1.75 z m 23,22 c 0.976862,0 1.75,0.773138 1.75,1.75 0,0.976862 -0.773138,1.75 -1.75,1.75 -0.976862,0 -1.75,-0.773138 -1.75,-1.75 0,-0.976862 0.773138,-1.75 1.75,-1.75 z"
       id="path3899"
       inkscape:connector-curvature="0" />
    <path
       style="fill:none;stroke:#000000;stroke-width:2;stroke-linecap:butt;stroke-linejoin:miter;stroke-miterlimit:4;stroke-opacity:1;stroke-dasharray:none"
       d="m 1.412236,71.12159 20,0 0,20"
       id="path3899-1"
       inkscape:connector-curvature="0" />
    <path
       sodipodi:type="arc"
       style="fill:none;stroke:#000000;stroke-width:2;stroke-linecap:round;stroke-linejoin:miter;stroke-miterlimit:4;stroke-opacity:1;stroke-dasharray:none"
       id="path3901-9"
       sodipodi:cx="13"
       sodipodi:cy="59"
       sodipodi:rx="3"
       sodipodi:ry="3"
       d="m 16,59 a 3,3 0 1 1 -6,0 3,3 0 1 1 6,0 z"
       transform="matrix(0.875,0,0,0.875,-12.962764,19.49659)" />
    <path
       sodipodi:type="arc"
       style="fill:none;stroke:#000000;stroke-width:2;stroke-linecap:round;stroke-linejoin:miter;stroke-miterlimit:4;stroke-opacity:1;stroke-dasharray:none"
       id="path3901-8-9"
       sodipodi:cx="13"
       sodipodi:cy="59"
       sodipodi:rx="3"
       sodipodi:ry="3"
       d="m 16,59 a 3,3 0 1 1 -6,0 3,3 0 1 1 6,0 z"
       transform="matrix(0.875,0,0,0.875,10.037236,41.49659)" />
    <path
       sodipodi:type="arc"
       style="fill:#ffffff;stroke:#000000;stroke-width:2;stroke-linecap:round;stroke-linejoin:miter;stroke-miterlimit:4;stroke-opacity:1;stroke-dasharray:none"
       id="path3901-8-7-9"
       sodipodi:cx="13"
       sodipodi:cy="59"
       sodipodi:rx="3"
       sodipodi:ry="3"
       d="m 16,59 a 3,3 0 1 1 -6,0 3,3 0 1 1 6,0 z"
       transform="matrix(0.875,0,0,0.875,10.061257,19.357141)" />
    <path
       style="font-size:medium;font-style:normal;font-variant:normal;font-weight:normal;font-stretch:normal;text-indent:0;text-align:start;text-decoration:none;line-height:normal;letter-spacing:normal;word-spacing:normal;text-transform:none;direction:ltr;block-progression:tb;writing-mode:lr-tb;text-anchor:start;baseline-shift:baseline;color:#000000;fill:#000000;fill-opacity:1;stroke:none;stroke-width:2;marker:none;visibility:visible;display:inline;overflow:visible;enable-background:accumulate;font-family:Sans;-inkscape-font-specification:Sans"
       d="m 24.436084,70.45001 7.797726,-4.493937 1.997315,3.465651 1.73285,-0.998614 -5.040032,-8.745391 -1.73285,0.998614 2.044104,3.54689 -7.797726,4.493936 0.998613,1.73285 z"
       id="path3945-5"
       inkscape:connector-curvature="0"
       inkscape:transform-center-y="-5.9182765"
       inkscape:transform-center-x="-8.2644665" />
    <path
       sodipodi:type="arc"
       style="fill:#ffffff;stroke:#000000;stroke-width:2;stroke-linecap:round;stroke-linejoin:miter;stroke-miterlimit:4;stroke-opacity:1;stroke-dasharray:none"
       id="path3901-8-7-7-6"
       sodipodi:cx="13"
       sodipodi:cy="59"
       sodipodi:rx="3"
       sodipodi:ry="3"
       d="m 16,59 a 3,3 0 1 1 -6,0 3,3 0 1 1 6,0 z"
       transform="matrix(0.875,0,0,0.875,50.872592,6.3586922)" />
  </g>
</svg>
