<?xml version="1.0" encoding="UTF-8" standalone="no"?>
<!-- Created with Inkscape (http://www.inkscape.org/) -->

<svg
   xmlns:dc="http://purl.org/dc/elements/1.1/"
   xmlns:cc="http://creativecommons.org/ns#"
   xmlns:rdf="http://www.w3.org/1999/02/22-rdf-syntax-ns#"
   xmlns:svg="http://www.w3.org/2000/svg"
   xmlns="http://www.w3.org/2000/svg"
   xmlns:sodipodi="http://sodipodi.sourceforge.net/DTD/sodipodi-0.dtd"
   xmlns:inkscape="http://www.inkscape.org/namespaces/inkscape"
   width="48px"
   height="48px"
   id="svg2985"
   version="1.1"
   inkscape:version="0.48.4 r9939"
   sodipodi:docname="150-g.svg">
  <defs
     id="defs2987" />
  <sodipodi:namedview
     id="base"
     pagecolor="#ffffff"
     bordercolor="#666666"
     borderopacity="1.0"
     inkscape:pageopacity="0.0"
     inkscape:pageshadow="2"
     inkscape:zoom="10.59984"
     inkscape:cx="19.159217"
     inkscape:cy="18.059835"
     inkscape:current-layer="layer1"
     showgrid="true"
     inkscape:grid-bbox="true"
     inkscape:document-units="px"
     inkscape:snap-center="false"
     inkscape:window-width="1307"
     inkscape:window-height="744"
     inkscape:window-x="59"
     inkscape:window-y="24"
     inkscape:window-maximized="1"
     showguides="true"
     inkscape:guide-bbox="true"
     inkscape:snap-bbox="true"
     inkscape:snap-grids="false"
     inkscape:snap-to-guides="true"
     inkscape:snap-object-midpoints="true"
     inkscape:snap-midpoints="false">
    <inkscape:grid
       type="xygrid"
       id="grid2995" />
    <sodipodi:guide
       orientation="1,0"
       position="45,29"
       id="guide4007" />
    <sodipodi:guide
       orientation="0,1"
       position="-1,30"
       id="guide4009" />
    <sodipodi:guide
       orientation="1,0"
       position="3,49"
       id="guide4011" />
    <sodipodi:guide
       orientation="0,1"
       position="51,3"
       id="guide4741" />
    <sodipodi:guide
       orientation="0,1"
       position="-2,45"
       id="guide4948" />
    <sodipodi:guide
       orientation="0,1"
       position="53,41"
       id="guide4955" />
    <sodipodi:guide
       orientation="0,1"
       position="52,18"
       id="guide4957" />
    <sodipodi:guide
       orientation="0,1"
       position="52,7"
       id="guide4959" />
  </sodipodi:namedview>
  <metadata
     id="metadata2990">
    <rdf:RDF>
      <cc:Work
         rdf:about="">
        <dc:format>image/svg+xml</dc:format>
        <dc:type
           rdf:resource="http://purl.org/dc/dcmitype/StillImage" />
        <dc:title></dc:title>
      </cc:Work>
    </rdf:RDF>
  </metadata>
  <g
     id="layer1"
     inkscape:label="Layer 1"
     inkscape:groupmode="layer">
    <g
       transform="matrix(0.99361601,0,0,1.006425,2.140725e-8,23.000001)"
       style="font-size:40.25699997px;font-style:normal;font-weight:normal;line-height:125%;letter-spacing:0px;word-spacing:0px;fill:#000000;fill-opacity:1;stroke:none;font-family:Sans"
       id="text3003">
      <path
         d="M 3.019275,9.3556353 C 3.5929353,9.1342303 4.1515006,8.8524316 4.6949727,8.5102383 5.2384386,8.157999 5.7366185,7.7202046 6.1895139,7.1968536 l 0.9963607,0 0,10.4617884 -1.4039629,0 0,-8.5143559 C 5.6611367,9.2550012 5.5101731,9.37074 5.3290205,9.4915027 5.1579247,9.6122817 4.9667041,9.7280205 4.7553582,9.8387193 4.5540703,9.9494338 4.3376891,10.055108 4.1062141,10.155743 3.8847983,10.256393 3.6684171,10.341939 3.4570699,10.412382 L 3.019275,9.3556353"
         style="font-size:15.09637547px;font-variant:normal;font-stretch:normal;fill:#000000;font-family:Ubuntu;-inkscape-font-specification:Ubuntu"
         id="path3113"
         inkscape:connector-curvature="0" />
      <path
         d="m 13.140687,11.227586 c 1.519697,0.06039 2.631796,0.392512 3.336299,0.996361 0.714555,0.603859 1.071835,1.424095 1.071843,2.460709 -8e-6,0.462958 -0.08052,0.890688 -0.241542,1.283192 -0.150971,0.392507 -0.387481,0.729659 -0.70953,1.011457 -0.311998,0.281799 -0.709535,0.503213 -1.192613,0.66424 -0.483089,0.161028 -1.056751,0.241542 -1.720987,0.241542 -0.261674,0 -0.528376,-0.02013 -0.800108,-0.06039 -0.271737,-0.04026 -0.523343,-0.09058 -0.754819,-0.150964 -0.231479,-0.06039 -0.437796,-0.120771 -0.618951,-0.181156 -0.181158,-0.06039 -0.311993,-0.110707 -0.392506,-0.150964 l 0.271735,-1.222806 c 0.17109,0.08052 0.447857,0.18619 0.8303,0.317023 0.392504,0.130837 0.870555,0.196254 1.434156,0.196253 0.452887,10e-7 0.830296,-0.05032 1.132228,-0.150963 0.311987,-0.100642 0.563593,-0.236509 0.754819,-0.407603 0.191215,-0.17109 0.327082,-0.367343 0.407602,-0.588758 0.09057,-0.231476 0.135861,-0.473017 0.135867,-0.724626 -6e-6,-0.382439 -0.06542,-0.719591 -0.196252,-1.011457 -0.130841,-0.301924 -0.362319,-0.55353 -0.694434,-0.754819 -0.332125,-0.20128 -0.774951,-0.352244 -1.328481,-0.452891 -0.553537,-0.110702 -1.253001,-0.166055 -2.098396,-0.166061 0.06038,-0.493142 0.105673,-0.956097 0.135867,-1.388866 0.04026,-0.432756 0.07548,-0.855454 0.105675,-1.2680957 0.03019,-0.4126259 0.05535,-0.8202276 0.07548,-1.2228064 0.02013,-0.4126247 0.04026,-0.845387 0.06039,-1.2982883 l 5.04219,0 0,1.1926137 -3.819383,0 c -0.01007,0.1509729 -0.02516,0.3572898 -0.04529,0.6189514 -0.02013,0.2516146 -0.04026,0.518317 -0.06039,0.8001079 -0.02013,0.2717424 -0.04026,0.5384444 -0.06039,0.8001074 -0.02013,0.261678 -0.04026,0.467995 -0.06039,0.618952"
         style="font-size:15.09637547px;font-variant:normal;font-stretch:normal;fill:#000000;font-family:Ubuntu;-inkscape-font-specification:Ubuntu"
         id="path3115"
         inkscape:connector-curvature="0" />
      <path
         d="m 19.412524,12.4202 c -1e-6,-1.751173 0.306958,-3.0997812 0.920879,-4.0458291 0.623981,-0.9460293 1.484473,-1.4190486 2.58148,-1.4190593 1.096998,1.07e-5 1.952458,0.47303 2.566384,1.4190593 0.623976,0.9460479 0.935967,2.2946561 0.935975,4.0458291 -8e-6,1.751183 -0.311999,3.099791 -0.935975,4.045828 -0.613926,0.94604 -1.469386,1.419059 -2.566384,1.419059 -1.097007,0 -1.957499,-0.473019 -2.58148,-1.419059 -0.613921,-0.946037 -0.92088,-2.294645 -0.920879,-4.045828 m 5.525273,0 c -6e-6,-0.573657 -0.03523,-1.117126 -0.105675,-1.630409 C 24.771731,10.276522 24.661024,9.8286629 24.500002,9.4462136 24.349033,9.0637806 24.142716,8.7618534 23.881051,8.540431 23.619375,8.3089626 23.29732,8.1932239 22.914883,8.1932144 c -0.382446,9.5e-6 -0.704501,0.1157482 -0.966168,0.3472166 -0.261674,0.2214224 -0.473023,0.5233496 -0.634048,0.9057826 -0.150966,0.3824493 -0.261673,0.8303084 -0.33212,1.3435774 -0.06039,0.513283 -0.09058,1.056752 -0.09058,1.630409 -2e-6,0.573666 0.03019,1.117135 0.09058,1.630408 0.07045,0.51328 0.181154,0.961139 0.33212,1.343577 0.161025,0.382444 0.372374,0.689403 0.634048,0.920879 0.261667,0.221415 0.583722,0.332122 0.966168,0.332121 0.382437,1e-6 0.704492,-0.110706 0.966168,-0.332121 0.261665,-0.231476 0.467982,-0.538435 0.618951,-0.920879 0.161022,-0.382438 0.271729,-0.830297 0.33212,-1.343577 0.07044,-0.513273 0.105669,-1.056742 0.105675,-1.630408"
         style="font-size:15.09637547px;font-variant:normal;font-stretch:normal;fill:#000000;font-family:Ubuntu;-inkscape-font-specification:Ubuntu"
         id="path3117"
         inkscape:connector-curvature="0" />
      <path
         d="m 33.262741,9.8387193 c -7e-6,0.4327697 -0.07046,0.8252757 -0.21135,1.1775177 -0.130841,0.352255 -0.317029,0.654182 -0.558566,0.905782 -0.241547,0.251612 -0.528378,0.447865 -0.860493,0.588759 -0.332124,0.13084 -0.694437,0.196258 -1.086939,0.196253 -0.392509,5e-6 -0.754821,-0.06541 -1.086939,-0.196253 -0.332122,-0.140894 -0.618953,-0.337147 -0.860494,-0.588759 -0.241543,-0.2516 -0.432763,-0.553527 -0.573662,-0.905782 -0.130836,-0.352242 -0.196253,-0.744748 -0.196253,-1.1775177 0,-0.4327545 0.06542,-0.8252599 0.196253,-1.1775173 0.140899,-0.3623036 0.332119,-0.6642308 0.573662,-0.9057825 0.241541,-0.2515961 0.528372,-0.4428167 0.860494,-0.5736623 0.332118,-0.1408888 0.69443,-0.2113385 1.086939,-0.2113492 0.392502,1.07e-5 0.754815,0.07046 1.086939,0.2113492 0.332115,0.1308456 0.618946,0.3220662 0.860493,0.5736623 0.241537,0.2415517 0.427725,0.5434789 0.558566,0.9057825 0.140894,0.3522574 0.211343,0.7447628 0.21135,1.1775173 m -1.117132,0 C 32.145604,9.2751297 32.004704,8.827271 31.72291,8.4951419 31.451171,8.1529669 31.058666,7.9818748 30.545393,7.9818651 c -0.503215,9.7e-6 -0.895721,0.1711018 -1.177517,0.5132768 -0.281801,0.3321291 -0.422701,0.7799878 -0.422699,1.3435774 -2e-6,0.5535407 0.135866,1.0013997 0.407602,1.3435777 0.281797,0.34219 0.679334,0.513282 1.192614,0.513277 0.513273,5e-6 0.905778,-0.171087 1.177517,-0.513277 0.281794,-0.342178 0.422694,-0.790037 0.422699,-1.3435777"
         style="font-size:15.09637547px;font-variant:normal;font-stretch:normal;fill:#000000;font-family:Ubuntu;-inkscape-font-specification:Ubuntu"
         id="path3119"
         inkscape:connector-curvature="0" />
    </g>
    <path
       style="font-size:medium;font-style:normal;font-variant:normal;font-weight:normal;font-stretch:normal;text-indent:0;text-align:start;text-decoration:none;line-height:normal;letter-spacing:normal;word-spacing:normal;text-transform:none;direction:ltr;block-progression:tb;writing-mode:lr-tb;text-anchor:start;baseline-shift:baseline;color:#000000;fill:#000000;fill-opacity:1;stroke:none;stroke-width:2;marker:none;visibility:visible;display:inline;overflow:visible;enable-background:accumulate;font-family:Sans;-inkscape-font-specification:Sans"
       d="m 25.953125,5.53125 -5.03125,8.75 1.71875,1 2.0625,-3.53125 7.21875,4.15625 c -0.0065,0.02218 -0.02514,0.04015 -0.03125,0.0625 l -16.125,0 c -0.439507,-1.431342 -1.774747,-2.5 -3.34375,-2.5 -1.92263,0 -3.5,1.577368 -3.5,3.5 0,1.922632 1.57737,3.5 3.5,3.5 1.579303,0 2.913274,-1.054257 3.34375,-2.5 l 16.15625,0 c 0.357094,1.179031 1.317051,2.089804 2.5,2.4375 l 0,15.25 c -1.429139,0.44087 -2.5,1.745071 -2.5,3.3125 0,1.922632 1.577368,3.5 3.5,3.5 1.922632,0 3.5,-1.577368 3.5,-3.5 0,-1.567429 -1.070861,-2.87163 -2.5,-3.3125 l 0,-15.25 c 1.53186,-0.436593 2.65625,-1.803193 2.65625,-3.46875 0,-2.009601 -1.646649,-3.65625 -3.65625,-3.65625 -0.93649,0 -1.787835,0.355782 -2.4375,0.9375 L 25.703125,10 l 2,-3.46875 -1.75,-1 z m 9.46875,9.5625 c 1.02105,0 1.84375,0.8227 1.84375,1.84375 0,1.02105 -0.8227,1.8125 -1.84375,1.8125 -1.02105,0 -1.8125,-0.79145 -1.8125,-1.8125 0,-1.02105 0.79145,-1.84375 1.8125,-1.84375 z m -23,0.125 c 0.97686,0 1.75,0.773138 1.75,1.75 0,0.976862 -0.77314,1.75 -1.75,1.75 -0.97686,0 -1.75,-0.773138 -1.75,-1.75 0,-0.976862 0.77314,-1.75 1.75,-1.75 z m 23,22 c 0.976862,0 1.75,0.773138 1.75,1.75 0,0.976862 -0.773138,1.75 -1.75,1.75 -0.976862,0 -1.75,-0.773138 -1.75,-1.75 0,-0.976862 0.773138,-1.75 1.75,-1.75 z"
       id="path3899-1-9-1"
       inkscape:connector-curvature="0" />
  </g>
</svg>
