<?xml version="1.0" encoding="UTF-8" standalone="no"?>
<!-- Created with Inkscape (http://www.inkscape.org/) -->

<svg
   xmlns:dc="http://purl.org/dc/elements/1.1/"
   xmlns:cc="http://creativecommons.org/ns#"
   xmlns:rdf="http://www.w3.org/1999/02/22-rdf-syntax-ns#"
   xmlns:svg="http://www.w3.org/2000/svg"
   xmlns="http://www.w3.org/2000/svg"
   xmlns:sodipodi="http://sodipodi.sourceforge.net/DTD/sodipodi-0.dtd"
   xmlns:inkscape="http://www.inkscape.org/namespaces/inkscape"
   width="48px"
   height="48px"
   id="svg2985"
   version="1.1"
   inkscape:version="0.48.4 r9939"
   sodipodi:docname="270-g.svg">
  <defs
     id="defs2987" />
  <sodipodi:namedview
     id="base"
     pagecolor="#ffffff"
     bordercolor="#666666"
     borderopacity="1.0"
     inkscape:pageopacity="0.0"
     inkscape:pageshadow="2"
     inkscape:zoom="7.4952187"
     inkscape:cx="21.841589"
     inkscape:cy="19.044527"
     inkscape:current-layer="layer1"
     showgrid="true"
     inkscape:grid-bbox="true"
     inkscape:document-units="px"
     inkscape:snap-center="false"
     inkscape:window-width="1307"
     inkscape:window-height="744"
     inkscape:window-x="59"
     inkscape:window-y="24"
     inkscape:window-maximized="1"
     showguides="true"
     inkscape:guide-bbox="true"
     inkscape:snap-bbox="true"
     inkscape:snap-grids="false"
     inkscape:snap-to-guides="true"
     inkscape:snap-object-midpoints="true"
     inkscape:snap-midpoints="false">
    <inkscape:grid
       type="xygrid"
       id="grid2995" />
    <sodipodi:guide
       orientation="1,0"
       position="45,29"
       id="guide4007" />
    <sodipodi:guide
       orientation="0,1"
       position="-1,30"
       id="guide4009" />
    <sodipodi:guide
       orientation="1,0"
       position="3,49"
       id="guide4011" />
    <sodipodi:guide
       orientation="0,1"
       position="51,3"
       id="guide4741" />
    <sodipodi:guide
       orientation="0,1"
       position="-10.406634,44.828578"
       id="guide4948" />
    <sodipodi:guide
       orientation="0,1"
       position="53,41"
       id="guide4955" />
    <sodipodi:guide
       orientation="0,1"
       position="36.98169,18.01914"
       id="guide4957" />
    <sodipodi:guide
       orientation="0,1"
       position="52,7"
       id="guide4959" />
    <sodipodi:guide
       orientation="1,0"
       position="62.28971,41.643214"
       id="guide3554" />
  </sodipodi:namedview>
  <metadata
     id="metadata2990">
    <rdf:RDF>
      <cc:Work
         rdf:about="">
        <dc:format>image/svg+xml</dc:format>
        <dc:type
           rdf:resource="http://purl.org/dc/dcmitype/StillImage" />
        <dc:title></dc:title>
      </cc:Work>
    </rdf:RDF>
  </metadata>
  <g
     id="layer1"
     inkscape:label="Layer 1"
     inkscape:groupmode="layer">
    <g
       transform="matrix(0.99361601,0,0,1.006425,-5.4717052,-27)"
       style="font-size:40.25699997px;font-style:normal;font-weight:normal;line-height:125%;letter-spacing:0px;word-spacing:0px;fill:#000000;fill-opacity:1;stroke:none;font-family:Sans"
       id="text3003">
      <path
         d="m 14.730746,36.696545 c -7e-6,0.36232 -0.07549,0.714569 -0.226445,1.056746 -0.140907,0.332127 -0.332127,0.664247 -0.573663,0.996361 -0.241548,0.322061 -0.513282,0.644117 -0.815204,0.966168 -0.301933,0.311996 -0.60386,0.618956 -0.905782,0.920879 -0.171097,0.171096 -0.372382,0.372381 -0.603855,0.603855 -0.221418,0.231481 -0.432767,0.473023 -0.634048,0.724626 -0.201288,0.251609 -0.37238,0.49315 -0.513277,0.724626 -0.130838,0.231479 -0.196255,0.432764 -0.196253,0.603855 l 4.815744,0 0,1.192614 -6.3404778,0 c -0.010065,-0.06039 -0.015097,-0.120771 -0.015096,-0.181157 -1e-6,-0.06039 -1e-6,-0.115738 0,-0.16606 -1e-6,-0.473019 0.075481,-0.910813 0.2264457,-1.313385 0.1610265,-0.412632 0.3673435,-0.800105 0.6189514,-1.16242 0.2516041,-0.36231 0.5334027,-0.704494 0.8453967,-1.026554 0.311989,-0.322052 0.618948,-0.634043 0.920879,-0.935975 0.251602,-0.241537 0.488112,-0.478047 0.709529,-0.70953 0.231474,-0.241536 0.432758,-0.478046 0.603855,-0.70953 0.181152,-0.241535 0.322051,-0.488109 0.422699,-0.739722 0.110701,-0.251599 0.166055,-0.518301 0.16606,-0.800108 -5e-6,-0.301919 -0.05033,-0.558557 -0.150964,-0.769915 -0.09058,-0.211341 -0.216386,-0.387465 -0.377409,-0.528373 -0.161033,-0.140891 -0.352253,-0.241533 -0.573662,-0.301928 -0.211354,-0.07044 -0.437799,-0.105665 -0.679337,-0.105674 -0.291867,9e-6 -0.558569,0.04027 -0.800108,0.120771 -0.241545,0.08052 -0.457926,0.176133 -0.649144,0.286831 -0.1912227,0.100651 -0.3522506,0.211358 -0.4830839,0.33212 -0.1308369,0.110715 -0.2314793,0.196261 -0.3019275,0.256638 L 8.526136,35.035944 c 0.090577,-0.100633 0.2264445,-0.221404 0.4076021,-0.362313 0.1811551,-0.150954 0.3975362,-0.291853 0.6491441,-0.422699 0.2516041,-0.130825 0.5334028,-0.241531 0.8453968,-0.33212 0.311989,-0.09057 0.649141,-0.135857 1.011457,-0.135867 1.096999,1e-5 1.917234,0.256648 2.46071,0.769915 0.553527,0.503222 0.830293,1.217783 0.8303,2.143685"
         style="font-size:15.09637547px;font-variant:normal;font-stretch:normal;fill:#000000;font-family:Ubuntu;-inkscape-font-specification:Ubuntu"
         id="path3159"
         inkscape:connector-curvature="0" />
      <path
         d="m 18.662644,44.486275 c 0.06038,-0.80514 0.201283,-1.650536 0.422699,-2.536191 0.231475,-0.895715 0.513273,-1.76124 0.845397,-2.596577 0.332116,-0.845391 0.694429,-1.62537 1.086939,-2.339938 0.402565,-0.724618 0.79507,-1.313376 1.177517,-1.766276 l -5.087478,0 0,-1.222806 6.657501,0 0,1.16242 c -0.332127,0.382451 -0.699472,0.910823 -1.102035,1.58512 -0.402576,0.664247 -0.785017,1.414033 -1.147325,2.24936 -0.352253,0.825273 -0.659213,1.710926 -0.920878,2.656962 -0.251611,0.935977 -0.407607,1.871951 -0.467988,2.807926 l -1.464349,0"
         style="font-size:15.09637547px;font-variant:normal;font-stretch:normal;fill:#000000;font-family:Ubuntu;-inkscape-font-specification:Ubuntu"
         id="path3161"
         inkscape:connector-curvature="0" />
      <path
         d="m 25.47795,39.247832 c 0,-1.751172 0.306959,-3.09978 0.920879,-4.045828 0.623982,-0.946029 1.484474,-1.419049 2.581481,-1.419059 1.096997,1e-5 1.952458,0.47303 2.566383,1.419059 0.623976,0.946048 0.935968,2.294656 0.935976,4.045828 -8e-6,1.751183 -0.312,3.099792 -0.935976,4.045829 -0.613925,0.94604 -1.469386,1.419059 -2.566383,1.419059 -1.097007,0 -1.957499,-0.473019 -2.581481,-1.419059 -0.61392,-0.946037 -0.920879,-2.294646 -0.920879,-4.045829 m 5.525274,0 c -6e-6,-0.573656 -0.03523,-1.117125 -0.105675,-1.630408 -0.06039,-0.51327 -0.171098,-0.961128 -0.33212,-1.343578 -0.150969,-0.382432 -0.357286,-0.68436 -0.618951,-0.905782 -0.261676,-0.231468 -0.583732,-0.347207 -0.966168,-0.347217 -0.382446,10e-6 -0.704502,0.115749 -0.966168,0.347217 -0.261674,0.221422 -0.473023,0.52335 -0.634048,0.905782 -0.150967,0.38245 -0.261673,0.830308 -0.332121,1.343578 -0.06039,0.513283 -0.09058,1.056752 -0.09058,1.630408 -2e-6,0.573667 0.03019,1.117136 0.09058,1.630409 0.07045,0.51328 0.181154,0.961139 0.332121,1.343577 0.161025,0.382444 0.372374,0.689403 0.634048,0.920879 0.261666,0.221415 0.583722,0.332122 0.966168,0.332121 0.382436,10e-7 0.704492,-0.110706 0.966168,-0.332121 0.261665,-0.231476 0.467982,-0.538435 0.618951,-0.920879 0.161022,-0.382438 0.271729,-0.830297 0.33212,-1.343577 0.07044,-0.513273 0.105669,-1.056742 0.105675,-1.630409"
         style="font-size:15.09637547px;font-variant:normal;font-stretch:normal;fill:#000000;font-family:Ubuntu;-inkscape-font-specification:Ubuntu"
         id="path3163"
         inkscape:connector-curvature="0" />
      <path
         d="m 39.328167,36.666352 c -6e-6,0.43277 -0.07046,0.825276 -0.211349,1.177518 -0.130841,0.352255 -0.317029,0.654182 -0.558566,0.905782 -0.241547,0.251612 -0.528378,0.447864 -0.860493,0.588759 -0.332125,0.13084 -0.694437,0.196258 -1.086939,0.196253 -0.392509,5e-6 -0.754822,-0.06541 -1.086939,-0.196253 -0.332122,-0.140895 -0.618953,-0.337147 -0.860494,-0.588759 -0.241543,-0.2516 -0.432763,-0.553527 -0.573662,-0.905782 -0.130836,-0.352242 -0.196253,-0.744748 -0.196253,-1.177518 0,-0.432754 0.06542,-0.82526 0.196253,-1.177517 0.140899,-0.362304 0.332119,-0.664231 0.573662,-0.905783 0.241541,-0.251596 0.528372,-0.442816 0.860494,-0.573662 0.332117,-0.140889 0.69443,-0.211338 1.086939,-0.211349 0.392502,1.1e-5 0.754814,0.07046 1.086939,0.211349 0.332115,0.130846 0.618946,0.322066 0.860493,0.573662 0.241537,0.241552 0.427725,0.543479 0.558566,0.905783 0.140894,0.352257 0.211343,0.744763 0.211349,1.177517 m -1.117131,0 c -5e-6,-0.563589 -0.140905,-1.011448 -0.422699,-1.343577 -0.271739,-0.342175 -0.664244,-0.513267 -1.177517,-0.513277 -0.503216,1e-5 -0.895721,0.171102 -1.177518,0.513277 -0.2818,0.332129 -0.4227,0.779988 -0.422698,1.343577 -2e-6,0.553541 0.135865,1.0014 0.407602,1.343578 0.281797,0.34219 0.679334,0.513282 1.192614,0.513276 0.513273,6e-6 0.905778,-0.171086 1.177517,-0.513276 0.281794,-0.342178 0.422694,-0.790037 0.422699,-1.343578"
         style="font-size:15.09637547px;font-variant:normal;font-stretch:normal;fill:#000000;font-family:Ubuntu;-inkscape-font-specification:Ubuntu"
         id="path3165"
         inkscape:connector-curvature="0" />
    </g>
    <path
       style="font-size:medium;font-style:normal;font-variant:normal;font-weight:normal;font-stretch:normal;text-indent:0;text-align:start;text-decoration:none;line-height:normal;letter-spacing:normal;word-spacing:normal;text-transform:none;direction:ltr;block-progression:tb;writing-mode:lr-tb;text-anchor:start;baseline-shift:baseline;color:#000000;fill:#000000;fill-opacity:1;stroke:none;stroke-width:2;marker:none;visibility:visible;display:inline;overflow:visible;enable-background:accumulate;font-family:Sans;-inkscape-font-specification:Sans"
       d="m 39.78125,4.6562499 c -1.922632,0 -3.5,1.57737 -3.5,3.5 0,1.579303 1.054257,2.9132741 2.5,3.3437501 l 0,16.15625 c -1.179031,0.357094 -2.089804,1.317051 -2.4375,2.5 l -15.25,0 c -0.44087,-1.429139 -1.745071,-2.5 -3.3125,-2.5 -1.922632,0 -3.5,1.577368 -3.5,3.5 0,1.922632 1.577368,3.5 3.5,3.5 1.567429,0 2.87163,-1.070861 3.3125,-2.5 l 15.25,0 c 0.357621,1.254774 1.334964,2.217276 2.59375,2.53125 L 38.90625,43 l -4,0 0,2 L 45,45 l 0,-2 -4.09375,0 0.03125,-8.375 c 1.454273,-0.483643 2.53125,-1.858336 2.53125,-3.46875 0,-1.679224 -1.136512,-3.107358 -2.6875,-3.53125 l 0,-16.125 c 1.431342,-0.439507 2.5,-1.7747471 2.5,-3.3437501 0,-1.92263 -1.577368,-3.5 -3.5,-3.5 z m 0,1.75 c 0.976862,0 1.75,0.77314 1.75,1.75 0,0.97686 -0.773138,1.75 -1.75,1.75 -0.976862,0 -1.75,-0.77314 -1.75,-1.75 0,-0.97686 0.773138,-1.75 1.75,-1.75 z M 39.8125,29.34375 c 1.02105,0 1.84375,0.79145 1.84375,1.8125 C 41.65625,32.1773 40.83355,33 39.8125,33 38.79145,33 38,32.1773 38,31.15625 c 0,-1.02105 0.79145,-1.8125 1.8125,-1.8125 z m -22.03125,0.0625 c 0.976862,0 1.75,0.773138 1.75,1.75 0,0.976862 -0.773138,1.75 -1.75,1.75 -0.976862,0 -1.75,-0.773138 -1.75,-1.75 0,-0.976862 0.773138,-1.75 1.75,-1.75 z"
       id="path3899-1-9-6-2"
       inkscape:connector-curvature="0" />
  </g>
</svg>
