<?xml version="1.0" encoding="UTF-8" standalone="no"?>
<!-- Created with Inkscape (http://www.inkscape.org/) -->

<svg
   xmlns:dc="http://purl.org/dc/elements/1.1/"
   xmlns:cc="http://creativecommons.org/ns#"
   xmlns:rdf="http://www.w3.org/1999/02/22-rdf-syntax-ns#"
   xmlns:svg="http://www.w3.org/2000/svg"
   xmlns="http://www.w3.org/2000/svg"
   xmlns:sodipodi="http://sodipodi.sourceforge.net/DTD/sodipodi-0.dtd"
   xmlns:inkscape="http://www.inkscape.org/namespaces/inkscape"
   width="48px"
   height="48px"
   id="svg2985"
   version="1.1"
   inkscape:version="0.48.4 r9939"
   sodipodi:docname="210-g.svg">
  <defs
     id="defs2987" />
  <sodipodi:namedview
     id="base"
     pagecolor="#ffffff"
     bordercolor="#666666"
     borderopacity="1.0"
     inkscape:pageopacity="0.0"
     inkscape:pageshadow="2"
     inkscape:zoom="10.59984"
     inkscape:cx="8.4384677"
     inkscape:cy="25.607119"
     inkscape:current-layer="layer1"
     showgrid="true"
     inkscape:grid-bbox="true"
     inkscape:document-units="px"
     inkscape:snap-center="false"
     inkscape:window-width="1307"
     inkscape:window-height="744"
     inkscape:window-x="59"
     inkscape:window-y="24"
     inkscape:window-maximized="1"
     showguides="true"
     inkscape:guide-bbox="true"
     inkscape:snap-bbox="true"
     inkscape:snap-grids="true"
     inkscape:snap-to-guides="false"
     inkscape:snap-object-midpoints="true"
     inkscape:snap-midpoints="false">
    <inkscape:grid
       type="xygrid"
       id="grid2995" />
    <sodipodi:guide
       orientation="1,0"
       position="45,29"
       id="guide4007" />
    <sodipodi:guide
       orientation="0,1"
       position="-1,30"
       id="guide4009" />
    <sodipodi:guide
       orientation="1,0"
       position="3,49"
       id="guide4011" />
    <sodipodi:guide
       orientation="0,1"
       position="51,3"
       id="guide4741" />
    <sodipodi:guide
       orientation="0,1"
       position="-2,45"
       id="guide4948" />
    <sodipodi:guide
       orientation="0,1"
       position="53,41"
       id="guide4955" />
    <sodipodi:guide
       orientation="0,1"
       position="52,18"
       id="guide4957" />
    <sodipodi:guide
       orientation="0,1"
       position="52,7"
       id="guide4959" />
  </sodipodi:namedview>
  <metadata
     id="metadata2990">
    <rdf:RDF>
      <cc:Work
         rdf:about="">
        <dc:format>image/svg+xml</dc:format>
        <dc:type
           rdf:resource="http://purl.org/dc/dcmitype/StillImage" />
        <dc:title></dc:title>
      </cc:Work>
    </rdf:RDF>
  </metadata>
  <g
     id="layer1"
     inkscape:label="Layer 1"
     inkscape:groupmode="layer">
    <g
       transform="scale(0.99361601,1.006425)"
       style="font-size:40.25699997000000252px;font-style:normal;font-weight:normal;line-height:125%;letter-spacing:0px;word-spacing:0px;fill:#000000;fill-opacity:1;stroke:none;font-family:Sans"
       id="text3003">
      <path
         d="m 9.2238853,32.722081 c -7.1e-6,0.36232 -0.075489,0.714568 -0.2264456,1.056746 -0.1409062,0.332127 -0.3321268,0.664246 -0.5736623,0.996361 -0.241548,0.322061 -0.5132825,0.644117 -0.8152043,0.966168 -0.3019326,0.311996 -0.6038598,0.618955 -0.9057825,0.920879 -0.1710966,0.171095 -0.3723814,0.37238 -0.603855,0.603855 -0.2214172,0.23148 -0.4327663,0.473022 -0.6340478,0.724626 -0.2012881,0.251608 -0.3723802,0.49315 -0.5132768,0.724626 -0.1308379,0.231479 -0.1962554,0.432764 -0.1962528,0.603855 l 4.8157437,0 0,1.192613 -6.3404777,0 c -0.010065,-0.06038 -0.015097,-0.120771 -0.015096,-0.181156 -1.1e-6,-0.06039 -1.1e-6,-0.115739 0,-0.16606 -1.1e-6,-0.473019 0.075481,-0.910814 0.2264456,-1.313385 C 3.6030001,38.438577 3.809317,38.051104 4.0609249,37.688788 4.312529,37.326478 4.5943277,36.984294 4.9063219,36.662235 5.2183106,36.340183 5.52527,36.028191 5.8272008,35.726259 6.0788032,35.484722 6.3153128,35.248213 6.5367305,35.01673 6.7682036,34.775193 6.9694884,34.538684 7.1405855,34.3072 7.3217368,34.065664 7.4626362,33.819091 7.563284,33.567478 7.6739852,33.315879 7.7293386,33.049176 7.7293441,32.76737 7.7293386,32.46545 7.6790174,32.208812 7.5783804,31.997455 7.4877968,31.786114 7.3619938,31.60999 7.200971,31.469081 7.0399381,31.328191 6.8487175,31.227549 6.6273087,31.167154 6.4159552,31.096714 6.1895098,31.061489 5.9479718,31.061479 c -0.2918667,1e-5 -0.5585691,0.04027 -0.8001079,0.120771 -0.2415447,0.08052 -0.4579259,0.176134 -0.6491441,0.286831 -0.1912229,0.100652 -0.3522508,0.211358 -0.483084,0.332121 -0.130837,0.110715 -0.2314794,0.196261 -0.3019275,0.256638 L 3.019275,31.061479 c 0.090577,-0.100633 0.2264445,-0.221404 0.4076021,-0.362313 0.1811551,-0.150954 0.3975363,-0.291853 0.6491442,-0.422698 0.2516041,-0.130825 0.5334028,-0.241532 0.845397,-0.332121 0.3119887,-0.09057 0.6491407,-0.135856 1.0114571,-0.135867 1.0969985,1.1e-5 1.9172341,0.256649 2.4607092,0.769915 0.553527,0.503222 0.8302936,1.217783 0.8303007,2.143686"
         style="font-size:15.09637546999999991px;font-variant:normal;font-stretch:normal;fill:#000000;font-family:Ubuntu;-inkscape-font-specification:Ubuntu"
         id="path3146" />
      <path
         d="m 12.099037,32.208804 c 0.573661,-0.221405 1.132226,-0.503204 1.675698,-0.845397 0.543466,-0.352239 1.041646,-0.790034 1.494541,-1.313385 l 0.996361,0 0,10.461788 -1.403963,0 0,-8.514355 c -0.120775,0.110715 -0.271739,0.226453 -0.452891,0.347216 -0.171096,0.120779 -0.362317,0.236518 -0.573663,0.347217 -0.201288,0.110714 -0.417669,0.216389 -0.649144,0.317024 -0.221416,0.10065 -0.437797,0.186196 -0.649144,0.256638 l -0.437795,-1.056746"
         style="font-size:15.09637546999999991px;font-variant:normal;font-stretch:normal;fill:#000000;font-family:Ubuntu;-inkscape-font-specification:Ubuntu"
         id="path3148" />
      <path
         d="m 19.971089,35.273368 c 0,-1.751173 0.306959,-3.099781 0.920879,-4.045829 0.623982,-0.946029 1.484474,-1.419048 2.581481,-1.419059 1.096997,1.1e-5 1.952458,0.47303 2.566383,1.419059 0.623976,0.946048 0.935968,2.294656 0.935976,4.045829 -8e-6,1.751183 -0.312,3.099791 -0.935976,4.045829 -0.613925,0.946039 -1.469386,1.419059 -2.566383,1.419059 -1.097007,0 -1.957499,-0.47302 -2.581481,-1.419059 -0.61392,-0.946038 -0.920879,-2.294646 -0.920879,-4.045829 m 5.525274,0 c -6e-6,-0.573656 -0.03523,-1.117125 -0.105675,-1.630409 -0.06039,-0.513269 -0.171098,-0.961128 -0.33212,-1.343577 -0.150969,-0.382433 -0.357286,-0.68436 -0.618951,-0.905782 -0.261676,-0.231469 -0.583732,-0.347208 -0.966168,-0.347217 -0.382446,9e-6 -0.704502,0.115748 -0.966168,0.347217 -0.261674,0.221422 -0.473023,0.523349 -0.634048,0.905782 -0.150966,0.382449 -0.261673,0.830308 -0.33212,1.343577 -0.06039,0.513284 -0.09058,1.056753 -0.09058,1.630409 -2e-6,0.573667 0.03019,1.117136 0.09058,1.630409 0.07045,0.513279 0.181154,0.961138 0.33212,1.343577 0.161025,0.382443 0.372374,0.689403 0.634048,0.920879 0.261666,0.221415 0.583722,0.332121 0.966168,0.33212 0.382436,1e-6 0.704492,-0.110705 0.966168,-0.33212 0.261665,-0.231476 0.467982,-0.538436 0.618951,-0.920879 0.161022,-0.382439 0.271729,-0.830298 0.33212,-1.343577 0.07044,-0.513273 0.105669,-1.056742 0.105675,-1.630409"
         style="font-size:15.09637546999999991px;font-variant:normal;font-stretch:normal;fill:#000000;font-family:Ubuntu;-inkscape-font-specification:Ubuntu"
         id="path3150" />
      <path
         d="m 33.821306,32.691888 c -6e-6,0.43277 -0.07046,0.825275 -0.211349,1.177517 -0.130841,0.352255 -0.317029,0.654182 -0.558566,0.905783 -0.241547,0.251611 -0.528378,0.447864 -0.860493,0.588758 -0.332125,0.130841 -0.694437,0.196258 -1.086939,0.196253 -0.392509,5e-6 -0.754822,-0.06541 -1.086939,-0.196253 -0.332122,-0.140894 -0.618953,-0.337147 -0.860494,-0.588758 -0.241543,-0.251601 -0.432763,-0.553528 -0.573662,-0.905783 -0.130836,-0.352242 -0.196253,-0.744747 -0.196253,-1.177517 0,-0.432755 0.06542,-0.82526 0.196253,-1.177517 0.140899,-0.362304 0.332119,-0.664231 0.573662,-0.905783 0.241541,-0.251596 0.528372,-0.442817 0.860494,-0.573662 0.332117,-0.140889 0.69443,-0.211339 1.086939,-0.21135 0.392502,1.1e-5 0.754814,0.07046 1.086939,0.21135 0.332115,0.130845 0.618946,0.322066 0.860493,0.573662 0.241537,0.241552 0.427725,0.543479 0.558566,0.905783 0.140894,0.352257 0.211343,0.744762 0.211349,1.177517 m -1.117131,0 c -5e-6,-0.56359 -0.140905,-1.011449 -0.422699,-1.343578 -0.271739,-0.342175 -0.664244,-0.513267 -1.177517,-0.513276 -0.503216,9e-6 -0.895721,0.171101 -1.177518,0.513276 -0.2818,0.332129 -0.4227,0.779988 -0.422698,1.343578 -2e-6,0.553541 0.135865,1.0014 0.407602,1.343577 0.281797,0.342191 0.679334,0.513283 1.192614,0.513277 0.513273,6e-6 0.905778,-0.171086 1.177517,-0.513277 0.281794,-0.342177 0.422694,-0.790036 0.422699,-1.343577"
         style="font-size:15.09637546999999991px;font-variant:normal;font-stretch:normal;fill:#000000;font-family:Ubuntu;-inkscape-font-specification:Ubuntu"
         id="path3152" />
    </g>
    <path
       style="font-size:medium;font-style:normal;font-variant:normal;font-weight:normal;font-stretch:normal;text-indent:0;text-align:start;text-decoration:none;line-height:normal;letter-spacing:normal;word-spacing:normal;text-transform:none;direction:ltr;block-progression:tb;writing-mode:lr-tb;text-anchor:start;baseline-shift:baseline;color:#000000;fill:#000000;fill-opacity:1;stroke:none;stroke-width:2;marker:none;visibility:visible;display:inline;overflow:visible;enable-background:accumulate;font-family:Sans;-inkscape-font-specification:Sans"
       d="M 39.34375,6 C 37.664526,6 36.236392,7.136512 35.8125,8.6875 l -16.125,0 c -0.439507,-1.431342 -1.774747,-2.5 -3.34375,-2.5 -1.92263,0 -3.5,1.577368 -3.5,3.5 0,1.922632 1.57737,3.5 3.5,3.5 1.579303,0 2.913274,-1.054257 3.34375,-2.5 l 15.65625,0 -6.78125,3.90625 -1.96875,-3.46875 -1.75,1 5.03125,8.75 1.75,-1 -2.0625,-3.5625 7.1875,-4.125 c 0.437933,0.434142 0.987635,0.759349 1.59375,0.9375 l 0,15.25 c -1.429139,0.44087 -2.5,1.745071 -2.5,3.3125 0,1.922632 1.577368,3.5 3.5,3.5 1.922632,0 3.5,-1.577368 3.5,-3.5 0,-1.567429 -1.070861,-2.87163 -2.5,-3.3125 l 0,-15.25 C 41.87561,12.688407 43,11.321807 43,9.65625 43,7.646649 41.353351,6 39.34375,6 z m 0,1.8125 c 1.02105,0 1.84375,0.8227 1.84375,1.84375 0,1.02105 -0.8227,1.8125 -1.84375,1.8125 -1.02105,0 -1.8125,-0.79145 -1.8125,-1.8125 0,-1.02105 0.79145,-1.84375 1.8125,-1.84375 z m -23,0.125 c 0.97686,0 1.75,0.773138 1.75,1.75 0,0.976862 -0.77314,1.75 -1.75,1.75 -0.97686,0 -1.75,-0.773138 -1.75,-1.75 0,-0.976862 0.77314,-1.75 1.75,-1.75 z m 23,22 c 0.976862,0 1.75,0.773138 1.75,1.75 0,0.976862 -0.773138,1.75 -1.75,1.75 -0.976862,0 -1.75,-0.773138 -1.75,-1.75 0,-0.976862 0.773138,-1.75 1.75,-1.75 z"
       id="path3899-1-9"
       inkscape:connector-curvature="0" />
  </g>
</svg>
